<svg xmlns="http://www.w3.org/2000/svg" width="210.722" height="207.828" viewBox="0 0 210.722 207.828">
    <defs>
        <style>
            .prefix__cls-2{fill:#ff2c9c}.prefix__cls-3{fill:#d3008d}.prefix__cls-5{fill:#fff}.prefix__cls-6{fill:#173d7a}.prefix__cls-7{fill:#396caa}.prefix__cls-8{fill:#274f89}.prefix__cls-11,.prefix__cls-9{fill:#d4ecff}.prefix__cls-10{fill:#5793ce}.prefix__cls-11{opacity:.5}.prefix__cls-12{fill:#983be9}.prefix__cls-13{fill:#ffc2b0}.prefix__cls-14{fill:#ea9c92}
        </style>
    </defs>
    <g id="prefix__Grupo_2383" data-name="Grupo 2383" transform="translate(-215.319 -55.724)" style="opacity:.696">
        <g id="prefix__Grupo_1009" data-name="Grupo 1009" transform="translate(241.893 125.753)">
            <g id="prefix__Grupo_1005" data-name="Grupo 1005">
                <path id="prefix__Trazado_1324" d="M342.627 176.391c0-5-3.515-7.032-7.844-4.538l-73.6 42.4a4.762 4.762 0 0 0-2.158 3.73c0 1.374.963 1.931 2.154 1.246l73.6-42.4c1.953-1.125 3.54-.208 3.538 2.046l-.008 8.231c1.428-.089 2.862-.09 4.309-.065z" class="prefix__cls-2" data-name="Trazado 1324" transform="translate(-259 -170.788)"/>
                <path id="prefix__Trazado_1325" d="M261.136 244.475l73.6-26.818a17.374 17.374 0 0 0 7.861-13.587l.005-6.586c-1.447-.025-2.881-.024-4.309.065l-.008 9a7.833 7.833 0 0 1-3.545 6.127l-73.6 26.819a4.763 4.763 0 0 0-2.158 3.73c0 1.375.964 1.936 2.154 1.25z" class="prefix__cls-3" data-name="Trazado 1325" transform="translate(-258.983 -181.231)"/>
            </g>
            <path id="prefix__Trazado_1326" d="M259.9 270.031l89.528 51.8 75.8-45.2 6.014-8.975-.624 3.18L429 262.51l-140.7 5.367-24.79-1.6z" class="prefix__cls-3" data-name="Trazado 1326" transform="translate(-259.341 -206.687)"/>
            <path id="prefix__Trazado_1327" d="M264.761 249.18l-.024 11.02 86.528 50.061 2.338-10.5z" data-name="Trazado 1327" transform="translate(-261.235 -201.47)" style="fill:#e573b5"/>
            <path id="prefix__Trazado_1328" d="M430.177 223.432l-89.386-51.714-80.591 46.866-.166 1.151 89.517 51.79z" class="prefix__cls-2" data-name="Trazado 1328" transform="translate(-259.394 -171.152)"/>
            <g id="prefix__Grupo_1006" data-name="Grupo 1006" transform="translate(89.999 56.411)">
                <path id="prefix__Trazado_1329" d="M459.147 285.9l21.016-12.467a7.9 7.9 0 0 0 3.16-5.861l.016-1.651a2.281 2.281 0 0 0-1.418-2.447L440.55 286.49l-33.69 18.223.031 11.143z" class="prefix__cls-5" data-name="Trazado 1329" transform="translate(-406.86 -263.476)"/>
            </g>
            <path id="prefix__Trazado_1330" d="M352.021 298.518L263.2 247.132l-1.882-1.089-1.72-1a4.337 4.337 0 0 0-.573 2 1.524 1.524 0 0 0 .612 1.38l.014.008h.007l89.5 51.778z" class="prefix__cls-3" data-name="Trazado 1330" transform="translate(-259 -199.853)"/>
            <path id="prefix__Trazado_1331" d="M405.167 358.76l1.116.646.206-.356-.7-.547z" class="prefix__cls-5" data-name="Trazado 1331" transform="translate(-316.198 -244.258)"/>
            <path id="prefix__Trazado_1332" d="M405.215 334.6l1.144.662-.287-.625z" class="prefix__cls-5" data-name="Trazado 1332" transform="translate(-316.217 -234.905)"/>
            <g id="prefix__Grupo_1007" data-name="Grupo 1007" transform="translate(89.517 51.79)">
                <path id="prefix__Trazado_1333" d="M408.252 299.352l73.6-42.4c4.33-2.495 7.849-.459 7.844 4.538l-.015 1.651a17.372 17.372 0 0 1-7.861 13.586l-73.6 42.4c-1.19.686-2.154.128-2.153-1.245a4.765 4.765 0 0 1 2.158-3.73l73.6-42.4a7.833 7.833 0 0 0 3.545-6.127l.016-1.651c0-2.254-1.585-3.171-3.538-2.047l-73.6 42.4c-1.19.686-2.154.128-2.153-1.245a4.763 4.763 0 0 1 2.157-3.73z" class="prefix__cls-2" data-name="Trazado 1333" transform="translate(-406.067 -255.883)"/>
            </g>
            <g id="prefix__Grupo_1008" data-name="Grupo 1008" transform="translate(88.337 51.109)">
                <path id="prefix__Trazado_1334" d="M405.308 321.472a4.765 4.765 0 0 1 2.158-3.73l73.6-42.4a7.834 7.834 0 0 0 3.545-6.127l.016-1.651c0-1.475-.681-2.374-1.7-2.505a2.963 2.963 0 0 1 .519 1.823l-.015 1.651a7.835 7.835 0 0 1-3.545 6.127l-73.6 42.4a4.764 4.764 0 0 0-2.158 3.73c0 1.041.554 1.61 1.34 1.528a2.069 2.069 0 0 1-.16-.846z" class="prefix__cls-5" data-name="Trazado 1334" transform="translate(-404.129 -258.793)"/>
                <path id="prefix__Trazado_1335" d="M405.353 302.644a4.761 4.761 0 0 1 2.158-3.73l73.6-42.4a5.937 5.937 0 0 1 4.924-.823c-1.439-1.227-3.638-1.279-6.1.141l-73.6 42.4a4.762 4.762 0 0 0-2.158 3.73c0 1.041.554 1.61 1.34 1.528a2.059 2.059 0 0 1-.164-.846z" class="prefix__cls-5" data-name="Trazado 1335" transform="translate(-404.147 -254.765)"/>
            </g>
        </g>
        <g id="prefix__Grupo_1013" data-name="Grupo 1013" transform="translate(252.695 55.724)">
            <path id="prefix__Trazado_1336" d="M482.983 102.06l-79.406-45.846a3.206 3.206 0 0 0-2.691-.33v-.008l-.144.054-.035.013-2.87 1.1 2.576 1.261c-.012.047-.026.092-.037.141l-12.934 58.875c-.648 2.946.649 6.386 2.9 7.683l77.5 44.742-.276 3.284 3.136-1.215a4.408 4.408 0 0 0 2.246-3.195l12.934-58.875c.644-2.944-.653-6.387-2.899-7.684z" class="prefix__cls-6" data-name="Trazado 1336" transform="translate(-319.999 -55.724)"/>
            <path id="prefix__Trazado_1337" d="M485.926 102.06L406.52 56.214a3.205 3.205 0 0 0-2.691-.33v-.008l-.144.054-.035.013-2.87 1.1 2.58 1.257c-.012.047-.026.092-.037.141l-8.524 38.8 38.852 30.27 54.783-22.291a6.162 6.162 0 0 0-2.508-3.16z" class="prefix__cls-7" data-name="Trazado 1337" transform="translate(-322.942 -55.724)"/>
            <path id="prefix__Trazado_1338" d="M535.769 141.181l6.045-2.574a7.574 7.574 0 0 0-2.449-6.053l-9.565 4.026z" class="prefix__cls-8" data-name="Trazado 1338" transform="translate(-375.779 -85.795)"/>
            <path id="prefix__Trazado_1339" d="M461.623 173.428l-79.406-45.845c-2.246-1.3-3.543-4.737-2.9-7.683l12.934-58.875c.648-2.946 2.993-4.283 5.24-2.986l79.409 45.845c2.246 1.3 3.543 4.737 2.9 7.683l-12.934 58.875c-.651 2.946-2.996 4.283-5.243 2.986z" class="prefix__cls-9" data-name="Trazado 1339" transform="translate(-316.819 -56.436)"/>
            <path id="prefix__Trazado_1340" d="M487.938 103.429l-79.407-45.845a3.139 3.139 0 0 0-3.126-.136 3.263 3.263 0 0 1 2.364.415l79.406 45.845c2.246 1.3 3.543 4.737 2.9 7.684l-12.934 58.875a4.474 4.474 0 0 1-2.113 3.122 4.094 4.094 0 0 0 2.876-3.4l12.934-58.874c.642-2.949-.654-6.389-2.9-7.686z" class="prefix__cls-5" data-name="Trazado 1340" transform="translate(-327.093 -56.26)"/>
            <path id="prefix__Trazado_1341" d="M462 171.826l-74.681-43.1c-2.055-1.187-3.241-4.335-2.649-7.031l11.836-53.876c.592-2.7 2.739-3.919 4.795-2.733l74.68 43.1c2.056 1.187 3.242 4.335 2.65 7.031L466.8 169.093c-.6 2.696-2.743 3.92-4.8 2.733z" class="prefix__cls-5" data-name="Trazado 1341" transform="translate(-318.919 -59.213)"/>
            <path id="prefix__Trazado_1342" d="M462 171.826l-74.681-43.1c-2.055-1.187-3.241-4.335-2.649-7.031l11.836-53.876c.592-2.7 2.739-3.919 4.795-2.733l74.68 43.1c2.056 1.187 3.242 4.335 2.65 7.031L466.8 169.093c-.6 2.696-2.743 3.92-4.8 2.733z" class="prefix__cls-6" data-name="Trazado 1342" transform="translate(-318.919 -59.213)"/>
            <path id="prefix__Trazado_1343" d="M462.652 171.616l-74.68-43.1c-2.056-1.186-3.242-4.334-2.65-7.03l11.836-53.876a4.133 4.133 0 0 1 1.881-2.836 3.8 3.8 0 0 0-2.532 3.1l-11.836 53.875c-.592 2.7.594 5.844 2.649 7.031L462 171.881a2.87 2.87 0 0 0 2.912.1 2.978 2.978 0 0 1-2.26-.365z" class="prefix__cls-10" data-name="Trazado 1343" transform="translate(-318.919 -59.267)"/>
            <path id="prefix__Trazado_1344" d="M422.633 223.734l-10.854-1.434-70.067-40.453c-2.246-1.3-6.169-1.134-8.763.363L283.3 210.866l-6.564-.866v3.723h.007a2.558 2.558 0 0 0 1.507 2.3l79.406 45.845c2.246 1.3 6.17 1.134 8.764-.363l54.07-31.205c1.459-.842 2.186-1.927 2.143-2.947z" class="prefix__cls-6" data-name="Trazado 1344" transform="translate(-276.733 -104.745)"/>
            <path id="prefix__Trazado_1345" d="M369.988 207.386l-4.978-2.874h-54.729L283.3 220.079l-6.564-.867v3.723h.007a2.558 2.558 0 0 0 1.507 2.3l79.406 45.845a8.219 8.219 0 0 0 4.523.848z" class="prefix__cls-7" data-name="Trazado 1345" transform="translate(-276.733 -113.958)"/>
            <path id="prefix__Trazado_1346" d="M279.649 229.051l-2.913-.385v3.723h.007a2.557 2.557 0 0 0 1.507 2.3l1.4.808z" class="prefix__cls-10" data-name="Trazado 1346" transform="translate(-276.733 -123.412)"/>
            <path id="prefix__Trazado_1347" d="M411.009 308.865a10.171 10.171 0 0 0 7.446-.462V300.1h-7.446z" class="prefix__cls-8" data-name="Trazado 1347" transform="translate(-329.286 -151.369)"/>
            <path id="prefix__Trazado_1348" d="M357.654 254.18l-79.406-45.845c-2.246-1.3-1.965-3.562.629-5.06l54.07-31.207c2.594-1.5 6.518-1.66 8.763-.363l79.407 45.845c2.246 1.3 1.965 3.562-.629 5.059l-54.07 31.207c-2.594 1.498-6.518 1.661-8.764.364z" class="prefix__cls-9" data-name="Trazado 1348" transform="translate(-276.731 -100.775)"/>
            <path id="prefix__Trazado_1349" d="M420.491 243.511l-54.07 31.207c-2.594 1.5-6.518 1.66-8.764.364l-79.406-45.846a2.951 2.951 0 0 1-1.4-1.528 2.4 2.4 0 0 0 1.4 2.888l79.406 45.845c2.246 1.3 6.17 1.134 8.764-.363l54.07-31.207c1.743-1.006 2.437-2.359 2.025-3.532a4.221 4.221 0 0 1-2.025 2.172z" class="prefix__cls-5" data-name="Trazado 1349" transform="translate(-276.734 -123.037)"/>
            <g id="prefix__Grupo_1010" data-name="Grupo 1010" transform="translate(31.502 72.877)">
                <path id="prefix__Trazado_1350" d="M332.279 204.087l-3.593-2.074c-.289-.167-.252-.458.081-.65l4.241-2.448a1.252 1.252 0 0 1 1.125-.047l3.593 2.075c.289.166.252.457-.081.649l-4.245 2.448a1.252 1.252 0 0 1-1.121.047z" class="prefix__cls-10" data-name="Trazado 1350" transform="translate(-328.491 -184.582)"/>
                <path id="prefix__Trazado_1351" d="M341.4 209.35l-3.593-2.074c-.288-.167-.253-.458.081-.65l4.241-2.448a1.25 1.25 0 0 1 1.125-.046l3.593 2.074c.289.167.253.458-.081.65l-4.241 2.448a1.25 1.25 0 0 1-1.125.046z" class="prefix__cls-10" data-name="Trazado 1351" transform="translate(-332.059 -186.642)"/>
                <path id="prefix__Trazado_1352" d="M350.512 214.614l-3.593-2.075c-.289-.166-.252-.457.081-.649l4.241-2.448a1.252 1.252 0 0 1 1.125-.047l3.593 2.075c.288.166.252.457-.081.649l-4.241 2.448a1.252 1.252 0 0 1-1.125.047z" class="prefix__cls-10" data-name="Trazado 1352" transform="translate(-335.627 -188.703)"/>
                <path id="prefix__Trazado_1353" d="M363.12 210.52l-3.593-2.074c-.288-.167-.252-.458.081-.65l3.56-2.055a1.252 1.252 0 0 1 1.125-.047l3.593 2.075c.288.166.252.457-.081.649l-3.56 2.055a1.251 1.251 0 0 1-1.125.047z" class="prefix__cls-10" data-name="Trazado 1353" transform="translate(-340.562 -187.254)"/>
                <path id="prefix__Trazado_1354" d="M372.237 215.783l-3.593-2.074c-.288-.166-.253-.457.08-.649l3.56-2.056a1.25 1.25 0 0 1 1.125-.046l3.591 2.074c.288.167.253.458-.081.65l-3.56 2.055a1.25 1.25 0 0 1-1.122.046z" class="prefix__cls-10" data-name="Trazado 1354" transform="translate(-344.131 -189.314)"/>
                <path id="prefix__Trazado_1355" d="M381.353 221.047l-3.593-2.074c-.288-.167-.252-.458.081-.65l3.56-2.055a1.252 1.252 0 0 1 1.125-.047l3.593 2.075c.289.166.252.457-.081.649L382.479 221a1.251 1.251 0 0 1-1.126.047z" class="prefix__cls-10" data-name="Trazado 1355" transform="translate(-347.699 -191.374)"/>
                <path id="prefix__Trazado_1356" d="M390.47 226.31l-3.593-2.074c-.289-.167-.253-.458.08-.65l3.56-2.055a1.25 1.25 0 0 1 1.125-.046l3.593 2.074c.289.167.253.458-.081.65l-3.56 2.055a1.25 1.25 0 0 1-1.124.046z" class="prefix__cls-10" data-name="Trazado 1356" transform="translate(-351.267 -193.434)"/>
                <path id="prefix__Trazado_1357" d="M399.587 231.574l-3.593-2.075c-.288-.166-.252-.457.081-.649l3.56-2.055a1.25 1.25 0 0 1 1.125-.047l3.593 2.074c.288.167.252.458-.081.65l-3.56 2.055a1.252 1.252 0 0 1-1.125.047z" class="prefix__cls-10" data-name="Trazado 1357" transform="translate(-354.835 -195.494)"/>
                <path id="prefix__Trazado_1358" d="M408.7 236.837l-3.593-2.074c-.288-.167-.253-.458.08-.65l3.56-2.055a1.25 1.25 0 0 1 1.125-.046l3.593 2.074c.288.166.253.458-.08.649l-3.56 2.055a1.25 1.25 0 0 1-1.125.047z" class="prefix__cls-10" data-name="Trazado 1358" transform="translate(-358.403 -197.554)"/>
                <path id="prefix__Trazado_1359" d="M417.82 242.1l-3.593-2.075c-.288-.166-.252-.457.081-.649l3.56-2.055a1.25 1.25 0 0 1 1.125-.047l3.593 2.074c.288.167.252.458-.081.65l-3.56 2.055a1.252 1.252 0 0 1-1.125.047z" class="prefix__cls-10" data-name="Trazado 1359" transform="translate(-361.971 -199.615)"/>
                <path id="prefix__Trazado_1360" d="M426.936 247.364l-3.593-2.074c-.289-.167-.253-.458.081-.65l3.56-2.055a1.252 1.252 0 0 1 1.125-.047l3.593 2.075c.289.166.253.457-.08.649l-3.56 2.055a1.25 1.25 0 0 1-1.126.047z" class="prefix__cls-10" data-name="Trazado 1360" transform="translate(-365.539 -201.675)"/>
                <path id="prefix__Trazado_1361" d="M436.053 252.628l-3.593-2.075c-.288-.166-.252-.457.081-.65l3.56-2.055a1.253 1.253 0 0 1 1.126-.046l3.593 2.074c.288.167.252.458-.081.65l-3.56 2.055a1.252 1.252 0 0 1-1.126.047z" class="prefix__cls-10" data-name="Trazado 1361" transform="translate(-369.107 -203.735)"/>
                <path id="prefix__Trazado_1362" d="M445.169 257.891l-3.593-2.074c-.288-.167-.253-.458.081-.65l3.56-2.055a1.252 1.252 0 0 1 1.125-.047l3.593 2.075c.288.166.253.457-.08.649l-3.56 2.055a1.25 1.25 0 0 1-1.126.047z" class="prefix__cls-10" data-name="Trazado 1362" transform="translate(-372.676 -205.795)"/>
                <path id="prefix__Trazado_1363" d="M376.553 208.028l-3.593-2.074c-.289-.167-.253-.458.08-.65l3.56-2.055a1.252 1.252 0 0 1 1.125-.047l3.593 2.075c.289.166.253.457-.081.649l-3.56 2.055a1.25 1.25 0 0 1-1.124.047z" class="prefix__cls-10" data-name="Trazado 1363" transform="translate(-345.82 -186.279)"/>
                <path id="prefix__Trazado_1364" d="M367.3 202.686l-3.593-2.074c-.288-.167-.252-.458.081-.65l3.56-2.055a1.252 1.252 0 0 1 1.125-.047l3.593 2.075c.288.166.252.457-.081.649l-3.56 2.055a1.251 1.251 0 0 1-1.125.047z" class="prefix__cls-10" data-name="Trazado 1364" transform="translate(-342.198 -184.188)"/>
                <path id="prefix__Trazado_1365" d="M355.367 195.8l-7.738-4.467c-.288-.167-.252-.458.081-.65l3.56-2.055a1.253 1.253 0 0 1 1.126-.047l7.738 4.468c.288.167.252.458-.081.65l-3.56 2.055a1.25 1.25 0 0 1-1.126.046z" class="prefix__cls-10" data-name="Trazado 1365" transform="translate(-335.905 -180.555)"/>
                <path id="prefix__Trazado_1366" d="M362.783 189.831l-6.28-3.626c-.288-.166-.253-.457.081-.65l3.56-2.055a1.252 1.252 0 0 1 1.125-.046l6.28 3.625c.288.166.253.457-.081.65l-3.56 2.055a1.25 1.25 0 0 1-1.125.047z" class="prefix__cls-10" data-name="Trazado 1366" transform="translate(-339.379 -178.549)"/>
                <path id="prefix__Trazado_1367" d="M385.67 213.291l-3.593-2.074c-.289-.166-.252-.457.081-.649l3.56-2.056a1.25 1.25 0 0 1 1.125-.046l3.593 2.074c.288.167.252.458-.081.65l-3.56 2.055a1.25 1.25 0 0 1-1.125.046z" class="prefix__cls-10" data-name="Trazado 1367" transform="translate(-349.388 -188.339)"/>
                <path id="prefix__Trazado_1368" d="M394.786 218.555l-3.593-2.074c-.288-.167-.253-.458.081-.65l3.56-2.055a1.252 1.252 0 0 1 1.125-.047l3.593 2.075c.288.166.253.457-.08.649l-3.56 2.055a1.25 1.25 0 0 1-1.126.047z" class="prefix__cls-10" data-name="Trazado 1368" transform="translate(-352.956 -190.399)"/>
                <path id="prefix__Trazado_1369" d="M403.9 223.818l-3.593-2.074c-.288-.167-.252-.458.081-.65l3.56-2.055a1.251 1.251 0 0 1 1.126-.046l3.593 2.074c.288.167.252.458-.081.65l-3.56 2.055a1.25 1.25 0 0 1-1.126.046z" class="prefix__cls-10" data-name="Trazado 1369" transform="translate(-356.524 -192.459)"/>
                <path id="prefix__Trazado_1370" d="M413.019 229.082l-3.593-2.074c-.288-.167-.253-.458.081-.65l3.56-2.055a1.252 1.252 0 0 1 1.125-.047l3.593 2.074c.289.167.253.458-.08.65l-3.56 2.055a1.25 1.25 0 0 1-1.126.047z" class="prefix__cls-10" data-name="Trazado 1370" transform="translate(-360.092 -194.519)"/>
                <path id="prefix__Trazado_1371" d="M422.136 234.345l-3.593-2.074c-.289-.167-.252-.458.081-.65l3.56-2.055a1.251 1.251 0 0 1 1.126-.046l3.593 2.074c.288.167.252.458-.081.65l-3.56 2.055a1.25 1.25 0 0 1-1.126.046z" class="prefix__cls-10" data-name="Trazado 1371" transform="translate(-363.66 -196.579)"/>
                <path id="prefix__Trazado_1372" d="M431.252 239.609l-3.593-2.075c-.288-.166-.253-.457.081-.649l3.56-2.055a1.25 1.25 0 0 1 1.125-.047l3.593 2.074c.288.167.253.458-.08.65l-3.56 2.055a1.252 1.252 0 0 1-1.126.047z" class="prefix__cls-10" data-name="Trazado 1372" transform="translate(-367.229 -198.639)"/>
                <path id="prefix__Trazado_1373" d="M440.369 244.872l-3.593-2.074c-.288-.167-.252-.458.081-.65l3.56-2.055a1.251 1.251 0 0 1 1.126-.046l3.593 2.074c.288.166.253.457-.081.649l-3.56 2.055a1.25 1.25 0 0 1-1.126.047z" class="prefix__cls-10" data-name="Trazado 1373" transform="translate(-370.797 -200.699)"/>
                <path id="prefix__Trazado_1374" d="M449.485 250.136l-3.593-2.075c-.289-.166-.253-.457.081-.649l3.56-2.055a1.25 1.25 0 0 1 1.125-.047l3.593 2.074c.289.167.252.458-.081.65l-3.56 2.055a1.253 1.253 0 0 1-1.125.047z" class="prefix__cls-10" data-name="Trazado 1374" transform="translate(-374.365 -202.759)"/>
                <path id="prefix__Trazado_1375" d="M458.6 255.4l-3.593-2.074c-.288-.167-.253-.458.08-.65l3.56-2.055a1.252 1.252 0 0 1 1.125-.047l3.593 2.075c.288.166.253.457-.081.649l-3.56 2.055a1.25 1.25 0 0 1-1.124.047z" class="prefix__cls-10" data-name="Trazado 1375" transform="translate(-377.933 -204.819)"/>
                <path id="prefix__Trazado_1376" d="M472.078 263.18l-7.84-4.526c-.288-.167-.252-.458.081-.65l3.56-2.055a1.253 1.253 0 0 1 1.126-.047l7.839 4.526c.288.166.253.457-.081.65l-3.56 2.055a1.25 1.25 0 0 1-1.125.047z" class="prefix__cls-10" data-name="Trazado 1376" transform="translate(-381.545 -206.905)"/>
                <path id="prefix__Trazado_1377" d="M490.614 253.386l-6.614-3.82c-.288-.166-.252-.457.081-.649l3.56-2.056a1.25 1.25 0 0 1 1.125-.046l6.617 3.82c.288.166.253.457-.081.649l-3.56 2.055a1.25 1.25 0 0 1-1.128.047z" class="prefix__cls-10" data-name="Trazado 1377" transform="translate(-389.279 -203.348)"/>
                <path id="prefix__Trazado_1378" d="M401.635 212.262l-3.593-2.075c-.288-.166-.252-.457.081-.649l3.56-2.055a1.25 1.25 0 0 1 1.125-.047l3.593 2.074c.288.167.252.458-.081.65l-3.56 2.055a1.252 1.252 0 0 1-1.125.047z" class="prefix__cls-10" data-name="Trazado 1378" transform="translate(-355.637 -187.936)"/>
                <path id="prefix__Trazado_1379" d="M392.291 206.867l-3.593-2.074c-.288-.167-.253-.458.081-.65l3.56-2.055a1.25 1.25 0 0 1 1.125-.046l3.593 2.074c.288.167.253.458-.08.65l-3.56 2.055a1.25 1.25 0 0 1-1.126.046z" class="prefix__cls-10" data-name="Trazado 1379" transform="translate(-351.98 -185.824)"/>
                <path id="prefix__Trazado_1380" d="M382.948 201.473l-3.593-2.074c-.288-.167-.253-.458.08-.65l3.56-2.055a1.252 1.252 0 0 1 1.125-.047l3.593 2.075c.288.166.253.457-.081.649l-3.56 2.055a1.25 1.25 0 0 1-1.124.047z" class="prefix__cls-10" data-name="Trazado 1380" transform="translate(-348.323 -183.713)"/>
                <path id="prefix__Trazado_1381" d="M373.605 196.079L370.012 194c-.288-.166-.252-.457.081-.649l3.56-2.055a1.251 1.251 0 0 1 1.126-.047l3.593 2.074c.288.167.252.458-.081.65l-3.56 2.055a1.252 1.252 0 0 1-1.126.051z" class="prefix__cls-10" data-name="Trazado 1381" transform="translate(-344.666 -181.602)"/>
                <path id="prefix__Trazado_1382" d="M410.751 217.525l-3.593-2.074c-.289-.167-.253-.458.081-.65l3.56-2.055a1.252 1.252 0 0 1 1.125-.047l3.593 2.075c.289.166.253.457-.08.649l-3.56 2.055a1.25 1.25 0 0 1-1.126.047z" class="prefix__cls-10" data-name="Trazado 1382" transform="translate(-359.205 -189.996)"/>
                <path id="prefix__Trazado_1383" d="M419.868 222.789l-3.593-2.075c-.288-.166-.252-.457.081-.649l3.56-2.056a1.253 1.253 0 0 1 1.126-.046l3.593 2.074c.288.167.252.458-.081.65l-3.56 2.055a1.252 1.252 0 0 1-1.126.047z" class="prefix__cls-10" data-name="Trazado 1383" transform="translate(-362.773 -192.056)"/>
                <path id="prefix__Trazado_1384" d="M428.984 228.052l-3.593-2.074c-.288-.167-.253-.458.081-.65l3.56-2.055a1.252 1.252 0 0 1 1.125-.047l3.593 2.075c.288.166.253.457-.08.649l-3.56 2.055a1.25 1.25 0 0 1-1.126.047z" class="prefix__cls-10" data-name="Trazado 1384" transform="translate(-366.341 -194.116)"/>
                <path id="prefix__Trazado_1385" d="M438.1 233.315l-3.593-2.074c-.288-.167-.252-.457.081-.65l3.56-2.055a1.251 1.251 0 0 1 1.126-.046l3.593 2.074c.288.167.252.458-.081.65l-3.56 2.055a1.25 1.25 0 0 1-1.126.046z" class="prefix__cls-10" data-name="Trazado 1385" transform="translate(-369.909 -196.176)"/>
                <path id="prefix__Trazado_1386" d="M447.217 238.579l-3.593-2.074c-.289-.167-.253-.458.081-.65l3.56-2.055a1.25 1.25 0 0 1 1.125-.047l3.593 2.075c.288.166.253.457-.08.649l-3.56 2.055a1.25 1.25 0 0 1-1.126.047z" class="prefix__cls-10" data-name="Trazado 1386" transform="translate(-373.477 -198.236)"/>
                <path id="prefix__Trazado_1387" d="M456.334 243.842l-3.593-2.074c-.288-.167-.252-.458.081-.65l3.56-2.055a1.251 1.251 0 0 1 1.126-.046l3.593 2.074c.288.167.253.458-.081.65l-3.56 2.055a1.25 1.25 0 0 1-1.126.046z" class="prefix__cls-10" data-name="Trazado 1387" transform="translate(-377.045 -200.296)"/>
                <path id="prefix__Trazado_1388" d="M465.45 249.106l-3.593-2.075c-.288-.166-.253-.457.081-.649l3.56-2.055a1.25 1.25 0 0 1 1.125-.047l3.593 2.074c.288.167.252.458-.081.65l-3.56 2.055a1.253 1.253 0 0 1-1.125.047z" class="prefix__cls-10" data-name="Trazado 1388" transform="translate(-380.613 -202.356)"/>
                <path id="prefix__Trazado_1389" d="M474.567 254.369l-3.593-2.074c-.288-.167-.253-.458.08-.65l3.56-2.055a1.252 1.252 0 0 1 1.125-.047l3.593 2.075c.288.167.253.457-.081.649l-3.56 2.055a1.25 1.25 0 0 1-1.124.047z" class="prefix__cls-10" data-name="Trazado 1389" transform="translate(-384.182 -204.416)"/>
                <path id="prefix__Trazado_1390" d="M483.683 259.633l-3.593-2.075c-.288-.166-.252-.457.081-.649l3.56-2.055a1.25 1.25 0 0 1 1.125-.047l3.593 2.074c.288.167.252.458-.081.65l-3.56 2.055a1.253 1.253 0 0 1-1.125.047z" class="prefix__cls-10" data-name="Trazado 1390" transform="translate(-387.75 -206.476)"/>
                <path id="prefix__Trazado_1391" d="M396.834 199.243l-3.593-2.074c-.288-.167-.253-.458.081-.65l3.56-2.055a1.252 1.252 0 0 1 1.125-.047l3.593 2.075c.288.166.253.457-.08.649l-3.56 2.055a1.25 1.25 0 0 1-1.126.047z" class="prefix__cls-10" data-name="Trazado 1391" transform="translate(-353.758 -182.84)"/>
                <path id="prefix__Trazado_1392" d="M387.763 194.006l-3.593-2.075c-.289-.166-.253-.457.08-.649l3.56-2.055a1.25 1.25 0 0 1 1.125-.047l3.593 2.074c.288.167.253.458-.081.65l-3.56 2.055a1.252 1.252 0 0 1-1.124.047z" class="prefix__cls-10" data-name="Trazado 1392" transform="translate(-350.207 -180.791)"/>
                <path id="prefix__Trazado_1393" d="M378.692 188.768l-3.593-2.074c-.288-.167-.252-.458.081-.65l3.56-2.055a1.251 1.251 0 0 1 1.126-.046l3.593 2.074c.289.167.253.458-.081.65l-3.56 2.055a1.25 1.25 0 0 1-1.126.046z" class="prefix__cls-10" data-name="Trazado 1393" transform="translate(-346.657 -178.741)"/>
                <path id="prefix__Trazado_1394" d="M369.621 183.531l-3.593-2.074c-.288-.167-.252-.458.081-.65l3.56-2.055a1.25 1.25 0 0 1 1.125-.046l3.593 2.074c.288.166.252.458-.081.649l-3.56 2.056a1.25 1.25 0 0 1-1.125.046z" class="prefix__cls-10" data-name="Trazado 1394" transform="translate(-343.107 -176.691)"/>
                <path id="prefix__Trazado_1395" d="M378.949 179.031l-3.593-2.075c-.288-.166-.252-.457.081-.649l1.177-.68a1.25 1.25 0 0 1 1.125-.046l3.593 2.074c.288.167.253.458-.081.65l-1.176.679a1.252 1.252 0 0 1-1.126.047z" class="prefix__cls-10" data-name="Trazado 1395" transform="translate(-346.757 -175.468)"/>
                <path id="prefix__Trazado_1396" d="M390.786 185.865l-3.593-2.074c-.288-.167-.252-.458.081-.65l1.176-.679a1.253 1.253 0 0 1 1.126-.047l3.593 2.075c.288.166.253.457-.081.649l-1.176.68a1.251 1.251 0 0 1-1.126.046z" class="prefix__cls-10" data-name="Trazado 1396" transform="translate(-351.391 -178.143)"/>
                <path id="prefix__Trazado_1397" d="M399.82 191.081l-3.593-2.075c-.289-.166-.252-.457.081-.649l1.177-.68a1.25 1.25 0 0 1 1.125-.046l3.59 2.069c.288.167.253.458-.08.65l-1.177.679a1.252 1.252 0 0 1-1.123.052z" class="prefix__cls-10" data-name="Trazado 1397" transform="translate(-354.926 -180.184)"/>
                <path id="prefix__Trazado_1398" d="M408.853 196.3l-3.593-2.074c-.289-.167-.253-.458.081-.65l1.176-.679a1.252 1.252 0 0 1 1.125-.047l3.593 2.075c.289.166.252.457-.081.649l-1.177.68a1.25 1.25 0 0 1-1.124.046z" class="prefix__cls-10" data-name="Trazado 1398" transform="translate(-358.462 -182.226)"/>
                <path id="prefix__Trazado_1399" d="M417.887 201.512l-3.593-2.075c-.288-.166-.252-.457.081-.649l1.177-.68a1.25 1.25 0 0 1 1.125-.046l3.593 2.074c.288.166.253.457-.081.649l-1.176.68a1.252 1.252 0 0 1-1.126.047z" class="prefix__cls-10" data-name="Trazado 1399" transform="translate(-361.997 -184.267)"/>
                <path id="prefix__Trazado_1400" d="M468.319 230.628l-3.593-2.074c-.288-.167-.252-.457.081-.649l1.177-.68a1.25 1.25 0 0 1 1.125-.046l3.593 2.074c.288.166.253.457-.081.65l-1.176.679a1.25 1.25 0 0 1-1.126.046z" class="prefix__cls-10" data-name="Trazado 1400" transform="translate(-381.736 -195.663)"/>
                <path id="prefix__Trazado_1401" d="M477.352 235.844l-3.593-2.074c-.288-.167-.253-.458.08-.65l1.177-.679a1.25 1.25 0 0 1 1.125-.047l3.593 2.074c.288.167.252.458-.081.65l-1.177.679a1.25 1.25 0 0 1-1.124.047z" class="prefix__cls-10" data-name="Trazado 1401" transform="translate(-385.272 -197.704)"/>
                <path id="prefix__Trazado_1402" d="M486.385 241.059l-3.593-2.074c-.288-.167-.253-.458.081-.65l1.176-.679a1.253 1.253 0 0 1 1.126-.047l3.593 2.075c.288.166.252.457-.081.649l-1.176.68a1.251 1.251 0 0 1-1.126.046z" class="prefix__cls-10" data-name="Trazado 1402" transform="translate(-388.807 -199.745)"/>
                <path id="prefix__Trazado_1403" d="M495.419 246.275l-3.593-2.074c-.289-.167-.252-.458.081-.65l1.177-.68a1.252 1.252 0 0 1 1.125-.046l3.591 2.075c.288.167.253.458-.08.65l-1.177.679a1.252 1.252 0 0 1-1.124.046z" class="prefix__cls-10" data-name="Trazado 1403" transform="translate(-392.343 -201.787)"/>
                <path id="prefix__Trazado_1404" d="M405.951 204.506l-3.593-2.074c-.288-.167-.252-.458.081-.65l3.56-2.055a1.251 1.251 0 0 1 1.126-.046l3.593 2.074c.288.167.252.458-.081.65l-3.56 2.055a1.25 1.25 0 0 1-1.126.046z" class="prefix__cls-10" data-name="Trazado 1404" transform="translate(-357.326 -184.9)"/>
                <path id="prefix__Trazado_1405" d="M415.067 209.77l-3.593-2.075c-.288-.166-.253-.457.081-.649l3.56-2.055a1.252 1.252 0 0 1 1.125-.047l3.593 2.074c.288.167.253.458-.08.65l-3.56 2.055a1.252 1.252 0 0 1-1.126.047z" class="prefix__cls-10" data-name="Trazado 1405" transform="translate(-360.894 -186.961)"/>
                <path id="prefix__Trazado_1406" d="M424.184 215.033l-3.593-2.074c-.289-.167-.252-.458.081-.65l3.56-2.055a1.251 1.251 0 0 1 1.126-.046l3.593 2.074c.289.167.253.457-.081.65l-3.56 2.055a1.252 1.252 0 0 1-1.126.046z" class="prefix__cls-10" data-name="Trazado 1406" transform="translate(-364.462 -189.021)"/>
                <path id="prefix__Trazado_1407" d="M433.3 220.3l-3.593-2.075c-.288-.166-.253-.457.081-.649l3.56-2.055a1.25 1.25 0 0 1 1.125-.047l3.593 2.074c.289.167.252.458-.081.65l-3.56 2.055a1.253 1.253 0 0 1-1.125.047z" class="prefix__cls-10" data-name="Trazado 1407" transform="translate(-368.03 -191.081)"/>
                <path id="prefix__Trazado_1408" d="M442.417 225.56l-3.593-2.074c-.288-.167-.253-.458.08-.65l3.56-2.055a1.252 1.252 0 0 1 1.125-.047l3.593 2.075c.288.166.253.457-.081.649l-3.56 2.055a1.25 1.25 0 0 1-1.124.047z" class="prefix__cls-10" data-name="Trazado 1408" transform="translate(-371.599 -193.141)"/>
                <path id="prefix__Trazado_1409" d="M451.533 230.823l-3.593-2.074c-.288-.166-.253-.457.081-.649l3.56-2.056a1.252 1.252 0 0 1 1.125-.046l3.593 2.074c.288.167.252.458-.081.65l-3.56 2.055a1.251 1.251 0 0 1-1.125.046z" class="prefix__cls-10" data-name="Trazado 1409" transform="translate(-375.166 -195.201)"/>
                <path id="prefix__Trazado_1410" d="M460.65 236.087l-3.593-2.074c-.288-.167-.253-.458.08-.65l3.56-2.055a1.252 1.252 0 0 1 1.125-.047l3.593 2.075c.288.166.253.457-.081.649l-3.56 2.055a1.25 1.25 0 0 1-1.124.047z" class="prefix__cls-10" data-name="Trazado 1410" transform="translate(-378.735 -197.261)"/>
                <path id="prefix__Trazado_1411" d="M469.766 241.35l-3.593-2.074c-.288-.167-.252-.458.081-.65l3.56-2.055a1.25 1.25 0 0 1 1.125-.046l3.593 2.074c.288.167.252.458-.081.65l-3.56 2.055a1.251 1.251 0 0 1-1.125.046z" class="prefix__cls-10" data-name="Trazado 1411" transform="translate(-382.303 -199.321)"/>
                <path id="prefix__Trazado_1412" d="M478.883 246.614l-3.593-2.075c-.289-.166-.253-.457.08-.649l3.56-2.055a1.252 1.252 0 0 1 1.125-.047l3.593 2.075c.288.166.253.457-.081.649l-3.56 2.055a1.25 1.25 0 0 1-1.124.047z" class="prefix__cls-10" data-name="Trazado 1412" transform="translate(-385.871 -201.381)"/>
                <path id="prefix__Trazado_1413" d="M349.336 202.561l-10.581-6.109c-.289-.166-.253-.457.081-.649l3.56-2.055a1.25 1.25 0 0 1 1.125-.047l10.579 6.109c.288.166.253.458-.081.649l-3.56 2.056a1.25 1.25 0 0 1-1.123.046z" class="prefix__cls-10" data-name="Trazado 1413" transform="translate(-332.432 -182.56)"/>
                <path id="prefix__Trazado_1414" d="M461.335 267.224l-10.581-6.109c-.288-.167-.253-.458.081-.65l3.56-2.055a1.25 1.25 0 0 1 1.125-.046l10.581 6.109c.288.167.253.458-.081.65l-3.56 2.055a1.252 1.252 0 0 1-1.125.046z" class="prefix__cls-10" data-name="Trazado 1414" transform="translate(-376.267 -207.868)"/>
                <path id="prefix__Trazado_1415" d="M429.371 260.143l-3.593-2.074c-.288-.167-.252-.458.081-.65l4.241-2.448a1.252 1.252 0 0 1 1.125-.047l3.593 2.076c.288.166.252.457-.081.649L430.5 260.1a1.252 1.252 0 0 1-1.129.043z" class="prefix__cls-10" data-name="Trazado 1415" transform="translate(-366.492 -206.522)"/>
                <path id="prefix__Trazado_1416" d="M361.782 221.121l-5.746-3.318c-.288-.167-.253-.458.081-.65l4.241-2.448a1.25 1.25 0 0 1 1.125-.046l5.746 3.317c.289.167.253.458-.081.65l-4.241 2.448a1.252 1.252 0 0 1-1.125.047z" class="prefix__cls-10" data-name="Trazado 1416" transform="translate(-339.196 -190.763)"/>
                <path id="prefix__Trazado_1417" d="M419.2 254.273l-5.746-3.318c-.288-.167-.253-.458.08-.65l4.241-2.448a1.252 1.252 0 0 1 1.125-.047l5.746 3.318c.288.167.252.458-.081.65l-4.241 2.448a1.252 1.252 0 0 1-1.124.047z" class="prefix__cls-10" data-name="Trazado 1417" transform="translate(-361.67 -203.738)"/>
                <path id="prefix__Trazado_1418" d="M374.935 228.715l-5.746-3.318c-.288-.167-.252-.458.081-.65l4.241-2.448a1.25 1.25 0 0 1 1.125-.046l5.746 3.317c.288.167.253.458-.081.65l-4.241 2.448a1.252 1.252 0 0 1-1.125.047z" class="prefix__cls-10" data-name="Trazado 1418" transform="translate(-344.344 -193.735)"/>
                <path id="prefix__Trazado_1419" d="M374.825 222.362l24.982 14.423a.342.342 0 0 1 0 .648l-4.324 2.5a1.242 1.242 0 0 1-1.123 0l-24.982-14.423z" class="prefix__cls-10" data-name="Trazado 1419" transform="translate(-344.494 -193.822)"/>
                <path id="prefix__Trazado_1420" d="M455.432 273.056l4 2.311c.237.136.207.375-.066.533l-1.735 1a1.025 1.025 0 0 1-.922.038l-4-2.31c-.237-.137-.207-.375.066-.533l1.735-1a1.027 1.027 0 0 1 .922-.039z" class="prefix__cls-10" data-name="Trazado 1420" transform="translate(-377.046 -213.627)"/>
                <path id="prefix__Trazado_1421" d="M446.24 267.749l4 2.31c.237.137.207.376-.066.533l-1.735 1a1.026 1.026 0 0 1-.923.038l-4-2.31c-.237-.137-.207-.375.066-.533l1.735-1a1.026 1.026 0 0 1 .923-.038z" class="prefix__cls-10" data-name="Trazado 1421" transform="translate(-373.448 -211.55)"/>
                <path id="prefix__Trazado_1422" d="M437.123 262.485l4 2.31c.236.136.207.375-.066.533l-1.734 1a1.026 1.026 0 0 1-.923.038l-4-2.311c-.236-.136-.207-.375.066-.533l1.734-1a1.024 1.024 0 0 1 .923-.037z" class="prefix__cls-10" data-name="Trazado 1422" transform="translate(-369.88 -209.49)"/>
                <path id="prefix__Trazado_1423" d="M451.274 264.842l4 2.311c.236.136.207.375-.066.533l-1.735 1a1.025 1.025 0 0 1-.922.038l-4-2.311c-.236-.136-.207-.375.066-.533l1.735-1a1.026 1.026 0 0 1 .922-.038z" class="prefix__cls-10" data-name="Trazado 1423" transform="translate(-375.419 -210.412)"/>
            </g>
            <g id="prefix__Grupo_1011" data-name="Grupo 1011" transform="translate(84.242 23.442)">
                <path id="prefix__Trazado_1424" d="M469.92 149.852L440.033 132.6l.384-1.943 29.883 17.252z" class="prefix__cls-9" data-name="Trazado 1424" transform="translate(-424.889 -108.493)"/>
                <path id="prefix__Trazado_1425" d="M458.135 158.589l-20.862-12.045.384-1.943 20.862 12.045z" class="prefix__cls-9" data-name="Trazado 1425" transform="translate(-423.808 -113.952)"/>
                <path id="prefix__Trazado_1426" d="M456.7 149.991l-18.048-10.42.384-1.943 18.048 10.42z" class="prefix__cls-5" data-name="Trazado 1426" transform="translate(-424.348 -111.222)"/>
                <path id="prefix__Trazado_1427" d="M481.956 164.571l-9.024-5.21.384-1.943 9.024 5.21z" class="prefix__cls-2" data-name="Trazado 1427" transform="translate(-437.765 -118.968)"/>
                <path id="prefix__Trazado_1428" d="M429 101.394l-9.024-5.21.384-1.943 9.024 5.21z" class="prefix__cls-9" data-name="Trazado 1428" transform="translate(-417.039 -94.241)"/>
                <path id="prefix__Trazado_1429" d="M427.391 108.813l-9.024-5.21.384-1.943 9.024 5.21z" class="prefix__cls-5" data-name="Trazado 1429" transform="translate(-416.409 -97.145)"/>
                <path id="prefix__Trazado_1430" d="M500.167 211.718l-9.024-5.21.385-1.943 9.024 5.21z" class="prefix__cls-9" data-name="Trazado 1430" transform="translate(-444.892 -137.421)"/>
                <path id="prefix__Trazado_1431" d="M424.173 123.651l-9.024-5.21.384-1.943 9.024 5.21z" class="prefix__cls-9" data-name="Trazado 1431" transform="translate(-415.149 -102.952)"/>
            </g>
            <g id="prefix__Grupo_1012" data-name="Grupo 1012" transform="translate(110.444 43.601)">
                <path id="prefix__Trazado_1432" d="M460.521 129.3a1.126 1.126 0 0 1-1.623.5 1.412 1.412 0 0 1-.581-1.772 1.126 1.126 0 0 1 1.623-.5 1.412 1.412 0 0 1 .581 1.772z" class="prefix__cls-2" data-name="Trazado 1432" transform="translate(-458.201 -127.364)"/>
                <path id="prefix__Trazado_1433" d="M466.908 132.99a1.127 1.127 0 0 1-1.623.5 1.412 1.412 0 0 1-.581-1.772 1.126 1.126 0 0 1 1.623-.5 1.413 1.413 0 0 1 .581 1.772z" class="prefix__cls-5" data-name="Trazado 1433" transform="translate(-460.7 -128.808)"/>
                <path id="prefix__Trazado_1434" d="M473.294 136.677a1.126 1.126 0 0 1-1.623.5 1.413 1.413 0 0 1-.581-1.772 1.127 1.127 0 0 1 1.623-.5 1.412 1.412 0 0 1 .581 1.772z" class="prefix__cls-9" data-name="Trazado 1434" transform="translate(-463.2 -130.251)"/>
                <path id="prefix__Trazado_1435" d="M479.682 140.365a1.126 1.126 0 0 1-1.623.5 1.412 1.412 0 0 1-.581-1.772 1.126 1.126 0 0 1 1.622-.5 1.412 1.412 0 0 1 .582 1.772z" class="prefix__cls-2" data-name="Trazado 1435" transform="translate(-465.7 -131.694)"/>
            </g>
        </g>
        <g id="prefix__Grupo_1022" data-name="Grupo 1022" transform="translate(344.141 214.227)">
            <g id="prefix__Grupo_1021" data-name="Grupo 1021">
                <g id="prefix__Grupo_1020" data-name="Grupo 1020">
                    <path id="prefix__Trazado_1437" d="M559.133 316.282a.248.248 0 0 0-.265-.116l-3.414.741 1.344 2.287 2.308-2.622a.249.249 0 0 0 .027-.29z" class="prefix__cls-9" data-name="Trazado 1437" transform="translate(-477.267 -316.16)"/>
                    <g id="prefix__Grupo_1014" data-name="Grupo 1014" transform="translate(40.806 .377)">
                        <path id="prefix__Trazado_1438" d="M551.076 318.212a1.709 1.709 0 0 0-.783-1.332.558.558 0 0 0-.512-.063 21.8 21.8 0 0 0-11.227 3.006l-.246.145 4.241 7.214 1.252-.83a21.8 21.8 0 0 0 6.545-6.786l.536-.875a.56.56 0 0 0 .194-.479z" class="prefix__cls-10" data-name="Trazado 1438" transform="translate(-511.362 -316.78)"/>
                        <path id="prefix__Trazado_1439" d="M542.852 327.18a6.539 6.539 0 0 0-3-5.1c-1.641-.931-2.96-.156-2.945 1.731a6.539 6.539 0 0 0 3 5.1c1.64.93 2.959.156 2.945-1.731z" class="prefix__cls-9" data-name="Trazado 1439" transform="translate(-510.814 -318.699)"/>
                        <path id="prefix__Trazado_1440" d="M500.7 344.912l25.168-15.68-4.241-7.214-25.939 14.37z" class="prefix__cls-9" data-name="Trazado 1440" transform="translate(-494.681 -318.83)"/>
                        <path id="prefix__Trazado_1441" d="M501.057 351.727a7.726 7.726 0 0 0-3.543-6.028c-1.939-1.1-3.5-.184-3.48 2.046a7.729 7.729 0 0 0 3.543 6.028c1.94 1.1 3.498.184 3.48-2.046z" class="prefix__cls-9" data-name="Trazado 1441" transform="translate(-494.034 -327.917)"/>
                    </g>
                    <g id="prefix__Grupo_1015" data-name="Grupo 1015" transform="translate(6.073 18.539)">
                        <path id="prefix__Trazado_1442" d="M498.7 353.114a7.726 7.726 0 0 0-3.543-6.028c-1.939-1.1-3.5-.184-3.48 2.046a7.728 7.728 0 0 0 3.543 6.028c1.938 1.1 3.496.184 3.48-2.046z" class="prefix__cls-9" data-name="Trazado 1442" transform="translate(-458.378 -346.621)"/>
                        <path id="prefix__Rectángulo_857" d="M0 0H38.623V9.888H0z" class="prefix__cls-9" data-name="Rectángulo 857" transform="rotate(-30.447 36.904 8.058)"/>
                        <path id="prefix__Trazado_1443" d="M443.988 385.273a7.729 7.729 0 0 0-3.543-6.028c-1.94-1.1-3.5-.184-3.48 2.046a7.727 7.727 0 0 0 3.543 6.028c1.939 1.099 3.497.181 3.48-2.046z" class="prefix__cls-9" data-name="Trazado 1443" transform="translate(-436.965 -359.208)"/>
                        <path id="prefix__Trazado_1444" d="M443.537 385.716a5.106 5.106 0 0 0-2.394-3.661c-1.246-.706-2.193-.212-2.116 1.1a5.105 5.105 0 0 0 2.394 3.661c1.245.71 2.193.216 2.116-1.1z" class="prefix__cls-7" data-name="Trazado 1444" transform="translate(-437.77 -360.364)"/>
                    </g>
                    <g id="prefix__Grupo_1016" data-name="Grupo 1016" transform="translate(39.172 17.09)">
                        <path id="prefix__Trazado_1445" d="M502.376 351.19a7.725 7.725 0 0 0-3.543-6.028 2.731 2.731 0 0 0-2.077-.389c.629-.658 1.662-.735 2.837-.069a7.729 7.729 0 0 1 3.543 6.028c.01 1.331-.544 2.189-1.4 2.434a2.764 2.764 0 0 0 .64-1.976z" class="prefix__cls-5" data-name="Trazado 1445" transform="translate(-493.465 -344.241)"/>
                        <path id="prefix__Trazado_1446" d="M500.907 351.483a7.728 7.728 0 0 0-3.543-6.028 2.458 2.458 0 0 0-2.474-.225l-1.89 1.109.9 1.529a7.9 7.9 0 0 0 3.213 5.466l.9 1.529 1.887-1.109a2.458 2.458 0 0 0 1.007-2.271z" class="prefix__cls-10" data-name="Trazado 1446" transform="translate(-491.997 -344.534)"/>
                        <path id="prefix__Trazado_1447" d="M498.373 353.305a7.726 7.726 0 0 0-3.543-6.028c-1.939-1.1-3.5-.184-3.48 2.046a7.726 7.726 0 0 0 3.543 6.028c1.94 1.1 3.498.184 3.48-2.046z" class="prefix__cls-9" data-name="Trazado 1447" transform="translate(-491.35 -345.247)"/>
                    </g>
                    <g id="prefix__Grupo_1017" data-name="Grupo 1017" transform="translate(0 41.1)">
                        <path id="prefix__Trazado_1448" d="M437.258 387.538l-2.158-3.678-7.057 4.149a2.133 2.133 0 0 0-.758 2.92 2.134 2.134 0 0 0 2.92.758z" class="prefix__cls-2" data-name="Trazado 1448" transform="translate(-426.986 -383.757)"/>
                        <path id="prefix__Trazado_1449" d="M442.629 386.492a3.336 3.336 0 0 0-1.529-2.6c-.837-.474-1.509-.079-1.5.883a3.335 3.335 0 0 0 1.528 2.6c.836.474 1.508.079 1.501-.883z" class="prefix__cls-2" data-name="Trazado 1449" transform="translate(-431.923 -383.69)"/>
                    </g>
                    <g id="prefix__Grupo_1019" data-name="Grupo 1019" transform="translate(9.024 20.324)">
                        <path id="prefix__Trazado_1450" d="M451.34 360.149l-1.058-.6a2.254 2.254 0 0 0-2.264.242l-3.627 2.132a2.76 2.76 0 0 0-1.231 2.17l.015 1.815a1.489 1.489 0 0 1-.365.912l.136.841-.9-.518a.465.465 0 0 1-.216-.442l-.014-1.815a5.758 5.758 0 0 1 2.565-4.525l3.627-2.131a3.2 3.2 0 0 1 3.22-.345l1.058.6a2.252 2.252 0 0 0 2.264-.242l14.619-8.593a.469.469 0 0 1 .483-.047l.9.517-.772.3a1.492 1.492 0 0 1-.6.8l-14.62 8.58a3.2 3.2 0 0 1-3.22.349z" class="prefix__cls-10" data-name="Trazado 1450" transform="translate(-441.814 -349.554)"/>
                        <path id="prefix__Trazado_1451" d="M451.787 360.409a2.252 2.252 0 0 0-2.264.242l-3.627 2.131a2.762 2.762 0 0 0-1.231 2.17l.015 1.815a1.5 1.5 0 0 1-.668 1.178c-.372.219-.676.046-.68-.385l-.014-1.815a5.756 5.756 0 0 1 2.565-4.524l3.627-2.132a3.2 3.2 0 0 1 3.22-.344l1.058.6a2.253 2.253 0 0 0 2.264-.243l14.619-8.593c.372-.219.676-.046.679.385a1.5 1.5 0 0 1-.667 1.178l-14.619 8.593a3.2 3.2 0 0 1-3.22.344z" class="prefix__cls-10" data-name="Trazado 1451" transform="translate(-442.403 -349.891)"/>
                        <g id="prefix__Grupo_1018" data-name="Grupo 1018" transform="translate(2.218 14.904)">
                            <path id="prefix__Trazado_1452" d="M445.458 374.5l.014 1.815c0 .012-.005.024-.005.037a1.181 1.181 0 0 0 .051-.337l-.018-1.815c0-.052.008-.106.012-.159a2.055 2.055 0 0 0-.054.459z" class="prefix__cls-5" data-name="Trazado 1452" transform="translate(-445.458 -374.042)"/>
                        </g>
                    </g>
                </g>
            </g>
        </g>
        <g id="prefix__Grupo_1029" data-name="Grupo 1029" transform="translate(215.319 208.189)">
            <g id="prefix__Grupo_1028" data-name="Grupo 1028">
                <g id="prefix__Grupo_1027" data-name="Grupo 1027">
                    <path id="prefix__Trazado_1454" d="M225.57 316.79c7.389-4.266 19.369-4.266 26.758 0 3.063 1.769 4.852 3.993 5.375 6.3a9.684 9.684 0 0 1-4.347 5.65 15.511 15.511 0 0 0-2.064-1.421c-7.389-4.266-19.369-4.266-26.757 0-.365.21-.7.428-1.033.651a9.011 9.011 0 0 1-3.307-4.881c.522-2.306 2.311-4.53 5.375-6.299z" class="prefix__cls-11" data-name="Trazado 1454" transform="translate(-217.227 -309.116)"/>
                    <path id="prefix__Trazado_1455" d="M257.607 324.243l-2.887-3.764-8.765-4.073-7.552-.671-8.844 1.083-6.135 3.171-3.918 2.5-.7-4.073 1.323-4.692s3.352-2.217 3.557-2.423 7.837-2.939 7.837-2.939l7.631-.516 6.135.774 6.238 1.856 4.125 2.887 3.094 3.918.348 4.9z" class="prefix__cls-3" data-name="Trazado 1455" transform="translate(-216.682 -306.868)"/>
                    <path id="prefix__Trazado_1456" d="M215.319 326.844v7.928l2.12-3.437z" class="prefix__cls-3" data-name="Trazado 1456" transform="translate(-215.319 -314.303)"/>
                    <path id="prefix__Trazado_1457" d="M251.531 324.423c-7.389-4.266-19.369-4.266-26.758 0a11.747 11.747 0 0 0-4.778 4.648c-.651-.582-1.489-1.041-1.837-1.825a14.924 14.924 0 0 1 4.635-3.966c8.483-4.9 22.236-4.9 30.719 0a15.375 15.375 0 0 1 4.35 3.589 6.487 6.487 0 0 1-1.55 2.209 11.742 11.742 0 0 0-4.781-4.655z" class="prefix__cls-3" data-name="Trazado 1457" transform="translate(-216.43 -311.471)"/>
                    <path id="prefix__Trazado_1458" d="M225.57 316.79c7.389-4.266 19.369-4.266 26.758 0 3.063 1.769 4.852 3.993 5.375 6.3-.523 2.3-2.312 4.527-5.376 6.3-7.389 4.266-19.369 4.266-26.757 0-3.064-1.769-4.852-3.993-5.376-6.3.523-2.307 2.312-4.531 5.376-6.3z" class="prefix__cls-11" data-name="Trazado 1458" transform="translate(-217.227 -309.116)"/>
                    <path id="prefix__Trazado_1459" d="M217.049 330.016a2.618 2.618 0 0 0 .66.857l.007-.082 1.959 1.168 2.406 2.234 3.334 1.478 4.606 1.65 4.09.963 5.637.24 3.643-.378 7.218-1.89 4.7-4.159c-.038-.083-.069-.167-.111-.25a6.488 6.488 0 0 0 1.55-2.209q.191.238.363.48l1.649-3.435v8.234-.007c0 3.212-2.114 6.424-6.359 8.875-8.483 4.9-22.236 4.9-30.719 0-6.447-3.722-7.988-9.203-4.633-13.769z" class="prefix__cls-3" data-name="Trazado 1459" transform="translate(-215.321 -314.24)"/>
                    <path id="prefix__Trazado_1460" d="M278.243 333.6l1.7-1.5c-.038-.083-.069-.167-.111-.25a6.489 6.489 0 0 0 1.55-2.209q.191.238.363.48l1.649-3.435v8.234-.007c0 2.887-1.714 5.773-5.143 8.108z" class="prefix__cls-2" data-name="Trazado 1460" transform="translate(-239.947 -314.24)"/>
                    <path id="prefix__Trazado_1461" d="M221.681 327.647c8.483 4.9 22.236 4.9 30.719 0s8.483-12.839 0-17.736-22.236-4.9-30.719 0-8.481 12.839 0 17.736zm1.981-16.592c7.389-4.266 19.369-4.266 26.758 0s7.389 11.183 0 15.449-19.369 4.266-26.757 0-7.39-11.183-.001-15.449z" class="prefix__cls-2" data-name="Trazado 1461" transform="translate(-215.319 -306.238)"/>
                    <g id="prefix__Grupo_1025" data-name="Grupo 1025" transform="translate(37.394 23.31)">
                        <g id="prefix__Grupo_1023" data-name="Grupo 1023">
                            <path id="prefix__Trazado_1462" d="M290.82 351.677l-12.039-7.006-1.6 2.593 12.094 7.044z" class="prefix__cls-9" data-name="Trazado 1462" transform="translate(-276.924 -344.591)"/>
                            <path id="prefix__Trazado_1463" d="M296.549 358.07c0 .688.483.967 1.079.623a2.387 2.387 0 0 0 1.079-1.869c0-.688-.483-.967-1.079-.623a2.383 2.383 0 0 0-1.079 1.869z" class="prefix__cls-12" data-name="Trazado 1463" transform="translate(-284.505 -349.046)"/>
                            <path id="prefix__Trazado_1464" d="M296.549 358.07c0 .688.483.967 1.079.623a2.387 2.387 0 0 0 1.079-1.869c0-.688-.483-.967-1.079-.623a2.383 2.383 0 0 0-1.079 1.869z" class="prefix__cls-12" data-name="Trazado 1464" transform="translate(-284.505 -349.046)"/>
                            <path id="prefix__Trazado_1465" d="M276.76 346.555c0 .688.483.967 1.08.623a2.387 2.387 0 0 0 1.079-1.869c0-.688-.483-.967-1.079-.623a2.384 2.384 0 0 0-1.08 1.869z" class="prefix__cls-9" data-name="Trazado 1465" transform="translate(-276.76 -344.539)"/>
                        </g>
                        <path id="prefix__Trazado_1466" d="M286.817 354.623a10.264 10.264 0 0 1 4.644-8.043 3.219 3.219 0 0 1 3.341-.286l25.453 14.793-6.655 11.32-25.18-14.663a2.2 2.2 0 0 1-.484-.282l-.021-.012a3.456 3.456 0 0 1-1.098-2.827z" class="prefix__cls-10" data-name="Trazado 1466" transform="translate(-280.696 -345.091)"/>
                        <path id="prefix__Trazado_1467" d="M320.413 364.221l-28.488-16.448a7.776 7.776 0 0 1 1.535-1.192 3.219 3.219 0 0 1 3.341-.286l25.453 14.793z" class="prefix__cls-9" data-name="Trazado 1467" transform="translate(-282.695 -345.091)"/>
                        <g id="prefix__Grupo_1024" data-name="Grupo 1024" transform="translate(29.667 14.073)">
                            <ellipse id="prefix__Elipse_172" cx="6.567" cy="3.791" class="prefix__cls-9" data-name="Elipse 172" rx="6.567" ry="3.791" transform="rotate(-59.999 9.85 5.687)"/>
                            <path id="prefix__Trazado_1468" d="M334.862 380.308a3.025 3.025 0 1 0 3.025-3.025 3.025 3.025 0 0 0-3.025 3.025z" class="prefix__cls-10" data-name="Trazado 1468" transform="translate(-329.168 -371.427)"/>
                            <circle id="prefix__Elipse_173" cx=".894" cy=".894" r=".894" class="prefix__cls-5" data-name="Elipse 173" transform="translate(9.272 6.878)"/>
                        </g>
                        <path id="prefix__Trazado_1469" d="M332.747 370.578a3.143 3.143 0 0 1 3.452-.209 3.369 3.369 0 0 0-3.109.408 10.263 10.263 0 0 0-4.644 8.043 3.376 3.376 0 0 0 1.192 2.89 3.148 3.148 0 0 1-1.535-3.088 10.266 10.266 0 0 1 4.644-8.044z" class="prefix__cls-5" data-name="Trazado 1469" transform="translate(-296.855 -354.484)"/>
                    </g>
                    <g id="prefix__Grupo_1026" data-name="Grupo 1026" transform="translate(.006 1.617)">
                        <path id="prefix__Trazado_1470" d="M225.466 312.1c7.389-4.266 19.369-4.266 26.758 0 3.848 2.221 5.686 5.162 5.527 8.072-.147-2.678-1.986-5.331-5.527-7.376-7.389-4.266-19.369-4.266-26.758 0-3.541 2.045-5.38 4.7-5.527 7.376-.16-2.915 1.68-5.855 5.527-8.072z" class="prefix__cls-5" data-name="Trazado 1470" transform="translate(-217.13 -308.895)"/>
                        <path id="prefix__Trazado_1471" d="M221.685 335.935c8.483 4.9 22.236 4.9 30.719 0 4.089-2.361 6.2-5.428 6.348-8.521.159 3.325-1.953 6.679-6.348 9.216-8.483 4.9-22.236 4.9-30.719 0-4.395-2.537-6.507-5.891-6.347-9.216.147 3.095 2.262 6.161 6.347 8.521z" class="prefix__cls-5" data-name="Trazado 1471" transform="translate(-215.329 -316.144)"/>
                    </g>
                </g>
            </g>
        </g>
        <g id="prefix__Grupo_1035" data-name="Grupo 1035" transform="translate(276.47 118.047)">
            <g id="prefix__Grupo_1034" data-name="Grupo 1034">
                <g id="prefix__Grupo_1031" data-name="Grupo 1031" transform="translate(1.718)">
                    <path id="prefix__Trazado_1472" d="M339.936 314.064s-2.282-1.151-3.684.562-3.4 5.759-3.467 8.493 2.163 2.549 3.486 1.9 5.187-6.252 5.42-7.35a3.809 3.809 0 0 0-.648-2.874c-.371-.289-1.107-.731-1.107-.731z" class="prefix__cls-2" data-name="Trazado 1472" transform="translate(-324.163 -219.011)"/>
                    <path id="prefix__Trazado_1473" d="M342.574 313.052l.105 2.364a1.34 1.34 0 0 1-.668 1.23 2.634 2.634 0 0 1-1.761.273c-1.719-.276-1.872-.767-2-3.131s4.324-.736 4.324-.736z" class="prefix__cls-9" data-name="Trazado 1473" transform="translate(-326.303 -218.549)"/>
                    <g id="prefix__Grupo_1030" data-name="Grupo 1030" transform="translate(0 42.053)">
                        <path id="prefix__Trazado_1474" d="M326.21 306.594s-2.282-1.151-3.683.563-3.4 5.759-3.467 8.493 2.163 2.549 3.486 1.9 5.187-6.252 5.421-7.35a3.814 3.814 0 0 0-.648-2.874c-.372-.29-1.109-.732-1.109-.732z" class="prefix__cls-2" data-name="Trazado 1474" transform="translate(-318.791 -258.141)"/>
                        <path id="prefix__Trazado_1475" d="M328.849 305.583l.105 2.364a1.339 1.339 0 0 1-.668 1.229 2.627 2.627 0 0 1-1.76.274c-1.719-.276-1.873-.767-2-3.131s4.323-.736 4.323-.736z" class="prefix__cls-9" data-name="Trazado 1475" transform="translate(-320.932 -257.679)"/>
                        <path id="prefix__Trazado_1476" d="M346.9 231.722c-.676-10.99-11.9 1.617-11.9 1.617l-7.684 7.531-6.919 7.6a6.819 6.819 0 0 0-1.718 5.479l2.8 21.312a2.1 2.1 0 0 0 2.1 1.82 7.18 7.18 0 0 0 1.037-.091 2.6 2.6 0 0 0 2.312-2.763l-.511-19.933 14.53-8.759s6.627-2.824 5.953-13.813z" class="prefix__cls-6" data-name="Trazado 1476" transform="translate(-318.618 -227.224)"/>
                    </g>
                    <path id="prefix__Trazado_1477" d="M360.623 238.6c-.676-10.99-11.9 1.616-11.9 1.616l-7.683 7.531-6.919 7.6a6.819 6.819 0 0 0-1.718 5.479l2.8 21.312a2.094 2.094 0 0 0 2.1 1.82 7.11 7.11 0 0 0 1.037-.091 2.6 2.6 0 0 0 2.313-2.762l-.5-19.359 14.515-9.332s6.632-2.823 5.955-13.814z" class="prefix__cls-6" data-name="Trazado 1477" transform="translate(-323.99 -187.863)"/>
                    <path id="prefix__Trazado_1478" d="M357.339 182.744c8.511 3.528 8.34 8.559 8.34 8.559s-1.667 18.444-1.1 30.762c.238 5.149-27.359 5.542-23.243-8.2 4.853-16.2 3.033-29.312 5.305-31.289s8.496-.745 10.698.168z" class="prefix__cls-2" data-name="Trazado 1478" transform="translate(-327.347 -167.283)"/>
                    <path id="prefix__Trazado_1479" d="M366.88 188.024c-.445 1.728-2.709 2.639-5.057 2.034s-3.89-2.5-3.445-4.224 2.709-2.638 5.057-2.034 3.89 2.5 3.445 4.224z" class="prefix__cls-13" data-name="Trazado 1479" transform="translate(-334.15 -168.102)"/>
                    <path id="prefix__Trazado_1480" d="M362.463 193.721l-1.566 1.7a1.033 1.033 0 0 0-.266.817l1.077 9.309a1.013 1.013 0 0 1-.2.732l-3.369 4.407a.3.3 0 0 1-.531-.093l-1.834-5.773a1.015 1.015 0 0 1 .019-.668l3.227-8.455a1.031 1.031 0 0 0 .046-.58l-.472-2.241z" class="prefix__cls-5" data-name="Trazado 1480" transform="translate(-333.141 -171.727)"/>
                    <path id="prefix__Trazado_1481" d="M363.014 190.392a6.277 6.277 0 0 1-1.554-.2 5.662 5.662 0 0 1-2.983-1.828 3.256 3.256 0 0 1-.754-2.892c.5-1.942 2.989-2.986 5.552-2.326s4.238 2.777 3.737 4.72a3.253 3.253 0 0 1-2.057 2.167 5.2 5.2 0 0 1-1.941.359zm-1.3-6.633c-1.581 0-2.9.735-3.206 1.917a2.463 2.463 0 0 0 .6 2.175 5.16 5.16 0 0 0 5.544 1.428 2.464 2.464 0 0 0 1.573-1.616c.389-1.508-1.025-3.181-3.153-3.728a5.41 5.41 0 0 0-1.356-.176z" class="prefix__cls-5" data-name="Trazado 1481" transform="translate(-333.888 -167.841)"/>
                    <path id="prefix__Trazado_1482" d="M362.243 181.809a20.949 20.949 0 0 1-.074 3.038c-.046.848 2.922 1.64 3.689.873s.461-1.565.645-4.451-4.26.54-4.26.54z" class="prefix__cls-13" data-name="Trazado 1482" transform="translate(-335.664 -166.732)"/>
                    <path id="prefix__Trazado_1483" d="M366.5 182.012a5.982 5.982 0 0 1-4.335 3.7l.055-2.432z" class="prefix__cls-14" data-name="Trazado 1483" transform="translate(-335.664 -167.475)"/>
                    <circle id="prefix__Elipse_174" cx="6.551" cy="6.551" r="6.551" class="prefix__cls-13" data-name="Elipse 174" transform="rotate(-75.592 18.49 -5.076)"/>
                    <path id="prefix__Trazado_1484" d="M359.883 172.915a20.3 20.3 0 0 1-6.1 1.563c-2.5.018-1.947-2.074-1.947-2.074l7.414-1.071z" class="prefix__cls-14" data-name="Trazado 1484" transform="translate(-331.597 -163.295)"/>
                    <path id="prefix__Trazado_1485" d="M351.2 168.154a11.7 11.7 0 0 1 5.9-.778 2.892 2.892 0 0 1 1.666.99.983.983 0 0 0 .5.365c.489.11 1.289-1.918 2.239-1.964s1.584.627.805 1.874-.516 2.643-.158 2.843 4.8-2.9 1.442-9.539-12.508-2.881-13.832-1.534c0 0-1.4 1.217-2.531.134.006-.001-1.267 9.529 3.969 7.609z" class="prefix__cls-9" data-name="Trazado 1485" transform="translate(-329.766 -158.126)"/>
                    <path id="prefix__Trazado_1486" d="M366.747 217.911v4.989a2.029 2.029 0 0 1-.663 1.5l-10.238 9.334 1.164 1.779 14.105-9.249a2.747 2.747 0 0 0 1.119-1.937l.965-9.248z" class="prefix__cls-13" data-name="Trazado 1486" transform="translate(-333.189 -180.415)"/>
                    <path id="prefix__Trazado_1487" d="M377.33 193.5s3.106 4.671 4.263 16.967c0 0-5.306 1.716-8.317.742s4.054-17.709 4.054-17.709z" class="prefix__cls-2" data-name="Trazado 1487" transform="translate(-339.719 -171.971)"/>
                    <path id="prefix__Trazado_1488" d="M372 203.2a86.6 86.6 0 0 0-1.285 9.567 1.953 1.953 0 0 0 1.285 1.889z" class="prefix__cls-3" data-name="Trazado 1488" transform="translate(-339.008 -175.769)"/>
                </g>
                <g id="prefix__Grupo_1032" data-name="Grupo 1032" transform="translate(1.636 49.593)">
                    <path id="prefix__Trazado_1489" d="M348.9 250.642l-2.263-.3-14.607-8.434a2.031 2.031 0 0 0-1.827.076l-10.351 5.973-1.368-.181v1.362a.533.533 0 0 0 .314.48l16.554 9.557a2.029 2.029 0 0 0 1.827-.075l11.272-6.506a.738.738 0 0 0 .447-.614z" class="prefix__cls-10" data-name="Trazado 1489" transform="translate(-318.484 -240.44)"/>
                    <path id="prefix__Trazado_1490" d="M337.925 247.234l-1.038-.6h-11.41l-5.625 3.245-1.368-.181v1.362a.533.533 0 0 0 .314.48l16.554 9.557a1.713 1.713 0 0 0 .943.177z" class="prefix__cls-7" data-name="Trazado 1490" transform="translate(-318.484 -242.361)"/>
                    <path id="prefix__Trazado_1491" d="M319.092 251.75l-.607-.08v1.362a.533.533 0 0 0 .314.48l.292.168z" class="prefix__cls-10" data-name="Trazado 1491" transform="translate(-318.484 -244.332)"/>
                    <path id="prefix__Trazado_1492" d="M346.477 268.975a2.122 2.122 0 0 0 1.553-.1v-2.318h-1.553z" class="prefix__cls-10" data-name="Trazado 1492" transform="translate(-329.44 -250.16)"/>
                    <path id="prefix__Trazado_1493" d="M335.354 256.989l-16.554-9.557c-.468-.27-.41-.743.131-1.055l11.272-6.506a2.029 2.029 0 0 1 1.827-.075l16.554 9.558c.468.27.41.743-.131 1.055l-11.272 6.505a2.031 2.031 0 0 1-1.827.075z" class="prefix__cls-5" data-name="Trazado 1493" transform="translate(-318.484 -239.613)"/>
                    <path id="prefix__Trazado_1494" d="M336.722 257.786l-13.765-7.947c-.389-.225-.34-.618.11-.877l6.04-3.4a1.69 1.69 0 0 1 1.519-.063l13.764 7.947c.389.225.341.617-.109.877l-6.04 3.4a1.686 1.686 0 0 1-1.519.063z" class="prefix__cls-9" data-name="Trazado 1494" transform="translate(-320.132 -241.858)"/>
                </g>
                <path id="prefix__Trazado_1495" d="M338.622 239.152l-.172 1.142a8.444 8.444 0 0 0 .075 2.929l.2 1.006a1.416 1.416 0 0 0 1.134 1.112.781.781 0 0 0 .916-.681l.273-2.442s.624.819.926.819-.338-2.445-1.02-3.829-2.332-.056-2.332-.056z" class="prefix__cls-13" data-name="Trazado 1495" transform="translate(-324.625 -189.614)"/>
                <path id="prefix__Trazado_1496" d="M343.711 207.477l-1.777 3.515a6.9 6.9 0 0 0-.727 2.669l-.772 12.025-2.336-.056-1.061-13.5a4.929 4.929 0 0 1 .06-1.248l1.212-6.848z" class="prefix__cls-13" data-name="Trazado 1496" transform="translate(-324.104 -176.093)"/>
                <g id="prefix__Grupo_1033" data-name="Grupo 1033" transform="translate(0 42.433)">
                    <path id="prefix__Trazado_1497" d="M333.927 253.3l-1.388-1.812-14.6-8.451a2.031 2.031 0 0 1-.846-1.621l.013-11.951-.839-1.1.789-.457a.533.533 0 0 1 .573.033l16.542 9.578a2.03 2.03 0 0 1 .846 1.621l-.013 13.015a.738.738 0 0 1-.31.694z" class="prefix__cls-6" data-name="Trazado 1497" transform="translate(-315.98 -227.847)"/>
                    <path id="prefix__Trazado_1498" d="M323.832 246.449l-1.037-.6-5.693-9.888.006-6.494-.839-1.1.789-.457a.533.533 0 0 1 .573.033l16.542 9.578a1.712 1.712 0 0 1 .624.729z" class="prefix__cls-7" data-name="Trazado 1498" transform="translate(-315.98 -227.847)"/>
                    <path id="prefix__Trazado_1499" d="M316.641 228.858l-.372-.486.789-.457a.533.533 0 0 1 .573.033l.292.169z" class="prefix__cls-10" data-name="Trazado 1499" transform="translate(-315.98 -227.847)"/>
                    <path id="prefix__Trazado_1500" d="M344.841 243.925a2.121 2.121 0 0 1 .691 1.394l-1.617.933-.775-1.345z" class="prefix__cls-8" data-name="Trazado 1500" transform="translate(-326.498 -234.14)"/>
                    <path id="prefix__Trazado_1501" d="M333.2 238.276l-16.543-9.576c-.468-.271-.848.016-.848.64l-.014 13.014a2.029 2.029 0 0 0 .846 1.621l16.543 9.578c.467.271.848-.016.848-.64l.014-13.015a2.031 2.031 0 0 0-.846-1.622z" class="prefix__cls-10" data-name="Trazado 1501" transform="translate(-315.795 -228.14)"/>
                </g>
                <path id="prefix__Trazado_1502" d="M354.25 247.506l-.265.549a3.681 3.681 0 0 1-1.383 1.533l-1.643 1.013a1.636 1.636 0 0 1-1.677.039l-.056-.034a.988.988 0 0 1-.139-1.518l1.717-1.766s-.965.739-1.235.441c-.2-.218.935-1.282 1.806-1.317a3.439 3.439 0 0 0 1.713-.719z" class="prefix__cls-13" data-name="Trazado 1502" transform="translate(-328.711 -192.412)"/>
                <path id="prefix__Trazado_1503" d="M344.923 183.221s-6.295 6.849-8.835 13.133a12.85 12.85 0 0 0 7.422 5.4c5.269 1.521 1.413-18.533 1.413-18.533z" class="prefix__cls-2" data-name="Trazado 1503" transform="translate(-323.737 -167.948)"/>
                <path id="prefix__Trazado_1504" d="M345.445 206.665l1.021-9.856-2.4 9.234a13.6 13.6 0 0 0 1.379.622z" class="prefix__cls-3" data-name="Trazado 1504" transform="translate(-326.858 -173.266)"/>
            </g>
            <circle id="prefix__Elipse_175" cx=".942" cy=".942" r=".942" class="prefix__cls-5" data-name="Elipse 175" transform="translate(33.05 10.241)"/>
        </g>
    </g>
</svg>
