<svg xmlns="http://www.w3.org/2000/svg" width="415.042" height="311.116" viewBox="0 0 415.042 311.116">
    <defs>
        <style>
            .cls-1,.cls-18{fill:#c1cff4}.cls-2{fill:#363687}.cls-3{fill:#5c5cc4}.cls-4{fill:#4949a5}.cls-26,.cls-5{fill:#fff}.cls-6{fill:#dae6ea}.cls-7{fill:#ffdb4c}.cls-8{fill:#706edc}.cls-9{fill:#8989e0}.cls-10{fill:#4c68a5}.cls-11{fill:#6f89d1}.cls-12{fill:#7fa8e6}.cls-13{fill:#aacaf9}.cls-14{fill:#7c2549}.cls-15{fill:#bf2878}.cls-16{fill:#e7478d}.cls-17{fill:#ff66a7}.cls-18{mix-blend-mode:multiply}.cls-18,.cls-26{isolation:isolate}.cls-19{fill:#345184}.cls-20{fill:#f2e2cc}.cls-21{fill:#fff5e6}.cls-22{fill:#191f34}.cls-23{fill:#fdb724}.cls-24{fill:#a5cbfa}.cls-25{fill:#344593}.cls-26{opacity:.3;mix-blend-mode:hard-light}.cls-27{fill:#f95da4}.cls-28{fill:#fd9ccf}.cls-29{fill:#ffa8a7}.cls-30{fill:#c4d9ff}.cls-31{fill:#2d2979}.cls-32{fill:#6795d6}.cls-33{fill:#f28f8f}.cls-34{fill:#f5fbfb}.cls-35{fill:#ffdeb6}.cls-36{fill:#b44c65}.cls-37{fill:#912b40}.cls-38{fill:#6d293d}.cls-39{fill:#180d2b}.cls-40{fill:#c9483a}.cls-41{fill:#e94372}.cls-42{fill:#d83068}.cls-43{fill:#e5553e}.cls-44{fill:#eff6fe}.cls-45{fill:#aad1fc}.cls-46{fill:#aeb5b7}.cls-47{fill:#c8e2ff}.cls-48{fill:#5d7aba}.cls-49{fill:#543354}.cls-50{fill:#eb5d7f}.cls-51{fill:#ffd7b0}.cls-52{fill:#293a88}.cls-53,.cls-55{fill:#031f60}.cls-53{opacity:.5}.cls-54{fill:#122571}.cls-55{opacity:.15}.cls-56{fill:#bbdfff}.cls-57{fill:#f4b887}
        </style>
    </defs>
    <g id="Grupo_277" data-name="Grupo 277" transform="translate(-825.213 -111.5)">
        <ellipse id="Elipse_161" cx="17.99" cy="10.381" class="cls-1" data-name="Elipse 161" rx="17.99" ry="10.381" transform="translate(1030.373 369.95)"/>
        <g id="Grupo_243" data-name="Grupo 243" transform="translate(876.603 128.729)">
            <path id="Trazado_895" d="M888.755 278.946l40.189 23.2 12.376-12.057v-43.226z" class="cls-1" data-name="Trazado 895" transform="translate(-875.086 -125.498)"/>
            <path id="Trazado_896" d="M1178.4 323.736l23.716 13.76a5.863 5.863 0 0 0 5.317.006l19.634-11.335c1.469-.849 1.469-2.224 0-3.072l-23.793-13.737a5.874 5.874 0 0 0-5.319 0l-19.552 11.3c-1.466.848-1.467 2.226-.003 3.078z" class="cls-1" data-name="Trazado 896" transform="translate(-868.2 -124.022)"/>
            <g id="Grupo_236" data-name="Grupo 236" transform="translate(250.045 23.393)">
                <path id="Trazado_897" d="M1136.159 153.513l.051 19.243-12.526-7.233v-4.806z" class="cls-2" data-name="Trazado 897" transform="translate(-1119.524 -151.119)"/>
                <path id="Trazado_898" d="M1222.979 323.111l.005-109.665c.009-.005.006-4.495.006-4.495a9.071 9.071 0 0 0-1.3-4.372l4.221-2.437a8.423 8.423 0 0 1 1.224 4.1v2.684c0 .376 0 .721.006 1.014-.005.157 0 .285 0 .4v.32c0 .12 0 .211.007.28s0 .1 0 .1v109.664a4.753 4.753 0 0 1-2.081 3.761l-3.378 1.95c1.274-.735 1.29-2.503 1.29-3.304z" class="cls-3" data-name="Trazado 898" transform="translate(-1117.185 -149.959)"/>
                <path id="Trazado_899" d="M1220.6 202.4l-3.883-2.239-.005-.009-77.512-44.743a6.42 6.42 0 0 0-.321-.146 3.473 3.473 0 0 0-.37-.129l-.237-.063a3.016 3.016 0 0 0-.362-.051 2.736 2.736 0 0 0-.479-.032 4.271 4.271 0 0 0-.479.029 2.639 2.639 0 0 0-.464.079 2.96 2.96 0 0 0-.383.115.171.171 0 0 0-.094.042.86.86 0 0 0-.147.05v.014l.05 12.6.008 4.807.33 101.138a9.808 9.808 0 0 0 4.46 7.664l67.69 38.756 12.193 6.969c2.451 1.4 4.447.247 4.447-2.579V210.08a9.1 9.1 0 0 0-1.3-4.372 8.927 8.927 0 0 0-3.142-3.308z" class="cls-4" data-name="Trazado 899" transform="translate(-1119.233 -151.084)"/>
                <path id="Trazado_900" d="M1137.551 157.4l82.437 47.6a5.119 5.119 0 0 1 2.56 4.433v114.1a2.559 2.559 0 0 1-1.28 2.217l-10.706 6.181.156-118.626-85-49.084z" class="cls-5" data-name="Trazado 900" transform="translate(-1119.476 -151.026)"/>
                <path id="Trazado_901" d="M1220.569 208.28v114.1a2.559 2.559 0 0 1-1.28 2.217l-10.706 6.181.156-118.626 11.148-6.436a5.111 5.111 0 0 1 .682 2.564z" class="cls-6" data-name="Trazado 901" transform="translate(-1117.498 -149.873)"/>
                <path id="Trazado_902" d="M1126.765 162.433l9.822-5.66a2.664 2.664 0 0 1 2.367-.168c.572.33.441.942-.293 1.366l-9.812 5.665a2.664 2.664 0 0 1-2.372.166c-.577-.333-.447-.945.288-1.369z" class="cls-7" data-name="Trazado 902" transform="translate(-1119.466 -151.05)"/>
                <path id="Trazado_903" d="M1210.893 218.31c.008.894.007 1.569 0 1.9v.187l-.006 67.177v42.516a4.756 4.756 0 0 1-2.078 3.761l-3.38 1.949c1.329-.767 1.3-2.559 1.3-3.309v-47.323l.008-62.342c-.005-.008-.007-4.476-.007-4.476a9.027 9.027 0 0 0-1.3-4.38l4.239-2.447a8.412 8.412 0 0 1 1.224 4.1v1.868z" class="cls-3" data-name="Trazado 903" transform="translate(-1117.573 -149.735)"/>
                <path id="Trazado_904" d="M1208.782 334.125v-14l-.005-96.111v-4.481a9.828 9.828 0 0 0-4.447-7.683l-3.868-2.235-.005-.009-64.155-37.037-12.255-7.077-2.585-1.492a5.922 5.922 0 0 1-.9-.661 3.214 3.214 0 0 1-.343-.37 2.663 2.663 0 0 1-.276-.4 3.047 3.047 0 0 1-.135-.276 1.256 1.256 0 0 1-.09-.28.587.587 0 0 1-.044-.2.46.46 0 0 1-.031-.2.773.773 0 0 1-.014-.251l.015 121.32a9.77 9.77 0 0 0 4.46 7.663l80.236 46.354c2.448 1.401 4.434.257 4.442-2.574z" class="cls-8" data-name="Trazado 904" transform="translate(-1119.621 -150.932)"/>
                <path id="Trazado_905" d="M1127.115 160.657l8.928-5.155a.9.9 0 0 1 .206-.1.316.316 0 0 1 .152-.065.171.171 0 0 1 .094-.042 2.958 2.958 0 0 1 .383-.115 2.641 2.641 0 0 1 .464-.079 4.273 4.273 0 0 1 .479-.029 2.738 2.738 0 0 1 .479.032 3.011 3.011 0 0 1 .361.051l.238.063a1.754 1.754 0 0 1 .37.129c.108.044.222.1.32.146l77.508 44.745.009-.005 3.888 2.248a9.069 9.069 0 0 1 3.138 3.307l4.222-2.437a8.428 8.428 0 0 0-2.944-3.113c-.57-.333-1.117-.644-1.616-.935l-.709-.408c-.323-.191-.623-.361-.874-.512-.137-.074-.247-.14-.351-.2s-.2-.113-.281-.158c-.1-.057-.181-.109-.239-.146s-.085-.045-.085-.045l-79-45.609a9.8 9.8 0 0 0-8.867 0l-11.927 6.885a3.2 3.2 0 0 0-1.841 2.482l.005.009v.165c.007.032.008.054.014.086a.667.667 0 0 0 .031.2.587.587 0 0 0 .044.2 1.255 1.255 0 0 0 .09.28 3.013 3.013 0 0 0 .135.276 2.663 2.663 0 0 0 .276.4 3.215 3.215 0 0 0 .343.37 5.923 5.923 0 0 0 .9.661l2.591 1.495 12.255 7.077 64.155 37.037.005.009 3.868 2.235h.013a9.059 9.059 0 0 1 3.13 3.312l4.239-2.447a8.42 8.42 0 0 0-2.944-3.113c-.57-.333-1.117-.644-1.616-.935l-.709-.408c-.77-.454-1.354-.79-1.648-.951l-.162-.1a.025.025 0 0 1-.018-.012L1136.3 168l-9.185-5.3a1.081 1.081 0 0 1 0-2.043z" class="cls-9" data-name="Trazado 905" transform="translate(-1119.621 -151.175)"/>
            </g>
            <path id="Trazado_906" d="M1011.766 360.059l73.7 42.551a5.876 5.876 0 0 0 5.32 0l102.814-59.359c1.468-.849 1.468-2.224 0-3.072l-73.715-42.543a5.881 5.881 0 0 0-5.321 0l-102.8 59.351c-1.464.848-1.464 2.223.002 3.072z" class="cls-1" data-name="Trazado 906" transform="translate(-872.177 -124.302)"/>
            <path id="Trazado_907" d="M997.377 361.842l36.32-20.917c1.47-.847 1.466-2.212-.009-3.048l-74.305-42.155a5.959 5.959 0 0 0-5.335.014l-35.689 20.486c-1.471.845-1.473 2.217 0 3.065l73.7 42.551a5.89 5.89 0 0 0 5.318.004z" class="cls-1" data-name="Trazado 907" transform="translate(-874.406 -124.347)"/>
            <g id="Grupo_237" data-name="Grupo 237" transform="translate(0 55.749)">
                <path id="Trazado_908" d="M930.831 185.892v5.6l-8.5 4.328v-6.01z" class="cls-10" data-name="Trazado 908" transform="translate(-874.285 -182.702)"/>
                <path id="Trazado_909" d="M924.748 191.356l9.871-5.117 12.477 7.2-12.477 7.205z" class="cls-5" data-name="Trazado 909" transform="translate(-874.227 -182.694)"/>
                <path id="Trazado_910" d="M924.384 190.383c-1.149.663-1.087 1.773.137 2.481l5.44 6.731a4.753 4.753 0 0 0 4.3.079c1.149-.663 1.086-1.773-.137-2.481l-5.44-6.731a4.753 4.753 0 0 0-4.3-.079z" class="cls-7" data-name="Trazado 910" transform="translate(-874.256 -182.607)"/>
                <path id="Trazado_911" d="M941.248 203v46.688a5.88 5.88 0 0 1-2.653 4.607l-44.588 25.74a5.211 5.211 0 0 1-2.16.614l41.588-76.841a5.215 5.215 0 0 0 2.161-.6l3-1.741c1.464-.84 2.652-.154 2.652 1.533z" class="cls-11" data-name="Trazado 911" transform="translate(-875.013 -182.339)"/>
                <path id="Trazado_912" d="M930.664 203.468l-6.817-7.523-6.051-3.5c-.557-.888-1.206-1.55-.858-2.277L875.7 266.25l-.041.082c-.358.737-.451 2.379.552 2.953l12.863 11.015a5.615 5.615 0 0 0 3.165.614l41.588-76.841a5.691 5.691 0 0 1-3.163-.605z" class="cls-12" data-name="Trazado 912" transform="translate(-875.405 -182.6)"/>
                <path id="Trazado_913" d="M916.828 189.547c-1.469.849-1.1 1.795 0 3.072l12.872 11.022a5.882 5.882 0 0 0 5.32 0l11.316-6.534c1.469-.849 1.729-2.073.581-2.737a5.325 5.325 0 0 0-4.74.335l-8.93 5.156a1.961 1.961 0 0 1-1.773 0l-8.1-8.267a.54.54 0 0 1 0-1.024l9.045-4.644c1.468-.848 1.728-2.073.581-2.736a5.325 5.325 0 0 0-4.739.335z" class="cls-13" data-name="Trazado 913" transform="translate(-874.44 -182.777)"/>
            </g>
            <g id="Grupo_238" data-name="Grupo 238" transform="translate(56.661)">
                <path id="Trazado_914" d="M1006.806 130.733l-.017-.01-2.04-1.177-72.477 39.4v133.206a10.58 10.58 0 0 0 2.351-.262 7.656 7.656 0 0 0 2.08-.8l52.634-44.779a5.535 5.535 0 0 0 .511-.332 9.93 9.93 0 0 0 3.922-7.347v-92.719l.538-5.081z" class="cls-14" data-name="Trazado 914" transform="translate(-930.709 -128.298)"/>
                <path id="Trazado_915" d="M1006.807 130.733l-.017-.01-2.04-1.177-72.487 39.4v1.739l-.006 1.486v129.978l.009.005a10.581 10.581 0 0 0 2.351-.262 7.843 7.843 0 0 0 2.07-.8l53.154-45.105 1.33-.769a9.8 9.8 0 0 0 4.433-7.678l-.419-92.447 12.906-11.808v-9.687a3.282 3.282 0 0 0-1.284-2.865z" class="cls-14" data-name="Trazado 915" transform="translate(-930.709 -128.298)"/>
                <path id="Trazado_916" d="M937.909 171.272l64.664-37.259a2.556 2.556 0 0 1 2.559 0l10.23 5.91-66.354 37.761z" class="cls-5" data-name="Trazado 916" transform="translate(-930.574 -128.2)"/>
                <path id="Trazado_917" d="M951.358 175.818c1.148-.662 1.086-1.773-.137-2.48l-8.028-4.641a4.753 4.753 0 0 0-4.3-.079c-1.148.662-1.086 1.773.137 2.48l8.027 4.641a4.755 4.755 0 0 0 4.301.079z" class="cls-7" data-name="Trazado 917" transform="translate(-930.57 -127.377)"/>
                <path id="Trazado_918" d="M1023.028 140.1l-1.294-.747-.745-.43-72.486 39.4V311.529a8.972 8.972 0 0 0 4.43-1.06l66.974-38.664a9.8 9.8 0 0 0 4.433-7.678V142.978a3.244 3.244 0 0 0-1.312-2.878z" class="cls-15" data-name="Trazado 918" transform="translate(-930.321 -128.074)"/>
                <path id="Trazado_919" d="M930.745 296.7a9.8 9.8 0 0 0 4.433 7.679l9.314 5.382a9.617 9.617 0 0 0 4.433 1.06V177.61l-18.181-8.8z" class="cls-16" data-name="Trazado 919" transform="translate(-930.745 -127.361)"/>
                <path id="Trazado_920" d="M950.892 175.868h.014a1.793 1.793 0 0 0 .237-.124l1.531-.89c.59-.345 1.207-.7 1.81-1.047 1.635-.948 3.317-1.916 5.018-2.9.428-.25.851-.49 1.279-.74 2.57-1.484 5.165-2.988 7.712-4.45.851-.49 1.687-.977 2.519-1.454l2.413-1.4c1.578-.91-8 4.651-6.551 3.821.371-.212.727-.42 1.078-.618l2.044-1.185 9.413-5.431 14.936-8.6 1.4-.811 20.038-11.568c.014 0 .034-.016.047-.019a4.75 4.75 0 0 1 4.242-.057l3.379 1.95a2.775 2.775 0 0 0-3.053.27c-.184.1-.332.186-.456.257l-24.715 14.236-1.421.823-14.406 8.332-26.093 15.021a9.076 9.076 0 0 1-4.378 1.031 9.184 9.184 0 0 1-4.157-.91c-.093-.042-.19-.1-.279-.149l-11.91-6.88a3.28 3.28 0 0 1-.27-.168l-.017-.01a3.429 3.429 0 0 1-1.382-1.578l-.009-.005c-.462-1.165.1-2.448 1.679-3.358l1.934-1.118 1.53-.89c.291-.175.6-.34.9-.519s.609-.357.908-.528c1.635-.947 3.316-1.916 5.018-2.9.427-.25.85-.49 1.278-.74 2.571-1.483 5.165-2.988 7.712-4.45.851-.49-9.421 5.476-8.589 5l2.414-1.4 2.323-1.342c.766-.444 1.512-.876 2.234-1.288.371-.211.727-.419 1.078-.618l2.044-1.185c.694-.4 1.369-.794 2.014-1.154.836-.487 1.621-.944 2.343-1.356l1.968-1.133q.591-.35 1.069-.625c.318-.182.6-.349.865-.493q.562-.332.855-.5l.266-.154a.152.152 0 0 1 .033-.016l36.377-20.973c.014 0 .033-.016.047-.02a2.606 2.606 0 0 1 .236-.123 4.764 4.764 0 0 1 4.005.066l2.093 1.208 1.286.742a2.542 2.542 0 0 0-2.635.039c-.138.075-.276.148-.418.232l-.456.257-40.544 23.379L937.8 169.05a.81.81 0 0 0 0 1.537l8.913 5.15a4.965 4.965 0 0 0 4.179.131z" class="cls-17" data-name="Trazado 920" transform="translate(-930.745 -128.327)"/>
            </g>
            <g id="Grupo_239" data-name="Grupo 239" transform="translate(42.85 108.47)">
                <path id="Trazado_921" d="M919.785 310.588l16.69-9.577-12.527-7.231-4.163 2.4z" class="cls-2" data-name="Trazado 921" transform="translate(-917.196 -232.849)"/>
                <path id="Trazado_922" d="M1092.067 296.559l-90.837 52.451c0 .01-3.891 2.252-3.891 2.252a9.072 9.072 0 0 1-4.433 1.065v4.873a8.418 8.418 0 0 0 4.167-.993c.573-.328 1.116-.645 1.618-.932l.707-.41c.328-.184.625-.358.88-.5.133-.082.246-.143.348-.2s.195-.113.276-.164c.1-.061.184-.1.246-.133s.082-.051.082-.051l90.836-52.449a4.754 4.754 0 0 0 2.217-3.683v-3.9c0 1.477-1.523 2.373-2.216 2.774z" class="cls-3" data-name="Trazado 922" transform="translate(-915.45 -232.849)"/>
                <path id="Trazado_923" d="M994.614 353.3a9.1 9.1 0 0 0 4.433-1.065l3.88-2.242 91.227-52.668c2.447-1.413 2.447-3.717.01-5.14l-12.133-7.075-53.108-30.992a9.8 9.8 0 0 0-8.867-.031l-83.619 47.9-4.167 2.4-10.935 6.256-.01.01a.815.815 0 0 0 .031.154.168.168 0 0 0 .01.1 3.05 3.05 0 0 0 .092.389 2.556 2.556 0 0 0 .164.44 4.2 4.2 0 0 0 .215.43 2.716 2.716 0 0 0 .266.4 3.076 3.076 0 0 0 .225.287l.174.174a3.315 3.315 0 0 0 .3.256c.092.072.195.143.287.2l63.2 36.5h.01l3.88 2.242a8.956 8.956 0 0 0 4.435 1.075z" class="cls-4" data-name="Trazado 923" transform="translate(-917.159 -233.821)"/>
                <path id="Trazado_924" d="M923.859 310.166l68.135 39.345a5.12 5.12 0 0 0 5.119 0l94.682-54.669a2.559 2.559 0 0 0 1.28-2.217v-12.362l-98.522 57.061-70.706-40.824z" class="cls-5" data-name="Trazado 924" transform="translate(-917.099 -233.171)"/>
                <path id="Trazado_925" d="M995.466 349.511l94.682-54.669a2.559 2.559 0 0 0 1.28-2.217v-12.362l-98.522 57.061V350.2a5.122 5.122 0 0 0 2.56-.689z" class="cls-6" data-name="Trazado 925" transform="translate(-915.45 -233.171)"/>
                <path id="Trazado_926" d="M922.829 297.935l.009 11.335a2.667 2.667 0 0 0 1.038 2.135c.572.331 1.036-.089 1.036-.937v-11.33A2.667 2.667 0 0 0 923.87 297c-.575-.331-1.041.087-1.041.935z" class="cls-7" data-name="Trazado 926" transform="translate(-917.123 -232.775)"/>
                <path id="Trazado_927" d="M999.4 336.107c.778-.44 1.362-.778 1.648-.952l.164-.092c.021-.01 54.04-31.208 54.04-31.208l36.817-21.254a4.754 4.754 0 0 0 2.217-3.68v-3.9c0 1.534-1.564 2.405-2.214 2.781l-40.985 23.66-49.857 28.788c-.01 0-3.881 2.232-3.881 2.232a9.028 9.028 0 0 1-4.444 1.065v4.894a8.419 8.419 0 0 0 4.167-.993c.573-.328 1.116-.645 1.618-.932z" class="cls-3" data-name="Trazado 927" transform="translate(-915.45 -233.297)"/>
                <path id="Trazado_928" d="M1094.223 278.555l-12.123 7-79.1 45.668-3.88 2.242a9.825 9.825 0 0 1-8.877-.01l-3.87-2.232h-.01l-49.852-28.791-12.256-7.075-2.59-1.495a5.792 5.792 0 0 0-1.024-.451 3.071 3.071 0 0 0-.491-.113 2.62 2.62 0 0 0-.481-.041c-.1 0-.2.01-.307.021a1.292 1.292 0 0 0-.287.061.616.616 0 0 0-.195.061.46.46 0 0 0-.184.072.773.773 0 0 0-.225.113l100.9-58.268a9.772 9.772 0 0 1 8.867.031l66 38.067c2.432 1.424 2.432 3.717-.015 5.14z" class="cls-9" data-name="Trazado 928" transform="translate(-917.227 -234.269)"/>
                <path id="Trazado_929" d="M1050.4 248.677l-23.135-13.329a9.77 9.77 0 0 0-8.866-.031l-59.249 34.216 33.008 19.357z" class="cls-18" data-name="Trazado 929" transform="translate(-916.256 -234.269)"/>
                <path id="Trazado_930" d="M921.413 299.173v10.31a.877.877 0 0 0 .021.225.316.316 0 0 0 .021.164.168.168 0 0 0 .01.1 3.018 3.018 0 0 0 .092.389 2.545 2.545 0 0 0 .164.44 4.166 4.166 0 0 0 .215.43 2.7 2.7 0 0 0 .266.4 3.086 3.086 0 0 0 .225.287l.174.174a1.715 1.715 0 0 0 .3.256c.092.072.195.143.287.2l63.2 36.5v.01l3.891 2.242a9.073 9.073 0 0 0 4.433 1.065v4.874a8.418 8.418 0 0 1-4.167-.993c-.573-.328-1.116-.645-1.618-.932l-.707-.41c-.328-.184-.625-.358-.88-.5-.133-.082-.246-.143-.348-.2s-.195-.113-.276-.164c-.1-.061-.184-.1-.246-.133s-.082-.051-.082-.051l-64.7-37.361a9.8 9.8 0 0 1-4.433-7.679v-13.769a3.2 3.2 0 0 1 1.229-2.836h.01l.143-.082c.031-.01.051-.02.082-.031a.686.686 0 0 1 .184-.072.617.617 0 0 1 .195-.061 1.293 1.293 0 0 1 .287-.061c.1-.01.2-.02.307-.02a2.616 2.616 0 0 1 .481.041 3.069 3.069 0 0 1 .491.113 5.8 5.8 0 0 1 1.024.451l2.59 1.495 12.256 7.075 49.852 28.791h.01l3.87 2.232.01.01a9.069 9.069 0 0 0 4.433 1.055v4.894a8.419 8.419 0 0 1-4.167-.993c-.573-.328-1.116-.645-1.618-.932l-.707-.41a72.844 72.844 0 0 1-1.648-.952l-.164-.092a.032.032 0 0 0-.021-.01l-54.019-31.2-9.184-5.3c-.969-.566-1.768-.105-1.768 1.021z" class="cls-8" data-name="Trazado 930" transform="translate(-917.256 -232.894)"/>
            </g>
            <g id="Grupo_240" data-name="Grupo 240" transform="translate(138.498 149.281)">
                <path id="Trazado_931" d="M1013.2 350.447l16.69-9.577-12.527-7.231-4.163 2.4z" class="cls-19" data-name="Trazado 931" transform="translate(-1010.615 -272.708)"/>
                <path id="Trazado_932" d="M1185.485 336.418l-90.836 52.452c0 .01-3.891 2.253-3.891 2.253a9.073 9.073 0 0 1-4.433 1.065v4.874a8.419 8.419 0 0 0 4.167-.993c.573-.328 1.116-.645 1.618-.932l.706-.41c.328-.184.625-.358.881-.5.133-.082.246-.143.348-.2s.195-.113.276-.164c.1-.061.184-.1.246-.133s.082-.051.082-.051l90.836-52.449a4.758 4.758 0 0 0 2.217-3.683v-3.9c-.002 1.473-1.523 2.37-2.217 2.771z" class="cls-11" data-name="Trazado 932" transform="translate(-1008.87 -272.708)"/>
                <path id="Trazado_933" d="M1088.033 393.159a9.1 9.1 0 0 0 4.433-1.065l3.88-2.242 91.227-52.668c2.447-1.413 2.447-3.717.01-5.14l-12.133-7.075-53.108-30.992a9.8 9.8 0 0 0-8.867-.031l-83.619 47.9-4.167 2.4-10.935 6.256-.01.01a.806.806 0 0 0 .031.154.169.169 0 0 0 .01.1 3.031 3.031 0 0 0 .092.389 2.565 2.565 0 0 0 .164.44 4.221 4.221 0 0 0 .215.43 2.715 2.715 0 0 0 .266.4 3.087 3.087 0 0 0 .225.287l.174.174a3.326 3.326 0 0 0 .3.256c.092.072.195.143.287.2l63.2 36.5h.01l3.881 2.242a8.952 8.952 0 0 0 4.434 1.075z" class="cls-10" data-name="Trazado 933" transform="translate(-1010.578 -273.68)"/>
                <path id="Trazado_934" d="M1017.277 350.025l68.136 39.344a5.115 5.115 0 0 0 5.119 0l94.682-54.668a2.56 2.56 0 0 0 1.28-2.217v-12.362l-98.522 57.061-70.708-40.821z" class="cls-5" data-name="Trazado 934" transform="translate(-1010.518 -273.03)"/>
                <path id="Trazado_935" d="M1088.885 389.369l94.682-54.668a2.559 2.559 0 0 0 1.28-2.217v-12.362l-98.521 57.061v12.872a5.114 5.114 0 0 0 2.559-.686z" class="cls-6" data-name="Trazado 935" transform="translate(-1008.87 -273.03)"/>
                <path id="Trazado_936" d="M1016.248 337.793l.009 11.336a2.667 2.667 0 0 0 1.038 2.135c.572.331 1.036-.089 1.036-.938V339a2.666 2.666 0 0 0-1.042-2.138c-.575-.335-1.042.084-1.041.931z" class="cls-7" data-name="Trazado 936" transform="translate(-1010.542 -272.634)"/>
                <path id="Trazado_937" d="M1092.816 375.966c.778-.44 1.362-.778 1.649-.952l.164-.092c.02-.01 54.04-31.207 54.04-31.207l36.816-21.254a4.755 4.755 0 0 0 2.218-3.681v-3.9c0 1.534-1.565 2.406-2.216 2.782l-40.983 23.66-49.852 28.791c-.01 0-3.88 2.232-3.88 2.232a9.028 9.028 0 0 1-4.443 1.065v4.89a8.417 8.417 0 0 0 4.167-.993c.573-.328 1.116-.645 1.618-.932z" class="cls-11" data-name="Trazado 937" transform="translate(-1008.87 -273.156)"/>
                <path id="Trazado_938" d="M1187.642 318.414l-12.123 7-79.1 45.664-3.88 2.242a9.825 9.825 0 0 1-8.877-.01l-3.87-2.232h-.01l-49.852-28.791-12.256-7.075-2.59-1.495a5.793 5.793 0 0 0-1.024-.451 3.075 3.075 0 0 0-.491-.113 2.624 2.624 0 0 0-.481-.041c-.1 0-.2.01-.307.02a1.3 1.3 0 0 0-.287.061.618.618 0 0 0-.195.061.46.46 0 0 0-.184.072.774.774 0 0 0-.225.113l101.66-58.268a9.772 9.772 0 0 1 8.867.031l65.241 38.067c2.431 1.431 2.431 3.722-.016 5.145z" class="cls-13" data-name="Trazado 938" transform="translate(-1010.646 -274.128)"/>
                <path id="Trazado_939" d="M1180.491 314.051l-15.138-8.894a26.738 26.738 0 0 0-5.619-2.336L1094.5 285.69l-68.907 39.5 67.907 39.31a5.876 5.876 0 0 0 5.32-.008l81.661-47.348c1.469-.844 1.473-2.234.01-3.093z" class="cls-18" data-name="Trazado 939" transform="translate(-1010.319 -273.852)"/>
                <path id="Trazado_940" d="M1014.832 339.032v10.31a.877.877 0 0 0 .021.225.316.316 0 0 0 .021.164.169.169 0 0 0 .01.1 3.03 3.03 0 0 0 .092.389 2.554 2.554 0 0 0 .164.44 4.22 4.22 0 0 0 .215.43 2.7 2.7 0 0 0 .266.4 3.112 3.112 0 0 0 .225.287l.174.174a1.711 1.711 0 0 0 .3.256c.092.072.195.143.287.2l63.2 36.5v.01l3.891 2.242a9.072 9.072 0 0 0 4.433 1.065v4.874a8.418 8.418 0 0 1-4.167-.993c-.574-.328-1.116-.645-1.618-.932l-.707-.41c-.328-.184-.625-.358-.88-.5-.133-.082-.246-.143-.348-.2s-.195-.113-.276-.164c-.1-.061-.184-.1-.246-.133s-.082-.051-.082-.051l-64.7-37.361a9.8 9.8 0 0 1-4.433-7.679v-13.769a3.2 3.2 0 0 1 1.229-2.836h.01l.143-.082c.031-.01.051-.02.082-.031a.685.685 0 0 1 .184-.072.618.618 0 0 1 .195-.061 1.3 1.3 0 0 1 .287-.061c.1-.01.2-.02.307-.02a2.619 2.619 0 0 1 .481.041 3.082 3.082 0 0 1 .491.113 5.8 5.8 0 0 1 1.024.451l2.59 1.495 12.256 7.075 49.852 28.791h.01l3.87 2.232.01.01a9.068 9.068 0 0 0 4.433 1.055v4.894a8.418 8.418 0 0 1-4.167-.993c-.574-.328-1.116-.645-1.618-.932l-.707-.41a75.242 75.242 0 0 1-1.648-.952l-.164-.092a.032.032 0 0 0-.021-.01l-54.019-31.2-9.184-5.3c-.969-.566-1.768-.105-1.768 1.021z" class="cls-12" data-name="Trazado 940" transform="translate(-1010.675 -272.753)"/>
            </g>
            <path id="Trazado_941" d="M1029.53 268.724a8.582 8.582 0 0 0-5.631.757l-44.614 25.758c-1.468.849-1.467 2.222 0 3.068l39.009 22.442 62.378-36.008 3.077-1.777z" class="cls-18" data-name="Trazado 941" transform="translate(-872.952 -124.981)"/>
            <g id="Grupo_241" data-name="Grupo 241" transform="translate(107.836 84.726)">
                <path id="Trazado_942" d="M1179.33 308.413v2.375l-81.971 49.7-1.505-.87-1.29-.747L982 293.884a10.513 10.513 0 0 1 1.4-1.9 7.656 7.656 0 0 1 1.73-1.4L1062.353 246a5.4 5.4 0 0 1 .543-.276 9.925 9.925 0 0 1 8.324.276l80.3 46.361 4.157 2.406z" class="cls-14" data-name="Trazado 942" transform="translate(-980.697 -210.27)"/>
                <path id="Trazado_943" d="M1179.33 308.437v2.375l-81.971 49.709-1.505-.87-1.29-.737-.01-.01L982 293.919v-.01a10.509 10.509 0 0 1 1.4-1.9 7.837 7.837 0 0 1 1.73-1.392l77.763-44.866 1.331-.768a9.8 9.8 0 0 1 8.866 0l79.851 46.586 4.137 2.416 20.416 11.908a3.283 3.283 0 0 1 1.836 2.544z" class="cls-14" data-name="Trazado 943" transform="translate(-980.697 -210.294)"/>
                <path id="Trazado_944" d="M1095.44 353.417l76.207-44a2.561 2.561 0 0 0 1.28-2.217v-26.241l-77.487 45.217z" class="cls-5" data-name="Trazado 944" transform="translate(-977.989 -209.41)"/>
                <path id="Trazado_945" d="M1097.52 323.647c1.149-.662 2.079-.054 2.081 1.36V348.7a4.753 4.753 0 0 1-2.079 3.761c-1.148.663-2.079.054-2.079-1.359v-23.7a4.758 4.758 0 0 1 2.077-3.755z" class="cls-7" data-name="Trazado 945" transform="translate(-977.989 -208.398)"/>
                <path id="Trazado_946" d="M1179.33 275.617v2.355l-81.971 49.709-1.505-.87-1.3-.747L982 261.079a8.96 8.96 0 0 1 3.133-3.307l79.091-45.634a9.8 9.8 0 0 1 8.867 0l104.4 60.908a3.243 3.243 0 0 1 1.839 2.571z" class="cls-17" data-name="Trazado 946" transform="translate(-980.697 -211.078)"/>
                <path id="Trazado_947" d="M1144.223 253.765l-71.355-41.627a9.805 9.805 0 0 0-8.868 0l-72.617 41.9 73.481 42.57a5.858 5.858 0 0 0 5.316 0l74.043-42.844z" class="cls-18" data-name="Trazado 947" transform="translate(-980.473 -211.078)"/>
                <path id="Trazado_948" d="M985.16 297.139a9.8 9.8 0 0 1-4.433-7.679v-25.18a9.611 9.611 0 0 1 1.3-4.369l3.134 1.809 112.228 64.8-1.476 34.566z" class="cls-16" data-name="Trazado 948" transform="translate(-980.727 -209.912)"/>
                <path id="Trazado_949" d="M1098.063 325.829l.01-.01a1.658 1.658 0 0 1 .225-.143l1.536-.88c.594-.338 1.208-.7 1.812-1.044 1.638-.942 3.317-1.915 5.017-2.9.43-.246.85-.491 1.28-.737 2.57-1.485 5.171-2.979 7.71-4.454.85-.491 1.689-.973 2.519-1.454l2.416-1.392c1.577-.911 3.112-1.792 4.556-2.631.369-.215.727-.42 1.075-.625l2.048-1.177 9.409-5.437 15.378-8.877 1.4-.809 20.037-11.57c.01-.01.031-.02.041-.031a4.749 4.749 0 0 0 2.171-3.645v-3.9a2.774 2.774 0 0 1-1.761 2.508c-.174.113-.328.195-.451.266l-24.174 13.955-1.423.819-15.388 8.887-37.2 21.481a9.073 9.073 0 0 0-3.082 3.276 9.178 9.178 0 0 0-1.29 4.055c-.01.1-.01.215-.01.317v28.177c0 .1 0 .215.01.317v.02a3.431 3.431 0 0 0 .676 1.986v.01c.778.983 2.17 1.137 3.747.225l1.935-1.116 1.536-.881c.3-.164.594-.348.9-.522s.614-.348.911-.522c1.638-.942 3.317-1.915 5.017-2.9.43-.246.85-.491 1.28-.737 2.57-1.485 5.171-2.979 7.71-4.454.85-.491 1.689-.973 2.519-1.454l2.416-1.392 2.324-1.341c.768-.44 1.516-.87 2.232-1.29.369-.215.727-.42 1.075-.625l2.048-1.177c.7-.4 1.372-.788 2.007-1.167.839-.481 1.628-.932 2.345-1.352l1.966-1.136q.6-.338 1.075-.614l.86-.5q.568-.322.86-.491l.266-.154a.13.13 0 0 0 .031-.02l36.818-21.256c.01-.01.031-.02.041-.031a2.64 2.64 0 0 0 .225-.143 4.764 4.764 0 0 0 1.945-3.5v-3.9a2.542 2.542 0 0 1-1.351 2.263c-.133.082-.266.164-.41.246l-.451.266-40.985 23.662L1097.418 355c-.737.43-1.331.082-1.331-.768v-24.718a4.967 4.967 0 0 1 1.976-3.685z" class="cls-15" data-name="Trazado 949" transform="translate(-978.073 -209.574)"/>
            </g>
            <g id="Grupo_242" data-name="Grupo 242" transform="translate(84.526 32.99)">
                <path id="Trazado_950" d="M1145.111 241.924l-16.69-9.577 12.527-7.231 4.163 2.4z" class="cls-19" data-name="Trazado 950" transform="translate(-953.893 -159.007)"/>
                <path id="Trazado_951" d="M960.178 226.213L1060 283.841c0 .01 3.891 2.252 3.891 2.252a9.073 9.073 0 0 0 4.433 1.065v4.874a8.419 8.419 0 0 1-4.167-.993c-.573-.328-1.116-.645-1.618-.932l-.706-.41c-.328-.184-.625-.358-.881-.5-.133-.082-.246-.143-.348-.2s-.195-.113-.276-.164c-.1-.061-.184-.1-.246-.133s-.082-.051-.082-.051l-99.818-57.625a4.756 4.756 0 0 1-2.217-3.683v-3.9c-.004 1.474 1.519 2.371 2.213 2.772z" class="cls-12" data-name="Trazado 951" transform="translate(-957.961 -159.047)"/>
                <path id="Trazado_952" d="M1072.753 287.136l3.88-2.242h.01l69.2-39.955c.091-.061.194-.133.286-.2a3.158 3.158 0 0 0 .3-.256l.175-.174a3.1 3.1 0 0 0 .224-.287 2.64 2.64 0 0 0 .266-.4 4.216 4.216 0 0 0 .216-.43 2.561 2.561 0 0 0 .163-.44 2.9 2.9 0 0 0 .093-.389.168.168 0 0 0 .01-.1.9.9 0 0 0 .03-.154l-.01-.01-10.935-6.256-4.167-2.4-92.6-53.074a9.8 9.8 0 0 0-8.867.031l-59.1 34.448-12.133 7.075c-2.437 1.422-2.437 3.726.01 5.139l100.202 57.838 3.88 2.242a9.1 9.1 0 0 0 4.433 1.065 8.943 8.943 0 0 0 4.434-1.071z" class="cls-10" data-name="Trazado 952" transform="translate(-957.961 -160.1)"/>
                <path id="Trazado_953" d="M1144.942 241.542l-74.129 42.8a5.12 5.12 0 0 1-5.119 0L962.03 224.5a2.559 2.559 0 0 1-1.28-2.217v-12.366l107.5 62.239 76.7-44.276z" class="cls-6" data-name="Trazado 953" transform="translate(-957.894 -159.37)"/>
                <path id="Trazado_954" d="M1065.693 284.342L962.03 224.5a2.559 2.559 0 0 1-1.28-2.217v-12.366l107.5 62.239v12.872a5.111 5.111 0 0 1-2.557-.686z" class="cls-5" data-name="Trazado 954" transform="translate(-957.894 -159.37)"/>
                <path id="Trazado_955" d="M1141.726 229.27l-.009 11.336a2.664 2.664 0 0 1-1.037 2.135c-.573.331-1.037-.089-1.037-.938v-11.328a2.666 2.666 0 0 1 1.042-2.138c.576-.337 1.042.086 1.041.933z" class="cls-7" data-name="Trazado 955" transform="translate(-953.625 -158.933)"/>
                <path id="Trazado_956" d="M1061.828 270.938a76.044 76.044 0 0 1-1.649-.952l-.164-.092c-.02-.01-54.04-31.207-54.04-31.207l-45.8-26.431a4.754 4.754 0 0 1-2.217-3.681v-3.9c0 1.534 1.565 2.406 2.215 2.782l49.966 28.836L1060 265.081c.01 0 3.88 2.232 3.88 2.232a9.029 9.029 0 0 0 4.444 1.065v4.894a8.419 8.419 0 0 1-4.167-.993c-.573-.328-1.116-.645-1.618-.932z" class="cls-12" data-name="Trazado 956" transform="translate(-957.961 -159.495)"/>
                <path id="Trazado_957" d="M959.8 208.29l12.123 7 88.085 50.841 3.88 2.242a9.825 9.825 0 0 0 8.877-.01l3.87-2.232h.01l55.845-32.246 12.257-7.075 2.59-1.495a5.826 5.826 0 0 1 1.024-.451 3.073 3.073 0 0 1 .492-.113 2.61 2.61 0 0 1 .481-.041c.1 0 .2.01.306.02a1.307 1.307 0 0 1 .288.061.626.626 0 0 1 .195.061.456.456 0 0 1 .183.072.753.753 0 0 1 .225.113L1039.889 161.6a9.772 9.772 0 0 0-8.867.031l-71.234 41.519c-2.437 1.423-2.437 3.717.012 5.14z" class="cls-13" data-name="Trazado 957" transform="translate(-957.961 -160.548)"/>
                <path id="Trazado_958" d="M1145.038 230.509v10.31a.882.882 0 0 1-.02.225.325.325 0 0 1-.019.164.168.168 0 0 1-.01.1 2.9 2.9 0 0 1-.093.389 2.539 2.539 0 0 1-.163.44 4.206 4.206 0 0 1-.216.43 2.641 2.641 0 0 1-.266.4 3.053 3.053 0 0 1-.224.287l-.175.174a1.679 1.679 0 0 1-.3.256 3.157 3.157 0 0 1-.286.2l-69.2 39.955v.01l-3.891 2.242a9.073 9.073 0 0 1-4.433 1.065v4.874a8.419 8.419 0 0 0 4.167-.993c.573-.328 1.116-.645 1.618-.932l.707-.41c.328-.184.625-.358.88-.5.133-.082.246-.143.348-.2s.195-.113.276-.164c.1-.061.184-.1.246-.133s.082-.051.082-.051l70.691-40.815a9.8 9.8 0 0 0 4.433-7.679v-13.77a3.2 3.2 0 0 0-1.229-2.836h-.01l-.142-.082c-.031-.01-.051-.02-.083-.031a.676.676 0 0 0-.183-.072.626.626 0 0 0-.194-.061 1.309 1.309 0 0 0-.288-.061c-.1-.01-.2-.02-.306-.02a2.608 2.608 0 0 0-.481.041 3.077 3.077 0 0 0-.493.113 5.822 5.822 0 0 0-1.024.451l-2.589 1.495-12.257 7.075-55.845 32.246h-.01l-3.87 2.232-.01.01a9.068 9.068 0 0 1-4.433 1.055v4.894a8.418 8.418 0 0 0 4.167-.993c.573-.328 1.116-.645 1.618-.932l.707-.41c.778-.44 1.362-.778 1.648-.952l.164-.092a.031.031 0 0 1 .02-.01l60.012-34.652 9.185-5.3c.977-.569 1.774-.108 1.774 1.018z" class="cls-11" data-name="Trazado 958" transform="translate(-955.389 -159.052)"/>
            </g>
            <path id="Trazado_959" d="M1017.362 319.588v9.594l12.452-7.122-8.37-4.836z" class="cls-18" data-name="Trazado 959" transform="translate(-872.017 -123.819)"/>
        </g>
        <g id="Grupo_245" data-name="Grupo 245" transform="translate(1120.314 346.505)">
            <path id="Trazado_960" d="M1114.8 405.454l16.006-9.24 3.771-2.181.992-.572 1.85-1.07a.263.263 0 0 0-.114.051l3.721-2.134 69.431-39.975 22.917-4.546-4.011 4.564-11.328 12.891-.005-.008-68.985 39.718-.01.01-.494.281-5.844 3.376a.633.633 0 0 1-.13.105l-3.815 2.165c0 .009 0 .009-.014.015l-12.936 7.464c-3.42 2.368-11.352-2.111-12.236-6.752-.342-1.733-.044-3.277 1.234-4.162z" class="cls-1" data-name="Trazado 960" transform="translate(-1113.435 -340.914)"/>
            <g id="Grupo_244" data-name="Grupo 244">
                <path id="Trazado_961" d="M1215.776 358.484l15.339-17.457-22.915 4.547z" class="cls-20" data-name="Trazado 961" transform="translate(-1111.173 -341.027)"/>
                <path id="Trazado_962" d="M1231.114 341.027l-19.87 9.736-3.047-5.189z" class="cls-21" data-name="Trazado 962" transform="translate(-1111.174 -341.027)"/>
                <path id="Trazado_963" d="M1230.729 341.027l-4.011 4.565.424-1.327-1.135.379.651-1.244-1.463.045.932-.9-1.776-.256z" class="cls-22" data-name="Trazado 963" transform="translate(-1110.788 -341.027)"/>
                <path id="Trazado_964" d="M1130.4 391.348l1.711-.984 2.06-1.2 75.88-43.7a9.521 9.521 0 0 1 5.7 4c2.125 2.954 2.939 6.765 1.869 8.9l-75.333 43.383-3.945 2.272c2.479-1.607-5.437-14.255-7.942-12.671z" class="cls-23" data-name="Trazado 964" transform="translate(-1113.03 -340.921)"/>
                <path id="Trazado_965" d="M1132.074 390.364l2.06-1.2 75.88-43.7a9.521 9.521 0 0 1 5.7 4l-78.588 44.663z" class="cls-7" data-name="Trazado 965" transform="translate(-1112.99 -340.921)"/>
                <path id="Trazado_966" d="M1136.751 386.649l3.823-2.193c1.087-.673 3.156 1.28 4.967 3.864 2.415 3.425 4.377 7.955 2.939 8.849l-2.823 1.611-1.009.58c1.438-.894-.52-5.433-2.936-8.858-1.739-2.474-3.726-4.372-4.834-3.91l-.012.006a.253.253 0 0 0-.115.051z" class="cls-24" data-name="Trazado 966" transform="translate(-1112.879 -339.994)"/>
                <path id="Trazado_967" d="M1137.777 386.072c2.522-1.568 10.42 11.145 7.9 12.711l-3.82 2.207c2.522-1.567-5.376-14.277-7.9-12.71z" class="cls-25" data-name="Trazado 967" transform="translate(-1112.945 -339.955)"/>
                <path id="Trazado_968" d="M1130.4 390.332l3.771-2.181c2.464-1.556 10.21 10.64 8.119 12.586a.633.633 0 0 1-.13.105l-3.815 2.166c2.476-1.608-5.44-14.26-7.945-12.676z" class="cls-24" data-name="Trazado 968" transform="translate(-1113.03 -339.906)"/>
                <path id="Trazado_969" d="M1130.4 390.42l3.651-2.11.131-.077 2.831-1.636.012-.006.841-.477 2.857-1.658c1.088-.673 3.156 1.28 4.967 3.864l-2.869 1.634-.96.547-2.715 1.546-.166.094-3.64 2.075-.617.352z" class="cls-26" data-name="Trazado 969" transform="translate(-1113.03 -339.994)"/>
                <path id="Trazado_970" d="M1114.8 399.522l16.006-9.24c1.07-.679 3.128 1.242 4.939 3.8 2.427 3.42 4.424 7.961 3.006 8.881 0 .008 0 .008-.014.014l-15.4 8.886c-3.421 2.368-8.889-3.533-9.774-8.175-.339-1.738-.041-3.281 1.237-4.166z" class="cls-27" data-name="Trazado 970" transform="translate(-1113.435 -339.855)"/>
                <path id="Trazado_971" d="M1114.8 399.522l16.006-9.24c1.07-.679 3.128 1.242 4.939 3.8l-15.691 9.531s-2.6-3.345-4.331-3.3-2.284 1.476-2.158 3.377c-.341-1.74-.043-3.283 1.235-4.168z" class="cls-28" data-name="Trazado 971" transform="translate(-1113.435 -339.855)"/>
            </g>
        </g>
        <g id="Grupo_249" data-name="Grupo 249" transform="translate(1094.378 262.994)">
            <path id="Trazado_972" d="M1125.83 304.5l-23.191 13.392c-8.13-1.239-14.119-5.5-14.119-10.577 0-6.051 8.488-10.955 18.972-10.955 8.795.003 16.188 3.453 18.338 8.14z" class="cls-18" data-name="Trazado 972" transform="translate(-1088.093 -258.582)"/>
            <g id="Grupo_248" data-name="Grupo 248">
                <path id="Trazado_973" d="M1110.651 293.9a30.6 30.6 0 0 0 4.391 5.981c.478.549.7 1.075 1.486 2.229a8.657 8.657 0 0 0 3.036 2.8c1.057.5 1.517.512 1.712.343.244-.213.134-.5-.322-.784a7.109 7.109 0 0 1-2.009-1.56s.969.67 1.584 1.019a7.026 7.026 0 0 0 1.743.708c.592.14 1.263-.461.811-.758s-.886-.4-1.789-.936a7.017 7.017 0 0 1-1.327-1 13.2 13.2 0 0 0 1.938.8 2.945 2.945 0 0 0 1.656.136c.288-.065.563-.53-.048-.825a10.594 10.594 0 0 1-2.327-1.029c-.7-.484-1.136-.924-.97-.966s.561.271 1.3.365c.706.088 1.453-.246 1.471-.646s-.143-.211-.856-.415a18.274 18.274 0 0 0-2.279-.857 7.715 7.715 0 0 1-2.25-.726c-.764-.392-2.352-2.866-3.55-5.086a75.1 75.1 0 0 1-2.557-8.124c-.753-2.717-1.789-8.273-2.34-10.155a3.079 3.079 0 0 0-2.567-2.572c-1.314-.306-2 1.342-1.764 2.933.42 2.793 2.602 13.638 5.827 19.125z" class="cls-29" data-name="Trazado 973" transform="translate(-1087.705 -259.168)"/>
                <path id="Trazado_974" d="M1106.478 271.562c1.337-.21 2.443 1.038 3.011 2.979s1.3 6.128 1.8 7.586a14.062 14.062 0 0 1 .63 2.64 6.386 6.386 0 0 1-4.833 1.259 62.122 62.122 0 0 1-2.119-8.066c-.626-3.678-.893-6.021 1.511-6.398z" class="cls-13" data-name="Trazado 974" transform="translate(-1087.711 -259.174)"/>
                <path id="Trazado_975" d="M1109.555 285.082a4.952 4.952 0 0 0 2.2-1.3l-.1-.487s.26.008.635 1.139.436 1.877.252 2.122c-1.1 1.457-4.225 2.014-4.795 1.18-.4-.59-1.346-2.224-1.015-2.94l.181.534a6.075 6.075 0 0 0 2.642-.248z" class="cls-30" data-name="Trazado 975" transform="translate(-1087.66 -258.893)"/>
                <path id="Trazado_976" d="M1117.836 328.925a11.3 11.3 0 0 1-.255 1.366 5.752 5.752 0 0 0-.2 2.13c.111.5 1.532 1.208 2.321 1.312a4.929 4.929 0 0 1 2.456 1.514 4.532 4.532 0 0 0 3.448 1.292c1.1-.126 2.342-.386 2.607-.83s-.1-.944-2.412-2.589-3.856-2.643-4.582-4.169z" class="cls-31" data-name="Trazado 976" transform="translate(-1087.405 -257.804)"/>
                <path id="Trazado_977" d="M1109.732 344.375a3.663 3.663 0 0 0 2.578 1.374 10.161 10.161 0 0 0 1.6.062c.564-.007 1.43-.338 1.378-1.04a1.158 1.158 0 0 0-.3-.592c-.9-1.17-1.877-2.291-2.7-3.519a11.158 11.158 0 0 1-2.194-4.772l-3.465.04c-.013.292-.093.7-.145 1.082s-.156.765-.243 1.145a3.112 3.112 0 0 0 .1 2.248 4.809 4.809 0 0 0 1.332 1.212 12.754 12.754 0 0 1 2.059 2.76z" class="cls-31" data-name="Trazado 977" transform="translate(-1087.674 -257.638)"/>
                <path id="Trazado_978" d="M1093.683 299.517c-1.255 7.841 2.778 10.13 6.6 13.074 3.1 2.388 5.151 4.076 5.151 4.076s-.064 1.722-.1 5.584c-.032 3.4 1.6 14.641 1.6 14.641a3.78 3.78 0 0 0 3.465-.04s.648-8.334 1.036-12.624c.525-5.819 1.1-8.8.807-10.053-.262-1.1-4.208-6.553-5.411-8.4l11.085 6.439a37.888 37.888 0 0 0-.323 4.923c.122 4.618.816 12.587.816 12.587a2.883 2.883 0 0 0 3.385.025s3.479-18.784 3.479-20.439c0-2.515-10.923-10.023-12.991-11.771-1.179-1-2.5-2.063-2.5-2.063z" class="cls-12" data-name="Trazado 978" transform="translate(-1087.975 -258.603)"/>
                <path id="Trazado_979" d="M1106.515 305.618a8 8 0 0 0 2.533-3.613 18.145 18.145 0 0 1-.4 2.748c-.3 1.2 8.948 7.3 8.948 7.3z" class="cls-32" data-name="Trazado 979" transform="translate(-1087.664 -258.447)"/>
                <path id="Trazado_980" d="M1098.2 270.147s.192 3.736.109 4.066-1.714 1.425-2.189 1.818 2.581 3.407 4.069 4.089 6.2-1.115 6.278-3.429-.8-4.254-1.528-4.358-6.739-2.186-6.739-2.186z" class="cls-29" data-name="Trazado 980" transform="translate(-1087.913 -259.207)"/>
                <path id="Trazado_981" d="M1104.283 274.422c.492-.443-.076-1.424-.415-2.106-1.543-.465-5.72-2.169-5.72-2.169s.041.861.067 1.461a2.471 2.471 0 0 0 1 1.841 6.792 6.792 0 0 0 1.666.971c.612.238 2.267 1.021 3.402.002z" class="cls-33" data-name="Trazado 981" transform="translate(-1087.863 -259.207)"/>
                <path id="Trazado_982" d="M1097.84 274.739s1.6 2.639 6.75 3.128c1.066-1.9 1.041-4.067-.609-5.4 0 0 1.516-1.222 2.555-.985a5.354 5.354 0 0 1 2.334 2.978 24.4 24.4 0 0 1 1.333 8.645c-.063 3.962.126 13.8.126 13.8s.647 2.9-4.149 5.1a13.132 13.132 0 0 1-8.3 1.237c-1.914-.446-3.961-1.175-4.373-2.074.379-3.164 1.359-8.711 1.091-12.031-.283-3.511-1.028-6.069-1.218-8.892s.372-2.766 1.788-3.773a22.3 22.3 0 0 1 2.672-1.733z" class="cls-34" data-name="Trazado 982" transform="translate(-1087.978 -259.176)"/>
                <path id="Trazado_983" d="M1103.733 272.466a16.947 16.947 0 0 1 3.212 5.6c1.067 3.272 1.372 8.242 1.474 11.6s.458 11.308.458 11.308a4.873 4.873 0 0 0 1.655-4.116s-.269-5.255-.422-9.879.136-8.515-1-11.8-3.084-3.873-3.084-3.873z" class="cls-30" data-name="Trazado 983" transform="translate(-1087.73 -259.18)"/>
                <path id="Trazado_984" d="M1108.161 284.853s.869-4.584.643-6.017a2.78 2.78 0 0 0-1.471-2s-.907-3.66-1.284-4.528-3.018-1-3.018-1a18.487 18.487 0 0 1 2.3 3.873 28.453 28.453 0 0 1 2.83 9.672z" class="cls-13" data-name="Trazado 984" transform="translate(-1087.747 -259.18)"/>
                <path id="Trazado_985" d="M1098.385 274.118c.01 1.2 3.1 2.121 3.479 8.681s-.839 22.291-.839 22.291-5.255-.577-5.482-4.178c0 0-.511 2.508-2.783 2.408 0 0 .284-2.09 1.023-5.667s.511-8.779.056-12.483-1.534-6.942-.056-8.192a32.353 32.353 0 0 1 4.602-2.86z" class="cls-30" data-name="Trazado 985" transform="translate(-1087.992 -259.113)"/>
                <path id="Trazado_986" d="M1098.305 272.983a1.552 1.552 0 0 0-.648.658 9.423 9.423 0 0 1-1.165 1.5 7.21 7.21 0 0 0 1.813 2.62 14.506 14.506 0 0 1 2.259 2.8s-.865 2.872-.97 3.494 2.255 3.368 2.255 3.368.566-5.063-.5-8.143-2.934-4.853-3.038-5.368z" class="cls-13" data-name="Trazado 986" transform="translate(-1087.903 -259.14)"/>
                <path id="Trazado_987" d="M1106.658 264.825c-.445-2.9-2.533-5.1-5.524-4.93a5.747 5.747 0 0 0-2.928 10.5 5.875 5.875 0 0 0 .463 1.268c1.058 1.238 4.255 2 5.173 1.87a2.738 2.738 0 0 0 2.381-1.949c.992-2.284.677-5.325.435-6.759z" class="cls-29" data-name="Trazado 987" transform="translate(-1087.922 -259.452)"/>
                <path id="Trazado_988" d="M1106.224 262.488a5.7 5.7 0 0 0-5.973-2.476 5.8 5.8 0 0 0-4.539 5.094 5.723 5.723 0 0 0 2.494 5.285c-.063-.2-1.571-2.449-.017-2.947a1.893 1.893 0 0 1 .323 1.182s.769-.073.6-.975q-.072-.378-.134-.69a2.66 2.66 0 0 1 .441-2 2.324 2.324 0 0 0 .408-1.882 7.715 7.715 0 0 0 4.375.339 3.974 3.974 0 0 0 2.022-.93z" class="cls-35" data-name="Trazado 988" transform="translate(-1087.922 -259.452)"/>
                <path id="Trazado_989" d="M1099.826 263.09a6.438 6.438 0 0 0 3.383 1.11 5.538 5.538 0 0 0 5.049-2.114c.763-1.482-.761-.414-2.143-1.152s-6.551-3.209-8.738.6c0 0-1.248.2-1.576.937a8.479 8.479 0 0 0 .283 5.029z" class="cls-35" data-name="Trazado 989" transform="translate(-1087.926 -259.462)"/>
                <path id="Trazado_990" d="M1098.2 270.206s-.134.307-.7.335c-1.048.052-2.277-1.9-1.431-3.22a1.369 1.369 0 0 1 2.108-.042z" class="cls-29" data-name="Trazado 990" transform="translate(-1087.92 -259.287)"/>
                <g id="Grupo_247" data-name="Grupo 247" transform="translate(0 17.734)">
                    <path id="Trazado_991" d="M1113.752 285.512s-4.218.4-4.586.544c-.51.2-3.189 5.413-3.415 5.919s3.116.4 3.96.257c.589-.1 4.232-6.282 4.041-6.72z" class="cls-31" data-name="Trazado 991" transform="translate(-1087.682 -276.574)"/>
                    <path id="Trazado_992" d="M1088.9 297.775a18.256 18.256 0 0 0 8.288.88 27.463 27.463 0 0 0 8.5-2.023c.386-.18.82-.242 1.222-.4a8.753 8.753 0 0 0 1.193-.564 9.317 9.317 0 0 0 2.081-1.616 10.7 10.7 0 0 0 2.444-4.115 2.822 2.822 0 0 0 .231-1.423c-.726 1.188-2.018 1.7-3.455 2.21a3.964 3.964 0 0 1-1.787.209c-.046-.2.2-.42.309-.568a3.965 3.965 0 0 0 .462-.8c.3-.732.259-1.134.068-1.311-.307-.278-.51.106-.97.608a7.77 7.77 0 0 0-1.632 2.053 7.074 7.074 0 0 1-1.4 1.893c-.613.682-2.449 1.517-5.4 1.725a23.02 23.02 0 0 1-6.008-.587 56.228 56.228 0 0 1 2.035-9.857c.939-3.834 1.3-5.524.265-6.339-1.529-1.208-3.393.347-4.117 2.852a70.847 70.847 0 0 0-2.524 10.114c-.675 3.859-.99 6.46.195 7.059z" class="cls-29" data-name="Trazado 992" transform="translate(-1088.103 -276.769)"/>
                    <g id="Grupo_246" data-name="Grupo 246" transform="translate(.234)">
                        <path id="Trazado_993" d="M1094.8 276.937c1.284.43 1.689 2.048 1.3 4.033s-1.668 6.038-1.9 7.56a13.994 13.994 0 0 1-.657 2.632 6.384 6.384 0 0 1-4.87-1.109 62.146 62.146 0 0 1 1.836-8.136c1.142-3.55 1.985-5.752 4.291-4.98z" class="cls-13" data-name="Trazado 993" transform="translate(-1088.324 -276.783)"/>
                        <path id="Trazado_994" d="M1091.225 290.339a4.952 4.952 0 0 0 2.547-.138l.133-.479s.227.127.039 1.3-.477 1.867-.754 2c-1.646.788-4.679-.16-4.8-1.163-.085-.709-.169-2.593.455-3.076l-.085.558a6.075 6.075 0 0 0 2.465.998z" class="cls-30" data-name="Trazado 994" transform="translate(-1088.332 -276.496)"/>
                    </g>
                </g>
            </g>
        </g>
        <g id="Grupo_253" data-name="Grupo 253" transform="translate(942.563 256.35)">
            <path id="Trazado_995" d="M963.414 292.219c-11.609 0-21.3 4.735-23.587 11.041l28.533 16.48c10.938-1.317 19.155-6.911 19.155-13.613.001-7.682-10.79-13.908-24.101-13.908z" class="cls-18" data-name="Trazado 995" transform="translate(-939.827 -252.037)"/>
            <g id="Grupo_252" data-name="Grupo 252" transform="translate(2.018)">
                <path id="Trazado_996" d="M945.061 282.093a19.6 19.6 0 0 1 2.409.429 4.277 4.277 0 0 0 2.562.1 16.65 16.65 0 0 0 9.108-6.65c1.908-2.793 4-7.182 5.011-8.864a3.079 3.079 0 0 1 3.133-1.842c1.349.036 2.232 1.258 1.086 3.842a47.774 47.774 0 0 1-5.742 9.54 27.007 27.007 0 0 1-11.271 7.571 28.079 28.079 0 0 0-2.7 1.205 8.662 8.662 0 0 1-4.02.936c-1.167-.087-1.574-.3-1.659-.546-.108-.306.13-.5.667-.523a7.135 7.135 0 0 0 2.518-.368s-1.173.105-1.881.107a7.046 7.046 0 0 1-1.865-.245c-.585-.17-.872-1.024-.332-1.06s.97.085 2.017.069a7.018 7.018 0 0 0 1.647-.214 13.189 13.189 0 0 1-2.082-.258 2.948 2.948 0 0 1-1.507-.7c-.217-.2-.228-.739.448-.694a10.627 10.627 0 0 0 2.532.253c.852-.074 1.443-.244 1.32-.362s-.621-.04-1.311-.325c-.658-.271-1.144-.93-.962-1.287s.153-.288.874-.114z" class="cls-36" data-name="Trazado 996" transform="translate(-941.798 -252.681)"/>
                <path id="Trazado_997" d="M967.676 265.239c-.842-.547-2.372-.471-3.794 1.245s-3.34 5.785-4.086 7.132c0 0 2.09 3.212 4.83 2.526a65.773 65.773 0 0 0 3.547-6.909c.627-1.875.949-3.054-.497-3.994z" class="cls-30" data-name="Trazado 997" transform="translate(-941.368 -252.688)"/>
                <path id="Trazado_998" d="M983.589 308.073c.953-1.894.118-4.49-1.118-7.678-1.359-3.5-2.87-7.111-2.87-7.111l-16.284-5.448s-15.045-.282-16.521 2.752c-1.182 2.426 9.265 6.068 10.765 6.215l9.193.5.962.464 6.436 8.149z" class="cls-30" data-name="Trazado 998" transform="translate(-941.681 -252.142)"/>
                <path id="Trazado_999" d="M968.241 315.2a3.665 3.665 0 0 1-1.211 2.659 10.273 10.273 0 0 1-1.233 1.022c-.452.337-1.34.6-1.726.012a1.16 1.16 0 0 1-.125-.65c.006-1.479.1-2.96.008-4.438a11.162 11.162 0 0 0-1.159-5.122l2.775-2.075c.187.224.5.5.774.772s.588.512.888.761a3.114 3.114 0 0 1 1.289 1.845 4.845 4.845 0 0 1-.321 1.772 12.771 12.771 0 0 0 .041 3.442z" class="cls-31" data-name="Trazado 999" transform="translate(-941.297 -251.694)"/>
                <g id="Grupo_250" data-name="Grupo 250" transform="translate(4.723 37.918)">
                    <path id="Trazado_1000" d="M955.908 293a37.948 37.948 0 0 1 3.222 3.736c2.683 3.76 6.927 10.54 6.927 10.54a2.885 2.885 0 0 1-2.689 2.059s-13.945-13.023-15.084-14.225c-1.729-1.825-3.112-4.834-.129-5.081a11.536 11.536 0 0 1 7.753 2.971z" class="cls-30" data-name="Trazado 1000" transform="translate(-946.411 -290.008)"/>
                </g>
                <path id="Trazado_1001" d="M959.024 296.8s-2.486-3.644-5.066-5.16c0 0 2.565.508 6.445 5.235z" class="cls-13" data-name="Trazado 1001" transform="translate(-941.508 -252.051)"/>
                <path id="Trazado_1002" d="M965.383 307.657l-6.31-2.421 3.994 3.736a2.452 2.452 0 0 0 1.519-.434c.768-.519.797-.881.797-.881z" class="cls-13" data-name="Trazado 1002" transform="translate(-941.386 -251.727)"/>
                <path id="Trazado_1003" d="M974.871 263.817s-.191 3.736-.11 4.067 1.715 1.425 2.19 1.817-2.582 3.407-4.069 4.089-6.2-1.115-6.279-3.429.806-4.254 1.529-4.358 6.739-2.186 6.739-2.186z" class="cls-36" data-name="Trazado 1003" transform="translate(-941.206 -252.715)"/>
                <path id="Trazado_1004" d="M968.69 268.092c-.492-.443.076-1.424.416-2.105 1.542-.466 5.72-2.17 5.72-2.17s-.042.862-.068 1.461a2.468 2.468 0 0 1-1 1.842 6.8 6.8 0 0 1-1.666.97c-.612.238-2.268 1.021-3.402.002z" class="cls-37" data-name="Trazado 1004" transform="translate(-941.161 -252.715)"/>
                <path id="Trazado_1005" d="M975.383 268.41s-2.863 2.983-5.73 1.805c-1.527-.627-1.843-2.611-.413-4.081 0 0-1.515-1.223-2.553-.986a5.355 5.355 0 0 0-2.334 2.978 24.388 24.388 0 0 0-1.334 8.645c.064 3.962-.125 13.8-.125 13.8s-.648 2.9 4.149 5.1a13.128 13.128 0 0 0 8.3 1.236 6.456 6.456 0 0 0 3.871-3.078 58.468 58.468 0 0 1-.214-10.658c.283-3.512.65-6.442.841-9.265s-.372-2.766-1.788-3.773a22.232 22.232 0 0 0-2.67-1.723z" class="cls-34" data-name="Trazado 1005" transform="translate(-941.295 -252.684)"/>
                <path id="Trazado_1006" d="M974.948 268.114l.737.513a6.811 6.811 0 0 1-2.617 1.853c-1.587.589-3.123.691-4.4-.307s-1.024-3.079 0-4.38l.768.489a5.129 5.129 0 0 0-.717 2.076 2.145 2.145 0 0 0 2.3 1.635 6.441 6.441 0 0 0 3.929-1.879z" class="cls-30" data-name="Trazado 1006" transform="translate(-941.177 -252.668)"/>
                <path id="Trazado_1007" d="M966.429 258.5c.445-2.9 2.534-5.1 5.524-4.929a5.747 5.747 0 0 1 2.928 10.5 5.925 5.925 0 0 1-.462 1.268c-1.058 1.237-4.256 2-5.175 1.869a2.738 2.738 0 0 1-2.38-1.949c-.992-2.287-.681-5.331-.435-6.759z" class="cls-36" data-name="Trazado 1007" transform="translate(-941.216 -252.96)"/>
                <path id="Trazado_1008" d="M966.847 256.159a5.7 5.7 0 0 1 5.974-2.477 5.868 5.868 0 0 1 4.677 5.03 5.936 5.936 0 0 1-2.633 5.35c.063-.2 1.571-2.449.018-2.948a1.882 1.882 0 0 0-.323 1.182s-.77-.072-.6-.975l.134-.69a2.652 2.652 0 0 0-.441-2 2.321 2.321 0 0 1-.408-1.883 7.719 7.719 0 0 1-4.376.339 3.989 3.989 0 0 1-2.022-.928z" class="cls-38" data-name="Trazado 1008" transform="translate(-941.2 -252.96)"/>
                <path id="Trazado_1009" d="M977.631 299.343a19.569 19.569 0 0 1 1.76-1.7 4.278 4.278 0 0 0 1.578-2.02 16.653 16.653 0 0 0-.048-11.278c-1.144-3.183-3.472-7.454-4.244-9.256a3.079 3.079 0 0 1 .344-3.617c.82-1.072 2.327-1.07 3.749 1.372a47.753 47.753 0 0 1 4.364 10.244 27.024 27.024 0 0 1-.472 13.57 28.016 28.016 0 0 0-.608 2.9 8.66 8.66 0 0 1-1.6 3.8c-.754.894-1.167 1.1-1.414 1.024-.311-.092-.331-.4-.033-.847a7.1 7.1 0 0 0 1.177-2.255s-.6 1.012-1.016 1.585a7.058 7.058 0 0 1-1.29 1.369c-.48.373-1.341.105-1.053-.353s.638-.735 1.238-1.594a7 7 0 0 0 .792-1.46 13.167 13.167 0 0 1-1.429 1.536 2.949 2.949 0 0 1-1.449.812c-.289.06-.733-.248-.3-.77a10.657 10.657 0 0 0 1.688-1.9c.439-.733.648-1.312.48-1.281s-.4.479-1.031.871c-.606.375-1.423.382-1.606.025s-.14-.295.423-.777z" class="cls-36" data-name="Trazado 1009" transform="translate(-940.975 -252.549)"/>
                <path id="Trazado_1010" d="M974.678 263.876s.134.307.7.336c1.048.051 2.277-1.9 1.432-3.22a1.369 1.369 0 0 0-2.108-.043z" class="cls-36" data-name="Trazado 1010" transform="translate(-941.013 -252.795)"/>
                <g id="Grupo_251" data-name="Grupo 251" transform="translate(5.477 47.966)">
                    <path id="Trazado_1011" d="M949.772 302a3.669 3.669 0 0 0-2.048 2.085 10.2 10.2 0 0 0-.511 1.516c-.152.544-.081 1.467.608 1.616a1.158 1.158 0 0 0 .651-.116c1.378-.535 2.729-1.153 4.141-1.6a11.14 11.14 0 0 1 5.2-.756l.941-3.335c-.276-.1-.645-.288-1-.445s-.689-.366-1.029-.557a3.117 3.117 0 0 0-2.185-.541 4.836 4.836 0 0 0-1.54.933 12.8 12.8 0 0 1-3.228 1.2z" class="cls-31" data-name="Trazado 1011" transform="translate(-947.147 -299.822)"/>
                    <path id="Trazado_1012" d="M980.942 304.912a21.044 21.044 0 0 0-8.666-1.948c-5.887-.3-13.806-1.612-13.806-1.612a3.879 3.879 0 0 0-.906 3.357s10.575 4.292 13.9 5.007c5.327 1.144 6.969.882 9.558-.143s3.996-3.408-.08-4.661z" class="cls-30" data-name="Trazado 1012" transform="translate(-946.9 -299.785)"/>
                </g>
                <path id="Trazado_1013" d="M977.482 270.793c-.937.362-1.772 1.646-1.215 3.8a42.779 42.779 0 0 0 3.081 7.553s3.715.287 4.9-2.652a52.827 52.827 0 0 0-3.239-6.767c-1.15-1.605-1.918-2.556-3.527-1.934z" class="cls-30" data-name="Trazado 1013" transform="translate(-940.98 -252.553)"/>
                <path id="Trazado_1014" d="M976.576 256.114s.357-1.141-1.111-2.255c-1.747-1.324-4.2-1.029-6.794 0-1.656.658-4.223-.148-3.726 1.75.73 2.781 6.1 3.02 8.439 1.082a6.069 6.069 0 0 1 3.192-.577z" class="cls-39" data-name="Trazado 1014" transform="translate(-941.247 -252.974)"/>
            </g>
        </g>
        <g id="Grupo_258" data-name="Grupo 258" transform="translate(1037.3 304.845)">
            <path id="Trazado_1015" d="M1049.3 336.474c-7.4 0-13.756 2.581-16.517 6.268l23.63 13.647c6.4-1.591 10.878-5.26 10.878-9.534.001-5.734-8.053-10.381-17.991-10.381z" class="cls-18" data-name="Trazado 1015" transform="translate(-1032.346 -299.475)"/>
            <g id="Grupo_257" data-name="Grupo 257">
                <g id="Grupo_254" data-name="Grupo 254" transform="translate(1.704)">
                    <path id="Trazado_1016" d="M1056.761 301.341s.689-1.333 3.2-.927c2.421.392 2.971 2.481 2.865 7.125s.066 6.81.316 7.783-1.947 3.419-4.287 2.391-2.094-16.372-2.094-16.372z" class="cls-40" data-name="Trazado 1016" transform="translate(-1033.477 -300.338)"/>
                    <path id="Trazado_1017" d="M1047.9 334.852a23.689 23.689 0 0 1-4.5 4.68 22.865 22.865 0 0 0-1.536 1.772 6.812 6.812 0 0 1-3.018 2.009c-1.02.264-1.45.191-1.619 0-.214-.24-.092-.483.353-.659a5.67 5.67 0 0 0 1.977-1.064s-.948.437-1.545.645a6.048 6.048 0 0 1-1.672.33c-.561.02-1.148-.653-.705-.843s.853-.209 1.73-.531a5.571 5.571 0 0 0 1.305-.673 11.318 11.318 0 0 1-1.861.382 2.861 2.861 0 0 1-1.553-.178c-.263-.113-.489-.589.1-.746a9.071 9.071 0 0 0 2.238-.518c.69-.315 1.121-.64.97-.709s-.541.146-1.237.1c-.665-.048-1.338-.49-1.329-.861s.149-.167.827-.224a15.974 15.974 0 0 1 2.182-.369 6.8 6.8 0 0 0 2.147-.253c.738-.221 2.385-2.2 3.652-4.014a26.476 26.476 0 0 0 3.238-6.552c.759-2.5 1.667-7.174 2.307-8.8a3.3 3.3 0 0 1 2.82-2.4c1.7-.177 1.777 1.6 1.447 3.011-.576 2.486-3.342 12.028-6.718 16.465z" class="cls-29" data-name="Trazado 1017" transform="translate(-1033.996 -299.979)"/>
                    <path id="Trazado_1018" d="M1044.473 365.771a11.17 11.17 0 0 0 .256 1.366 5.8 5.8 0 0 1 .2 2.13c-.111.5-1.533 1.208-2.322 1.313a4.931 4.931 0 0 0-2.456 1.513 4.529 4.529 0 0 1-3.448 1.292c-1.1-.126-2.342-.385-2.607-.83s.1-.943 2.412-2.588 3.856-2.644 4.582-4.169z" class="cls-31" data-name="Trazado 1018" transform="translate(-1034.02 -298.776)"/>
                    <path id="Trazado_1019" d="M1046.757 379.806a3.662 3.662 0 0 1-2.579 1.374 10.289 10.289 0 0 1-1.6.062c-.564-.008-1.43-.338-1.378-1.04a1.167 1.167 0 0 1 .3-.593c.9-1.17 1.876-2.29 2.7-3.519a11.153 11.153 0 0 0 2.194-4.771l3.465.04c.013.291.093.7.146 1.082s.156.764.243 1.144a3.115 3.115 0 0 1-.1 2.249 4.822 4.822 0 0 1-1.332 1.211 12.79 12.79 0 0 0-2.059 2.761z" class="cls-31" data-name="Trazado 1019" transform="translate(-1033.849 -298.644)"/>
                    <path id="Trazado_1020" d="M1063.193 338.525c1.53 4.142 1.29 7.553-4.144 10.576-2.887 1.606-8.7 4.046-8.7 4.046a20.393 20.393 0 0 1 .862 6.156c.032 3.4-1.207 12.932-1.207 12.932a3.783 3.783 0 0 1-3.465-.04s-.712-6.642-1.24-11.282c-.663-5.805-1.222-9.22-.925-10.472.262-1.1 6-5.029 7.726-6.853l-.284-.1-10.18 5a13.226 13.226 0 0 1 1.634 5.114c.607 4.58 1.175 12.912 1.175 12.912a2.883 2.883 0 0 1-3.385.026s-6.766-19.031-5.851-21.275c1.212-2.975 14.375-9.343 15.023-10.657z" class="cls-41" data-name="Trazado 1020" transform="translate(-1033.994 -299.52)"/>
                    <path id="Trazado_1021" d="M1051.931 343.485a12.672 12.672 0 0 1-2.8-4.564 18.489 18.489 0 0 0 .482 3.571c.393 1.292-7.328 5.493-7.328 5.493l9.366-4.6z" class="cls-42" data-name="Trazado 1021" transform="translate(-1033.823 -299.417)"/>
                    <path id="Trazado_1022" d="M1059.5 311.543s-.251 4.513-.168 4.844 1.773.647 2.248 1.04-2.439 4.978-3.925 5.66-6.1-1.035-6.428-3.327c-.3-2.11 1.309-3.756 1.928-4.33a9.5 9.5 0 0 1 1.272-.037l.128-2.188c2.02-.647 4.945-1.662 4.945-1.662z" class="cls-29" data-name="Trazado 1022" transform="translate(-1033.61 -300.07)"/>
                    <path id="Trazado_1023" d="M1060.21 316.734c1.267.191 2.719.864 2.92 1.557a14.99 14.99 0 0 1-.339 7.533 53.682 53.682 0 0 1-2.823 6.131 12.6 12.6 0 0 1-9.4-1.23 29.318 29.318 0 0 1-.475-4.027c-3.943-3.421-.858-7.634 2.458-11a1.392 1.392 0 0 1 .981-.411c.235 0 .471.006.638.016a8.517 8.517 0 0 0-1.889 2.555 2.325 2.325 0 0 0 .966 3.171c1.605.709 2.78.279 4.136-1.187.917-.993 1.36-2.282 2.827-3.108z" class="cls-34" data-name="Trazado 1023" transform="translate(-1033.681 -299.981)"/>
                    <path id="Trazado_1024" d="M1054.379 314.978l.1-1.772 1.437-.471 3.509-1.192-.066 1.416s-.143 1.544-2.69 2.747c-.447.213-2.147.375-2.29-.728z" class="cls-33" data-name="Trazado 1024" transform="translate(-1033.534 -300.07)"/>
                    <path id="Trazado_1025" d="M1050.981 306.265c.445-2.9 2.62-5.139 5.61-4.973a5.745 5.745 0 0 1 2.922 10.5 3.373 3.373 0 0 1-.737 1.5 5.531 5.531 0 0 1-4.3 1.8 3.586 3.586 0 0 1-2.823-2.13 12.187 12.187 0 0 1-.672-6.697z" class="cls-29" data-name="Trazado 1025" transform="translate(-1033.62 -300.315)"/>
                    <path id="Trazado_1026" d="M1051.485 303.885a5.7 5.7 0 0 1 5.974-2.476 5.663 5.663 0 0 1 2.038 10.379c.063-.2 1.577-2.449.025-2.947a1.88 1.88 0 0 0-.323 1.181s-.77-.073-.6-.975q.072-.378.134-.69a2.652 2.652 0 0 0-.441-2 2.318 2.318 0 0 1-.407-1.882 7.719 7.719 0 0 1-4.376.339 3.979 3.979 0 0 1-2.024-.929z" class="cls-43" data-name="Trazado 1026" transform="translate(-1033.603 -300.315)"/>
                    <path id="Trazado_1027" d="M1058.029 347.062a17.624 17.624 0 0 1 1.845-1.457 7.44 7.44 0 0 0 1.858-1.327c.588-.585 1.452-3.039 1.9-5.433a23.781 23.781 0 0 0-.136-8.065 55.909 55.909 0 0 0-3.2-9.279c-.848-1.792-.369-2.887.406-3.681.911-.932 1.86-.911 2.939 1.594a51.194 51.194 0 0 1 3.359 10.922 24.193 24.193 0 0 1-.113 8.221 30.2 30.2 0 0 1-2.189 6.9c-.279.646-.327 1.194-.714 2.487a8.357 8.357 0 0 1-1.973 3.463c-.826.769-1.246.916-1.474.817-.286-.124-.27-.421.067-.815a6.873 6.873 0 0 0 1.39-2.025s-.694.9-1.158 1.4a6.762 6.762 0 0 1-1.4 1.162c-.5.3-1.3-.054-.969-.46s.7-.632 1.371-1.385a6.744 6.744 0 0 0 .929-1.307 12.734 12.734 0 0 1-1.548 1.306 2.84 2.84 0 0 1-1.483.61c-.284.024-.674-.324-.2-.773a10.292 10.292 0 0 0 1.84-1.628c.506-.652.773-1.183.608-1.173s-.436.415-1.09.717c-.624.289-1.409.2-1.543-.163s.081-.232.678-.628z" class="cls-29" data-name="Trazado 1027" transform="translate(-1033.464 -299.934)"/>
                    <path id="Trazado_1028" d="M1059.31 311.623s.14.288.7.315c1.049.052 2.277-1.9 1.432-3.22a1.369 1.369 0 0 0-2.108-.042z" class="cls-29" data-name="Trazado 1028" transform="translate(-1033.416 -300.15)"/>
                    <path id="Trazado_1029" d="M1060.252 331.024c-.309.587-.155 1.384.5 2.722a33.854 33.854 0 0 1 2.5 5.92c-.085.361-.959 1.205-4.55 1.618-4.384.5-9.845-2.292-9.362-5.764.295-1.853.987-3.31 1.2-5.139s9.712.643 9.712.643z" class="cls-34" data-name="Trazado 1029" transform="translate(-1033.655 -299.637)"/>
                    <path id="Trazado_1030" d="M1057.106 301.372a6.106 6.106 0 0 1 2.673 1.185s.153-.969-1.268-1.376a1.549 1.549 0 0 0-1.405.191z" class="cls-34" data-name="Trazado 1030" transform="translate(-1033.469 -300.319)"/>
                    <path id="Trazado_1031" d="M1057.912 304.489a8.621 8.621 0 0 0-.4 3.636 11.523 11.523 0 0 1-2.941 0 8.576 8.576 0 0 1 .017-3.137 9.483 9.483 0 0 0-.654 2.984 4.165 4.165 0 0 1-2.278-.424 6.266 6.266 0 0 1 .286-2.385 4.566 4.566 0 0 0-.731 2.278 2 2 0 0 1-1.145-.583c-.45-.5.434-5.662 4.722-5.361z" class="cls-43" data-name="Trazado 1031" transform="translate(-1033.639 -300.31)"/>
                </g>
                <g id="Grupo_256" data-name="Grupo 256" transform="translate(0 31.006)">
                    <g id="Grupo_255" data-name="Grupo 255">
                        <path id="Trazado_1032" d="M1034.511 340.806l8.4-4.85a.485.485 0 0 1 .483 0l14.736 8.508-8.641 4.989z" class="cls-44" data-name="Trazado 1032" transform="translate(-1032.304 -330.495)"/>
                        <path id="Trazado_1033" d="M1049.525 348.68l4.531-2.613-13.249-7.65-4.555 2.6z" class="cls-45" data-name="Trazado 1033" transform="translate(-1032.263 -330.435)"/>
                        <path id="Trazado_1034" d="M1051.539 341.394l-.084.048-2.221 1.282-3.95-2.281-.082-.047 2.3-1.33z" class="cls-46" data-name="Trazado 1034" transform="translate(-1032.049 -330.419)"/>
                        <path id="Trazado_1035" d="M1051.453 341.44l-2.221 1.282-3.95-2.281 2.222-1.282z" class="cls-45" data-name="Trazado 1035" transform="translate(-1032.047 -330.417)"/>
                        <path id="Trazado_1036" d="M1058.131 344.349v.2a.811.811 0 0 1-.4.7l-7.832 4.521a.816.816 0 0 1-.81 0l-14.168-8.18a.812.812 0 0 1-.406-.7v-.2l14.978 8.648z" class="cls-47" data-name="Trazado 1036" transform="translate(-1032.304 -330.381)"/>
                        <path id="Trazado_1037" d="M1049.489 349.339v.539a.8.8 0 0 1-.4-.108l-14.168-8.18a.812.812 0 0 1-.406-.7v-.2z" class="cls-45" data-name="Trazado 1037" transform="translate(-1032.304 -330.381)"/>
                        <path id="Trazado_1038" d="M1049.312 349.7a.959.959 0 0 1-.826-.065l-14.107-8.144a.965.965 0 0 1-.467-.671l-1.544-9.21a1.024 1.024 0 0 1-.012-.158.956.956 0 0 1 .284-.682l14.659 8.464a.715.715 0 0 1 .345.5z" class="cls-44" data-name="Trazado 1038" transform="translate(-1032.356 -330.617)"/>
                        <path id="Trazado_1039" d="M1049.534 349.579l-.1.055a1.063 1.063 0 0 1-.132.064l-1.669-9.967a.715.715 0 0 0-.345-.5l-14.659-8.464a.952.952 0 0 1 .2-.149l14.69 8.481a.711.711 0 0 1 .344.5z" class="cls-47" data-name="Trazado 1039" transform="translate(-1032.349 -330.621)"/>
                        <path id="Trazado_1040" d="M1041.216 341a3.115 3.115 0 0 0-1.422-1.829c-.682-.394-1.151-.213-1.048.4a3.12 3.12 0 0 0 1.422 1.83c.682.399 1.151.213 1.048-.401z" class="cls-45" data-name="Trazado 1040" transform="translate(-1032.204 -330.422)"/>
                    </g>
                </g>
            </g>
        </g>
        <g id="Grupo_260" data-name="Grupo 260" transform="translate(1119.899 194.85)">
            <ellipse id="Elipse_162" cx="18.98" cy="10.952" class="cls-18" data-name="Elipse 162" rx="18.98" ry="10.952" transform="translate(3.597 74.375)"/>
            <g id="Grupo_259" data-name="Grupo 259">
                <path id="Trazado_1041" d="M1136.34 236.588a19.524 19.524 0 0 1 2.179-1.113 4.414 4.414 0 0 0 1.868-1.011c.7-.618 1.9-3.023 2.8-5.383a24.636 24.636 0 0 0 1.319-8.284c-.166-3.379-1.148-8.142-1.361-10.091a3.077 3.077 0 0 1 1.385-3.359c1.1-.786 2.538-.346 3.185 2.405a52.345 52.345 0 0 1 1.178 11.57 26.232 26.232 0 0 1-1.728 8.423 30.651 30.651 0 0 1-3.56 6.511c-.4.607-.549 1.157-1.177 2.406a8.649 8.649 0 0 1-2.639 3.174c-.982.636-1.436.71-1.652.567-.27-.179-.2-.478.216-.819a7.117 7.117 0 0 0 1.784-1.814s-.871.793-1.435 1.22a7.02 7.02 0 0 1-1.633.933c-.568.217-1.315-.29-.905-.644s.824-.518 1.649-1.164a7 7 0 0 0 1.182-1.166 13.206 13.206 0 0 1-1.814 1.053 2.936 2.936 0 0 1-1.623.354c-.294-.027-.629-.452-.062-.823a10.657 10.657 0 0 0 2.171-1.329c.634-.573 1-1.066.832-1.085s-.519.343-1.241.533c-.688.181-1.472-.051-1.544-.445s-.053-.322.626-.619z" class="cls-29" data-name="Trazado 1041" transform="translate(-1112.501 -192.571)"/>
                <path id="Trazado_1042" d="M1143.65 206.592a2.536 2.536 0 0 1 3.228.975c.854 1.414 1.74 6.263 1.819 7.09a3.415 3.415 0 0 1-2.992 1.378z" class="cls-41" data-name="Trazado 1042" transform="translate(-1112.299 -192.586)"/>
                <path id="Trazado_1043" d="M1144.579 270.405a12.133 12.133 0 0 0 .259 1.42c.15.616.181 1.42-.512 1.642a1.69 1.69 0 0 1-1.93-.451 13.009 13.009 0 0 0-1.646-2.407 5.681 5.681 0 0 1-2-2.6c-.251-1-.091-1.631.6-1.731a5.129 5.129 0 0 1 2.938 1.117 26.71 26.71 0 0 1 2.291 3.01z" class="cls-31" data-name="Trazado 1043" transform="translate(-1112.419 -191.156)"/>
                <path id="Trazado_1044" d="M1135.028 276.023s.05.8.1 1.433a6.087 6.087 0 0 1 .07 2.116c-.2.469-1.248.816-2.478.806a5.982 5.982 0 0 0-2.886 1.084 4.535 4.535 0 0 1-3.63.619c-1.057-.332-2.227-.82-2.4-1.307s.373-.728 2.95-1.91 4.478-1.995 5.479-3.356z" class="cls-31" data-name="Trazado 1044" transform="translate(-1112.774 -190.936)"/>
                <path id="Trazado_1045" d="M1145.411 257.542a29.786 29.786 0 0 0-1.134-5.376s.343-4.639.507-9.037c.178-4.751.474-10.7.558-11.886l-15.4 3.425s.969 18.414 1.137 20.826.22 4.056.415 8.721c.163 3.924.587 12.35.587 12.35a3.5 3.5 0 0 0 2.8.514s2.484-11.247 2.378-14.03a21.524 21.524 0 0 0-.777-5.378s.714-5.186.953-9.125.491-5.83.547-7.544l.307-.163s.313 6.794.481 9.207.525 4.726 1.175 9.207c.563 3.888 2.032 11.894 2.032 11.894a2.614 2.614 0 0 0 2.808.094s1.065-10.326.626-13.699z" class="cls-12" data-name="Trazado 1045" transform="translate(-1112.627 -191.992)"/>
                <path id="Trazado_1046" d="M1137.8 240.856a29.561 29.561 0 0 0 5.19-3.485 11.825 11.825 0 0 1-3.717 3.515s-.75 8.441-.747 8.273l-.433-8.315z" class="cls-32" data-name="Trazado 1046" transform="translate(-1112.439 -191.846)"/>
                <path id="Trazado_1047" d="M1132.722 198.482c.586-2.875 2.777-4.968 5.755-4.657a5.747 5.747 0 0 1 2.417 10.625 5.863 5.863 0 0 1-.523 1.244c-1.116 1.185-4.347 1.793-5.259 1.617a2.737 2.737 0 0 1-2.283-2.063c-.88-2.321-.421-5.348-.107-6.766z" class="cls-29" data-name="Trazado 1047" transform="translate(-1112.569 -192.886)"/>
                <path id="Trazado_1048" d="M1136.02 207.042s.158.881.267 1.445.066.864-1.059 1.556 1.7 2.117 3.547 1.977 3.922-1.253 4.492-2.448c.635-1.331.578-2.9-.227-2.861-1.172.057-2.045.359-2.192.013a15.134 15.134 0 0 1-.266-1.833z" class="cls-29" data-name="Trazado 1048" transform="translate(-1112.506 -192.621)"/>
                <path id="Trazado_1049" d="M1141.489 204.645a6.264 6.264 0 0 0 2.095-4.485 5.768 5.768 0 0 0-5.139-6.335 4.969 4.969 0 0 0-4.768 2.251 3.2 3.2 0 0 0 .54.749 1.358 1.358 0 0 0 .2 1.257 1.713 1.713 0 0 1 .357 1.4 7.732 7.732 0 0 0-.086 1.8 1.637 1.637 0 0 0 .867 1.214 7.738 7.738 0 0 1 .431-1.967 1.086 1.086 0 0 1 1.963.1 2.749 2.749 0 0 1-.114 2.352c-.26.794-1.018.488-1.262.678a1.379 1.379 0 0 0 .983 1.894 4.318 4.318 0 0 0 3.06-.306 5.48 5.48 0 0 0 .873-.602z" class="cls-40" data-name="Trazado 1049" transform="translate(-1112.537 -192.886)"/>
                <path id="Trazado_1050" d="M1134.287 196.848a3.649 3.649 0 0 1-2.861-1.423c-1.363-1.562-.6-3.01 1.052-2.357s4.4.284 5.793.141 5.087.607 4.7 3.6z" class="cls-40" data-name="Trazado 1050" transform="translate(-1112.608 -192.907)"/>
                <path id="Trazado_1051" d="M1141.221 206.837c.081.368.137 1.238-2.065 1.931s-2.793.372-2.793.372a43.3 43.3 0 0 0-4.282 2.206c-1.322.924-1.908 3.6-2.087 8.114-.206 5.225-.224 14.459-.05 15.8a7.988 7.988 0 0 0 5.633 2.2c3.162-.26 8.482-3.058 9.773-5.22-.036-4.581-.571-6.809.17-9.448 1.7-6.043 2.592-8.516 1.767-12.53-.681-3.31-1.634-3.722-2.942-3.689s-3.124.264-3.124.264z" class="cls-34" data-name="Trazado 1051" transform="translate(-1112.629 -192.581)"/>
                <path id="Trazado_1052" d="M1115.216 236.486a19.679 19.679 0 0 1 2.419-.363 4.412 4.412 0 0 0 2.092-.366c.857-.366 2.764-2.265 4.359-4.218a24.653 24.653 0 0 0 3.878-7.438c.914-3.257 1.495-8.085 1.911-10a3.079 3.079 0 0 1 2.38-2.747c1.289-.4 2.517.477 2.258 3.292a52.349 52.349 0 0 1-2.553 11.345 26.244 26.244 0 0 1-4.311 7.44 30.591 30.591 0 0 1-5.442 5.044c-.573.45-.888.925-1.88 1.91a8.659 8.659 0 0 1-3.509 2.174c-1.133.291-1.588.216-1.747.013-.2-.255-.037-.517.465-.709a7.118 7.118 0 0 0 2.267-1.154s-1.077.475-1.747.7a7.087 7.087 0 0 1-1.845.366c-.608.026-1.155-.692-.654-.9s.946-.229 1.933-.581a6.96 6.96 0 0 0 1.493-.731 13.228 13.228 0 0 1-2.055.423 2.941 2.941 0 0 1-1.651-.179c-.27-.119-.453-.627.2-.8a10.664 10.664 0 0 0 2.48-.57c.783-.343 1.289-.693 1.133-.766s-.6.161-1.345.112c-.71-.046-1.38-.515-1.323-.911s.056-.319.794-.386z" class="cls-29" data-name="Trazado 1052" transform="translate(-1113.03 -192.469)"/>
                <path id="Trazado_1053" d="M1132.8 210.862c-1.733-.256-2.958.525-3.724 3.15s-1.3 4.779-1.3 4.779a4.713 4.713 0 0 0 2.9 1.929c2.073.5 2.818-.488 2.818-.488s.575-2.752.935-4.625.512-4.428-1.629-4.745z" class="cls-41" data-name="Trazado 1053" transform="translate(-1112.678 -192.48)"/>
                <path id="Trazado_1054" d="M1137.735 210.075s-1.428-1.186-2.214-.777l-1.585.906s1.551.191 1.927 1.106c0 0 1.575-.144 1.872-1.235z" class="cls-48" data-name="Trazado 1054" transform="translate(-1112.531 -192.518)"/>
                <path id="Trazado_1055" d="M1144.072 208.807s-.371-1.974-1.328-2.157a3.333 3.333 0 0 0-1.789.186 7.378 7.378 0 0 1 .921 2.007z" class="cls-48" data-name="Trazado 1055" transform="translate(-1112.363 -192.58)"/>
                <path id="Trazado_1056" d="M1142.132 208.506c-2.776.766-6.147 1.965-6.874 3.748s-2.089 13.086-.412 15.3a6.37 6.37 0 0 0 5.521 2.744c1.811-.061 7.127-2.313 8.542-4.9s-.388-18.653-6.777-16.892z" class="cls-12" data-name="Trazado 1056" transform="translate(-1112.528 -192.538)"/>
                <path id="Trazado_1057" d="M1140.992 222.614l.44 4.738c.085.906 5.345-1.4 6.425-3.032.7-1.056.173-4.329-.025-5.025s-6.213 2.134-6.84 3.319z" class="cls-11" data-name="Trazado 1057" transform="translate(-1112.362 -192.28)"/>
                <path id="Trazado_1058" d="M1135.449 211.814a2.3 2.3 0 0 0-.19.36c-.726 1.785-2.089 13.086-.412 15.3a6.646 6.646 0 0 0 3.4 2.48c1.313.2 1.963-.884 1.9-2.48a109.508 109.508 0 0 0-1.524-11.631c-.747-3.743-2.163-4.427-3.174-4.029z" class="cls-11" data-name="Trazado 1058" transform="translate(-1112.528 -192.458)"/>
                <path id="Trazado_1059" d="M1138.52 215.774c.088.811.742 2.109 3.381 1.541s5.055-1.688 5.762-2.639c0 0-.427 1.618-3.643 2.878s-5.291 1.076-5.5-1.78z" class="cls-48" data-name="Trazado 1059" transform="translate(-1112.422 -192.387)"/>
            </g>
        </g>
        <g id="Grupo_264" data-name="Grupo 264" transform="translate(888.949 314.683)">
            <ellipse id="Elipse_163" cx="17.99" cy="10.381" class="cls-1" data-name="Elipse 163" rx="17.99" ry="10.381" transform="translate(0 75.533)"/>
            <g id="Grupo_263" data-name="Grupo 263" transform="translate(5.028)">
                <path id="Trazado_1060" d="M910.022 316.824a3.552 3.552 0 0 0 .714-3.776 4.953 4.953 0 0 0-6.069-2.928c-2.433.539-4.465 1.329-4.463 3.289z" class="cls-49" data-name="Trazado 1060" transform="translate(-892.187 -309.947)"/>
                <path id="Trazado_1061" d="M904.067 352.671a19.739 19.739 0 0 0-2-1.412 4.414 4.414 0 0 1-1.706-1.265 12.916 12.916 0 0 1-2.73-5.182 19.045 19.045 0 0 1-.3-7.245c.645-3.321 2.295-7.9 2.783-9.8a3.08 3.08 0 0 0-.892-3.522c-.975-.935-2.464-.7-3.5 1.927a52.455 52.455 0 0 0-2.812 11.285 17.694 17.694 0 0 0 .82 7.536 42.649 42.649 0 0 0 2.846 6.255 17.687 17.687 0 0 1 1.166 2.607 8.653 8.653 0 0 0 2.159 3.517c.882.768 1.321.906 1.553.8.294-.138.266-.444-.1-.842a7.129 7.129 0 0 1-1.508-2.049s.749.908 1.246 1.412a7.032 7.032 0 0 0 1.485 1.155c.531.3 1.342-.1.987-.509s-.742-.63-1.466-1.386a6.994 6.994 0 0 1-1.005-1.323 13.3 13.3 0 0 0 1.646 1.3 2.946 2.946 0 0 0 1.556.582c.294.015.686-.357.177-.807a10.634 10.634 0 0 1-1.959-1.623c-.546-.658-.841-1.2-.67-1.194s.465.414 1.152.7c.656.277 1.465.16 1.592-.22s.113-.307-.52-.697z" class="cls-29" data-name="Trazado 1061" transform="translate(-892.363 -309.617)"/>
                <g id="Grupo_261" data-name="Grupo 261" transform="translate(.638 13.923)">
                    <path id="Trazado_1062" d="M899.038 323.6c1.4.224 1.733 1.231 1.446 3.444a56.248 56.248 0 0 1-2.042 7.465s-.694.525-2.676.049a6.758 6.758 0 0 1-2.667-1.075s1.3-5.072 2.027-6.953 1.659-3.289 3.912-2.93z" class="cls-13" data-name="Trazado 1062" transform="translate(-892.995 -323.545)"/>
                    <path id="Trazado_1063" d="M898.677 333.582a9.032 9.032 0 0 1-2.643-.1 7.631 7.631 0 0 1-2.7-1.088l-.334 1.127a5.869 5.869 0 0 0 2.747 1.107c2 .4 2.652-.036 2.652-.036z" class="cls-12" data-name="Trazado 1063" transform="translate(-892.997 -323.334)"/>
                </g>
                <path id="Trazado_1064" d="M908.4 392.009s.007.835-.043 1.573c-.054.8-.189 2.036.634 2.436a2.138 2.138 0 0 0 2.5-.134 18.4 18.4 0 0 1 2.835-2.459 7.158 7.158 0 0 0 2.955-2.877c.49-1.206.316-2.214-.436-2.655-1.071-.627-4.3 2.372-5.075 1.88s-3.37 2.236-3.37 2.236z" class="cls-31" data-name="Trazado 1064" transform="translate(-891.993 -308.088)"/>
                <path id="Trazado_1065" d="M896.256 351.459l8.041 26.777 4.386 14.64s2.107.647 3.22-2.286l-2.065-16.954-2.269-18.62z" class="cls-41" data-name="Trazado 1065" transform="translate(-892.281 -308.956)"/>
                <path id="Trazado_1066" d="M904.11 377.719l4.386 14.64s2.107.647 3.22-2.286l-2.065-16.954z" class="cls-42" data-name="Trazado 1066" transform="translate(-892.094 -308.439)"/>
                <path id="Trazado_1067" d="M902.493 396.775c-1.151-.175-1.943-4.458-1.588-5.771l-2.843-1.362a5.051 5.051 0 0 1-2 1.217 2.486 2.486 0 0 0-.583.376 1.69 1.69 0 0 0 .041 2.288c.255.373.568.686.854 1.033a12.946 12.946 0 0 1 1.556 2.239c.48 1.019.772 2.581 2.34 2.922a3.52 3.52 0 0 0 2.122-.281 10.522 10.522 0 0 0 1.937-1.145c.371-.47-.168-1.678-1.836-1.516z" class="cls-31" data-name="Trazado 1067" transform="translate(-892.31 -308.044)"/>
                <path id="Trazado_1068" d="M896.265 351.575c-.862-3.542-.062-5.179-.129-4.939l15.391 5.452c.281 5.852 1.148 12.017.717 20.839-.118 2.415-3.274 6.611-5.792 10.251s-5.587 9.092-5.587 9.092a2.519 2.519 0 0 1-2.956-1.456s2.677-7.484 3.528-10.136c1.861-5.8 4.364-7.494 4.364-7.494s-.5-2.405-1.03-5.382c-.617-3.494-1.944-10.233-1.944-10.233s-5.699-2.454-6.562-5.994z" class="cls-41" data-name="Trazado 1068" transform="translate(-892.291 -309.071)"/>
                <path id="Trazado_1069" d="M905.2 370.239l-2.422-13.161a18.482 18.482 0 0 1-4.774-2.658c.541 1.158 2.069 2.087 3.407 3.262 1.138.998 3.789 12.557 3.789 12.557z" class="cls-42" data-name="Trazado 1069" transform="translate(-892.239 -308.885)"/>
                <path id="Trazado_1070" d="M909.937 316.077c-.48-2.895-2.593-5.065-5.581-4.864a5.748 5.748 0 0 0-2.805 10.529 5.85 5.85 0 0 0 .478 1.262c1.072 1.225 4.279 1.95 5.2 1.808a2.74 2.74 0 0 0 2.358-1.978c.959-2.287.613-5.327.35-6.757z" class="cls-29" data-name="Trazado 1070" transform="translate(-892.216 -309.917)"/>
                <path id="Trazado_1071" d="M906.264 324.51s-.19.874-.32 1.434-.1.861 1 1.594-1.778 2.053-3.617 1.845-3.873-1.4-4.4-2.61c-.586-1.355-.473-2.919.331-2.85 1.169.1 2.03.433 2.19.092a14.988 14.988 0 0 0 .334-1.821z" class="cls-29" data-name="Trazado 1071" transform="translate(-892.226 -309.654)"/>
                <path id="Trazado_1072" d="M900.448 321.875c-.968-1.9-1.411-2.3-1.746-4.137-.347-1.9-.1-4.147 1.538-4.363a5.754 5.754 0 0 1 4.125-2.162 4.968 4.968 0 0 1 4.682 2.426 3.138 3.138 0 0 1-.566.728 1.359 1.359 0 0 1-.251 1.249 1.716 1.716 0 0 0-.409 1.388 7.664 7.664 0 0 1 .019 1.8 1.635 1.635 0 0 1-.91 1.182 7.791 7.791 0 0 0-.358-1.982 1.087 1.087 0 0 0-1.966.024 2.317 2.317 0 0 0 .028 2.355c.595 1.162 1.237.724 1.237.724.237.2-.563 2.574-1.18 2.966-1.1.7-2.44-.206-3.069-.562a7.154 7.154 0 0 1-1.174-1.636z" class="cls-49" data-name="Trazado 1072" transform="translate(-892.226 -309.917)"/>
                <path id="Trazado_1073" d="M901.337 324.115c-.354.8.021 1.448 2.2 2.221s2.511.27 2.511.27a43.45 43.45 0 0 1 4.2 2.362c1.287.972 1.775 3.665 1.788 8.185.014 5.229-.305 14.458-.528 15.787a8.77 8.77 0 0 1-5.579 1.327c-3.15-.375-8.822-3.537-10.033-5.744.03-4.242.131-7.428.091-9.153-.146-6.275-1.251-7.767-.28-11.749.8-3.283 1.684-4.145 2.99-4.064a11.135 11.135 0 0 1 2.64.558z" class="cls-34" data-name="Trazado 1073" transform="translate(-892.304 -309.622)"/>
                <path id="Trazado_1074" d="M923.816 355.866a19.579 19.579 0 0 0-2.359-.649 4.418 4.418 0 0 1-2.033-.612c-.808-.464-2.474-2.577-3.826-4.707a24.662 24.662 0 0 1-2.966-7.847c-.52-3.342-.522-8.205-.708-10.158a3.079 3.079 0 0 0-2.034-3.01c-1.234-.548-2.557.175-2.634 3a52.407 52.407 0 0 0 1.186 11.569 26.221 26.221 0 0 0 3.4 7.9 30.622 30.622 0 0 0 4.8 5.656c.515.514.771 1.023 1.639 2.119a8.664 8.664 0 0 0 3.219 2.573c1.09.424 1.551.4 1.732.221.228-.229.1-.509-.377-.759a7.122 7.122 0 0 1-2.114-1.416s1.014.6 1.652.905a7.03 7.03 0 0 0 1.789.583c.6.1 1.229-.549.756-.813s-.912-.341-1.85-.807a6.97 6.97 0 0 1-1.394-.9 13.281 13.281 0 0 0 1.99.664 2.942 2.942 0 0 0 1.661.018c.282-.086.524-.569-.106-.819a10.6 10.6 0 0 1-2.394-.862c-.737-.433-1.2-.841-1.035-.895s.578.231 1.323.271c.711.039 1.431-.347 1.422-.747s-.013-.324-.739-.478z" class="cls-29" data-name="Trazado 1074" transform="translate(-892.019 -309.499)"/>
                <g id="Grupo_262" data-name="Grupo 262" transform="translate(14.788 18.975)">
                    <path id="Trazado_1075" d="M908.841 328.5c1.416-.125 2.713.41 3.193 2.588a56.19 56.19 0 0 1 .614 7.716s-.475.73-2.5.954a6.76 6.76 0 0 1-2.874-.105s-.5-5.213-.454-7.228.522-3.797 2.021-3.925z" class="cls-13" data-name="Trazado 1075" transform="translate(-906.817 -328.479)"/>
                    <path id="Trazado_1076" d="M912.615 337.824a9 9 0 0 1-2.52.8 7.611 7.611 0 0 1-2.912-.106l.069 1.176a5.865 5.865 0 0 0 2.959.108c2.02-.3 2.483-.933 2.483-.933z" class="cls-12" data-name="Trazado 1076" transform="translate(-906.808 -328.256)"/>
                </g>
                <path id="Trazado_1077" d="M904.174 327.463s1.739-.981 2.508-.544l1.5.844s-1.772.1-2.181 1c-.001.003-1.57-.199-1.827-1.3z" class="cls-48" data-name="Trazado 1077" transform="translate(-892.092 -309.544)"/>
                <path id="Trazado_1078" d="M897.872 325.971s.788-2.143 1.752-2.29a2.223 2.223 0 0 1 1.652.432 6.331 6.331 0 0 0-1.21 1.975z" class="cls-48" data-name="Trazado 1078" transform="translate(-892.243 -309.619)"/>
                <path id="Trazado_1079" d="M900.116 325.744c2.746.867 6.071 2.188 6.732 4s1.608 13.154-.149 15.306a6.369 6.369 0 0 1-5.616 2.539c-1.808-.128-7.038-2.572-8.358-5.205s1.075-18.635 7.391-16.64z" class="cls-12" data-name="Trazado 1079" transform="translate(-892.374 -309.574)"/>
                <path id="Trazado_1080" d="M900.54 339.882s-.5 3.817-.612 4.719-5.291-1.6-6.31-3.265c-.659-1.08-.014-4.332.209-5.021s6.132 2.359 6.713 3.567z" class="cls-11" data-name="Trazado 1080" transform="translate(-892.351 -309.32)"/>
                <path id="Trazado_1081" d="M906.461 329.288a2.313 2.313 0 0 1 .176.368c.661 1.809 1.609 13.154-.149 15.306a6.642 6.642 0 0 1-3.488 2.352c-1.319.154-1.929-.955-1.81-2.547a109.546 109.546 0 0 1 1.949-11.568c.885-3.718 2.325-4.346 3.322-3.911z" class="cls-11" data-name="Trazado 1081" transform="translate(-892.164 -309.488)"/>
                <path id="Trazado_1082" d="M903.3 333.138c-.118.807-.82 2.081-3.435 1.416s-4.99-1.873-5.662-2.847c0 0 .367 1.631 3.534 3.01s5.254 1.268 5.563-1.579z" class="cls-48" data-name="Trazado 1082" transform="translate(-892.33 -309.427)"/>
            </g>
        </g>
        <g id="Grupo_266" data-name="Grupo 266" transform="translate(825.213 260.273)">
            <ellipse id="Elipse_164" cx="17.99" cy="10.381" class="cls-1" data-name="Elipse 164" rx="17.99" ry="10.381" transform="translate(0 78.784)"/>
            <g id="Grupo_265" data-name="Grupo 265" transform="translate(7.324)">
                <path id="Trazado_1083" d="M844 257.485a2.867 2.867 0 0 0-2.388-.653c-2.437.283-3.856 2.046-3.749 6.69s.245 7.506-.006 8.479 2.522 3.159 4.861 2.131S844 257.485 844 257.485z" class="cls-39" data-name="Trazado 1083" transform="translate(-832.236 -256.805)"/>
                <path id="Trazado_1084" d="M844.157 257.262a5.726 5.726 0 0 0-2.683 1.563 2.366 2.366 0 0 1 1.377-1.6 1.475 1.475 0 0 1 1.306.037z" class="cls-41" data-name="Trazado 1084" transform="translate(-832.15 -256.797)"/>
                <path id="Trazado_1085" d="M864.308 298.018a18.437 18.437 0 0 0-2.344-.661 7.683 7.683 0 0 1-2.3-.532c-.795-.327-2.594-2.331-3.976-4.442a24.626 24.626 0 0 1-3.07-7.77 58 58 0 0 1-.622-10.146c.1-2.05-.792-2.908-1.848-3.36-1.24-.53-2.141-.134-2.179 2.692a52.89 52.89 0 0 0 1.122 11.78 25.037 25.037 0 0 0 3.368 7.82 31.332 31.332 0 0 0 4.833 5.737c.523.507.785 1.012 1.669 2.1a8.671 8.671 0 0 0 3.261 2.53c1.1.408 1.556.382 1.735.2.225-.232.091-.51-.388-.754a7.122 7.122 0 0 1-2.133-1.385s1.022.586 1.664.882a7.051 7.051 0 0 0 1.8.558c.6.089 1.22-.567.744-.824s-.916-.329-1.861-.781a7 7 0 0 1-1.407-.883 13.3 13.3 0 0 0 2 .636 2.954 2.954 0 0 0 1.661 0c.281-.09.516-.576-.118-.818a10.64 10.64 0 0 1-2.406-.828c-.742-.423-1.209-.824-1.047-.881s.582.223 1.327.253c.712.029 1.426-.367 1.411-.768s-.169-.212-.896-.355z" class="cls-29" data-name="Trazado 1085" transform="translate(-831.995 -256.468)"/>
                <path id="Trazado_1086" d="M850.389 271.017a2.944 2.944 0 0 1 1.752 2.83c.092 1.661.37 5.351.37 5.351s-1.077 1.631-4.368.862c0-.155-.429-5.744-.088-7.46s.797-2.137 2.334-1.583z" class="cls-13" data-name="Trazado 1086" transform="translate(-831.996 -256.471)"/>
                <path id="Trazado_1087" d="M843.1 334.72a11.253 11.253 0 0 1-.454 1.314 5.77 5.77 0 0 0-.51 2.077c.036.51 1.094 1.384 1.858 1.6a4.93 4.93 0 0 1 2.207 1.859 4.529 4.529 0 0 0 3.22 1.786c1.108.038 2.373-.036 2.7-.437s.036-.948-2-2.916-3.425-3.182-3.917-4.8z" class="cls-31" data-name="Trazado 1087" transform="translate(-832.134 -254.945)"/>
                <path id="Trazado_1088" d="M839.972 340.619a3.965 3.965 0 0 0-.571 2.6 14.464 14.464 0 0 1-.179 3.621 6.607 6.607 0 0 0 1.159 4.019 1.7 1.7 0 0 0 2.94-.485 6.836 6.836 0 0 0 .3-4.322c-.389-1.527.128-2.691-.128-3.714a8.836 8.836 0 0 0-.617-1.724z" class="cls-31" data-name="Trazado 1088" transform="translate(-832.204 -254.804)"/>
                <path id="Trazado_1089" d="M837.918 296.34c-1.118 4.8.361 12.4.6 16.338s.59 8.522.59 8.522a30.356 30.356 0 0 0-1.146 7.355c.063 3.4 2.051 13.139 2.051 13.139a2.684 2.684 0 0 0 2.9 0s.506-8.424.968-12.325c.483-4.073.645-7.045 1.065-9.427.524-2.968 1.4-16.55 1.4-16.55l.463.133 1.078 13.351a19.834 19.834 0 0 0-2.1 4.776c-.623 2.412-2.579 14-2.579 14a2.483 2.483 0 0 0 3.1.487s6.6-15.67 7.429-17.1c.884-1.529 1.017-19.3-.4-23.49z" class="cls-29" data-name="Trazado 1089" transform="translate(-832.244 -255.88)"/>
                <path id="Trazado_1090" d="M842.556 267.16s.251 4.513.169 4.843-1.774.648-2.25 1.04 2.439 4.979 3.926 5.66 6.1-1.034 6.428-3.326c.3-2.11-1.309-3.757-1.928-4.331a9.455 9.455 0 0 0-1.272-.036l-.128-2.189c-2.016-.647-4.945-1.661-4.945-1.661z" class="cls-29" data-name="Trazado 1090" transform="translate(-832.175 -256.557)"/>
                <path id="Trazado_1091" d="M841.962 272.351c-1.269.19-2.72.863-2.921 1.557a14.971 14.971 0 0 0 .34 7.532 48.062 48.062 0 0 0 2.993 6.132 12.158 12.158 0 0 0 9.23-1.231 29.318 29.318 0 0 0 .475-4.027c4.091-3.549.616-7.95-2.832-11.372a7.242 7.242 0 0 0-1.245-.019 8.5 8.5 0 0 1 1.889 2.555 2.325 2.325 0 0 1-.965 3.171c-1.605.708-2.779.277-4.135-1.187-.924-.996-1.363-2.285-2.829-3.111z" class="cls-30" data-name="Trazado 1091" transform="translate(-832.216 -256.468)"/>
                <path id="Trazado_1092" d="M847.555 270.594l-.1-1.772-1.435-.47-3.51-1.192.066 1.416s.143 1.543 2.691 2.747c.445.212 2.145.377 2.288-.729z" class="cls-33" data-name="Trazado 1092" transform="translate(-832.125 -256.557)"/>
                <path id="Trazado_1093" d="M851.011 261.839c-.445-2.9-2.533-5.1-5.524-4.93a5.744 5.744 0 0 0-2.922 10.5 5.786 5.786 0 0 0 .457 1.268c1.058 1.237 3.867 2.028 4.795 2.043.8.012 1.5-.735 2.254-1.979a9.911 9.911 0 0 0 .94-6.902z" class="cls-29" data-name="Trazado 1093" transform="translate(-832.184 -256.802)"/>
                <path id="Trazado_1094" d="M850.579 259.5a5.7 5.7 0 0 0-5.974-2.476 5.826 5.826 0 0 0-4.637 5.03 5.912 5.912 0 0 0 2.6 5.349c-.063-.2-1.577-2.449-.025-2.948a1.883 1.883 0 0 1 .323 1.182s.77-.072.6-.974q-.072-.378-.134-.69a2.661 2.661 0 0 1 .441-2 2.321 2.321 0 0 0 .408-1.883 7.718 7.718 0 0 0 4.376.339 3.988 3.988 0 0 0 2.022-.929z" class="cls-39" data-name="Trazado 1094" transform="translate(-832.186 -256.802)"/>
                <path id="Trazado_1095" d="M842.562 267.24s-.139.288-.7.315c-1.048.052-2.276-1.9-1.43-3.22a1.368 1.368 0 0 1 2.107-.043z" class="cls-29" data-name="Trazado 1095" transform="translate(-832.181 -256.637)"/>
                <path id="Trazado_1096" d="M842.083 286.641c.309.587.356 1.228-.675 2.721s-3.116 4.732-3.5 7.222a8.16 8.16 0 0 0 5.565 3.238c5.134.813 8.966-1.443 10.176-2.759a34.686 34.686 0 0 0-.966-6.051 41.25 41.25 0 0 1-1.06-5.015c-.217-1.829-9.54.644-9.54.644z" class="cls-30" data-name="Trazado 1096" transform="translate(-832.235 -256.124)"/>
                <path id="Trazado_1097" d="M842.409 287.369s5.842 2.894 9.5-.355c0 0 3.595 11.625 4.646 18.581 0 0-2.329 4.767-11.642 4.037-9.551-.748-12.543-7.394-12.543-7.394 2.747-7.32 8.998-11.361 10.039-14.869z" class="cls-30" data-name="Trazado 1097" transform="translate(-832.367 -256.084)"/>
                <path id="Trazado_1098" d="M847.658 270.927s1.846 1.006 2.284 4.217a31.143 31.143 0 0 1-1.075 8.631c-2.409 8.572-3.969 11.625-3.969 11.625l1.033.539a105.752 105.752 0 0 0 4.446-14.254c1.158-5.866.917-9.117-1.651-10.779a3.445 3.445 0 0 0-1.068.021z" class="cls-41" data-name="Trazado 1098" transform="translate(-832.068 -256.469)"/>
                <path id="Trazado_1099" d="M837.344 292.791c1.106-.767 8.21 2.1 8.846 2.628s1.714 6.3 1.661 7.351-1.355 1.956-2.862 2.313-8.247-1.639-10.35-3.688 2.284-8.31 2.705-8.604z" class="cls-41" data-name="Trazado 1099" transform="translate(-832.326 -255.949)"/>
                <path id="Trazado_1100" d="M845.573 295.128c-.589-.043-1.649 5.315-2.046 6.9s-.207 3.546 2.027 2.748c1.146-.443 2.031-1.2 2.076-2.062.053-1.053-1.025-6.821-1.661-7.351a2.8 2.8 0 0 0-.396-.235z" class="cls-50" data-name="Trazado 1100" transform="translate(-832.105 -255.89)"/>
                <path id="Trazado_1101" d="M841.9 297.316a18.431 18.431 0 0 0-1.893-1.532 4.6 4.6 0 0 1-1.771-1.594 19.007 19.007 0 0 1-1.753-5.682 7.6 7.6 0 0 1 1.342-6.057c2.017-3.069 3.053-4.243 4-5.671.91-1.377.905-2.821.113-3.652-.931-.977-2.483-.441-4 1.626a32.572 32.572 0 0 0-4.324 6.8c-.767 1.7-1.374 3.376-.726 7.145a28.733 28.733 0 0 0 2.124 6.871c.281.673.323 1.241.708 2.585a8.675 8.675 0 0 0 2 3.61c.847.808 1.28.964 1.517.865.3-.125.286-.432-.059-.846a7.119 7.119 0 0 1-1.414-2.114s.708.941 1.182 1.466a7.021 7.021 0 0 0 1.431 1.221c.517.319 1.344-.04 1.009-.464s-.713-.663-1.4-1.452a7 7 0 0 1-.945-1.366 13.263 13.263 0 0 0 1.587 1.372 2.94 2.94 0 0 0 1.528.651c.294.029.7-.326.214-.8a10.677 10.677 0 0 1-1.884-1.71c-.516-.682-.786-1.235-.615-1.222s.446.434 1.119.756c.643.307 1.456.225 1.6-.148s-.075-.239-.69-.658z" class="cls-29" data-name="Trazado 1101" transform="translate(-832.361 -256.426)"/>
                <path id="Trazado_1102" d="M841.819 272.878c-.709-.539-1.887-.5-3.362.9a30.488 30.488 0 0 0-3.5 4.7 3.816 3.816 0 0 0 3.845 2.842s1.1-1.776 2.14-3.143 1.591-2.269 1.631-3.226a2.358 2.358 0 0 0-.754-2.073z" class="cls-13" data-name="Trazado 1102" transform="translate(-832.305 -256.429)"/>
            </g>
        </g>
        <g id="Grupo_276" data-name="Grupo 276" transform="translate(1040.113 111.5)">
            <ellipse id="Elipse_165" cx="18.98" cy="10.952" class="cls-18" data-name="Elipse 165" rx="18.98" ry="10.952" transform="translate(0 94.81)"/>
            <g id="Grupo_275" data-name="Grupo 275" transform="translate(4.014)">
                <path id="Trazado_1103" d="M1049.954 128.27s-1.034-.187-1.958 1.419-.586 6.14-1.157 8.914-1.9 4.34-2.378 6.59.281 6.024 5.7 6.707 9.6-1.208 10.885-2.933 1.325-5.4 0-7.378-2.329-3.586-2.289-6.156z" class="cls-51" data-name="Trazado 1103" transform="translate(-1038.898 -111.1)"/>
                <path id="Trazado_1104" d="M1067.014 120.63a7.767 7.767 0 0 1 1.2 2.036c.31.8-.065 3.561-.982 5.912a22.4 22.4 0 0 1-2.574 5.14 55.841 55.841 0 0 1-6.609 7.261 1.536 1.536 0 0 1-1.383.5 4.88 4.88 0 0 0 .222 3.156c.389 1.044 2.643 3.1 2.987 1.442.081-.392.105-1.384.466-1.718a49.153 49.153 0 0 0 7.666-8.564 19.731 19.731 0 0 0 2.488-5.457 24.293 24.293 0 0 0 1.027-7.544c.007-.728.192-1.268.368-2.654a8.656 8.656 0 0 0-.415-4.107c-.46-1.075-.8-1.39-1.053-1.392-.325 0-.433.285-.279.8a7.131 7.131 0 0 1 .466 2.5s-.28-1.145-.508-1.814a7.037 7.037 0 0 0-.834-1.685c-.349-.5-1.251-.494-1.11.029s.394.89.718 1.887a6.984 6.984 0 0 1 .33 1.628 13.2 13.2 0 0 0-.917-1.887 2.945 2.945 0 0 0-1.148-1.2c-.258-.141-.773.024-.511.649a10.63 10.63 0 0 1 1.058 2.313c.206.83.236 1.445.084 1.366" class="cls-29" data-name="Trazado 1104" transform="translate(-1038.608 -111.438)"/>
                <path id="Trazado_1105" d="M1056.341 140.946a12.457 12.457 0 0 0 4.7-4.98c.889-1.615 1.588-4.137 3.935-3.124a2.946 2.946 0 0 0 3.453 1.852 6.131 6.131 0 0 1 .214 2.83c-.264 1.5-4.556 5.887-8.658 7.31-.005.001-4.734-.934-3.644-3.888z" class="cls-52" data-name="Trazado 1105" transform="translate(-1038.615 -110.996)"/>
                <path id="Trazado_1106" d="M1055.5 206.326a11.089 11.089 0 0 1-.255 1.366 5.8 5.8 0 0 0-.2 2.13c.112.5 1.286 1.207 2.076 1.312a4.932 4.932 0 0 1 2.457 1.512 4.532 4.532 0 0 0 3.448 1.291c1.1-.127 2.342-.387 2.607-.832s-.1-.943-2.413-2.587-3.858-2.642-4.584-4.167z" class="cls-31" data-name="Trazado 1106" transform="translate(-1038.643 -109.236)"/>
                <path id="Trazado_1107" d="M1048.041 210.522a3.961 3.961 0 0 0-.571 2.6 14.419 14.419 0 0 1-.179 3.621 6.613 6.613 0 0 0 1.159 4.019 1.7 1.7 0 0 0 2.94-.485 6.828 6.828 0 0 0 .3-4.322c-.388-1.526.128-2.691-.128-3.713a8.727 8.727 0 0 0-.618-1.724z" class="cls-31" data-name="Trazado 1107" transform="translate(-1038.828 -109.136)"/>
                <path id="Trazado_1108" d="M1045.987 166.242c-1.118 4.8.361 12.4.6 16.338s.59 8.522.59 8.522a30.325 30.325 0 0 0-1.145 7.355c.062 3.4 2.05 13.14 2.05 13.14a2.686 2.686 0 0 0 2.9 0s.506-8.425.968-12.326c.483-4.073.645-7.045 1.065-9.427.524-2.968 1.4-16.55 1.4-16.55l.463.133 1.392 15.639a11.876 11.876 0 0 0-1.037 4.061c0 2.491.491 14.174.491 14.174a2.836 2.836 0 0 0 3.139.024s2.505-16.03 2.86-17.912c.327-1.735 1.1-19.769-.313-23.963z" class="cls-29" data-name="Trazado 1108" transform="translate(-1038.868 -110.212)"/>
                <path id="Trazado_1109" d="M1050.625 137.062s.251 4.513.169 4.844-1.774.647-2.25 1.039 2.439 4.979 3.927 5.661 6.1-1.035 6.427-3.327c.3-2.11-1.308-3.757-1.927-4.331a9.472 9.472 0 0 0-1.273-.036l-.128-2.189c-2.016-.647-4.945-1.661-4.945-1.661z" class="cls-29" data-name="Trazado 1109" transform="translate(-1038.799 -110.89)"/>
                <path id="Trazado_1110" d="M1050.031 142.253c-1.269.191-2.719.863-2.921 1.557a14.976 14.976 0 0 0 .34 7.533 48.286 48.286 0 0 0 2.993 6.131 12.159 12.159 0 0 0 9.23-1.231 29.3 29.3 0 0 0 .475-4.027c4.091-3.549.616-7.949-2.832-11.372a7.241 7.241 0 0 0-1.245-.019 8.505 8.505 0 0 1 1.889 2.555 2.325 2.325 0 0 1-.966 3.171c-1.6.707-2.779.279-4.135-1.187-.923-.996-1.359-2.285-2.828-3.111z" class="cls-34" data-name="Trazado 1110" transform="translate(-1038.839 -110.8)"/>
                <path id="Trazado_1111" d="M1051.02 141.818s1.624 1.858 3.556 1.8c0 0 1.713 2.582 1.713 2.442s-.389-2.826-.389-2.826a2.785 2.785 0 0 0 .025-2.413 3.788 3.788 0 0 1 1.577.02 16.3 16.3 0 0 1 3.449 3.489 7.413 7.413 0 0 1 1.235 5.506 6.264 6.264 0 0 1-1.29 2.391s1.755 12.01 2.469 17.219-.055 27.585 0 31.04c-2.324 4.877-11.906 8.693-15.689 8.8s-9.2-1.752-8.606-4.689 2.8-26.511 3.894-32.7 4.931-10.8 5.756-11.891 1.541-1.7.989-3.214-2.7-5.394-3.1-7.313-.953-4.77.363-5.977a9.881 9.881 0 0 1 4.048-1.684z" class="cls-25" data-name="Trazado 1111" transform="translate(-1039.025 -110.802)"/>
                <path id="Trazado_1112" d="M1055.624 140.5l-.1-1.772-1.435-.47-3.51-1.192s.04.816.066 1.416c0 0 .143 1.543 2.691 2.747.445.208 2.145.371 2.288-.729z" class="cls-33" data-name="Trazado 1112" transform="translate(-1038.749 -110.89)"/>
                <path id="Trazado_1113" d="M1059.08 131.741c-.445-2.9-2.533-5.1-5.524-4.93a5.745 5.745 0 0 0-2.922 10.5 5.778 5.778 0 0 0 .457 1.268c1.058 1.237 3.867 2.028 4.795 2.043.8.012 1.5-.735 2.254-1.979a9.911 9.911 0 0 0 .94-6.902z" class="cls-29" data-name="Trazado 1113" transform="translate(-1038.808 -111.134)"/>
                <path id="Trazado_1114" d="M1054.063 129.709a4.772 4.772 0 0 0 2.685 2.72c2.075.822 2.671.381 2.671.381s.661-2.361-.69-3.424-4.666.323-4.666.323z" class="cls-51" data-name="Trazado 1114" transform="translate(-1038.666 -111.082)"/>
                <path id="Trazado_1115" d="M1058.871 129.937a5.645 5.645 0 0 0-10.526.947 5.757 5.757 0 0 0 2.289 6.424c-.064-.2-1.577-2.449-.024-2.948.024.216.057 1.018.137 1.524 0 0 .762.055.737-.9-.007-.256-.053-.69-.049-.9a2.774 2.774 0 0 1 .386-1.753 3.3 3.3 0 0 0 .355-.874 2.691 2.691 0 0 1 1.649-1.775c.763-.253 1.808-.186 2.945 1.091 1.155-1.833 1.716-1.221 2.101-.836z" class="cls-51" data-name="Trazado 1115" transform="translate(-1038.808 -111.136)"/>
                <path id="Trazado_1116" d="M1050.631 137.142s-.139.288-.7.315c-1.048.052-2.277-1.9-1.431-3.22a1.369 1.369 0 0 1 2.108-.043z" class="cls-29" data-name="Trazado 1116" transform="translate(-1038.805 -110.969)"/>
                <path id="Trazado_1117" d="M1051.116 167.668a18.269 18.269 0 0 0-1.987-1.406 4.615 4.615 0 0 1-1.871-1.477 19.055 19.055 0 0 1-2.113-5.559 7.6 7.6 0 0 1 .949-6.131c1.816-3.191 2.775-4.43 3.623-5.916.819-1.433.722-2.873-.123-3.652-.991-.915-2.12-.877-3.5 1.282a38.4 38.4 0 0 0-4.261 7.666c-.656 1.749-1.155 3.458-.266 7.177a28.79 28.79 0 0 0 2.562 6.721c.324.652.4 1.216.872 2.533a8.654 8.654 0 0 0 2.227 3.475c.9.752 1.338.88 1.568.766.291-.144.257-.449-.113-.84a7.106 7.106 0 0 1-1.547-2.02s.767.895 1.274 1.388a7.03 7.03 0 0 0 1.506 1.126c.536.286 1.339-.126.977-.528s-.753-.615-1.493-1.358a7.007 7.007 0 0 1-1.031-1.3 13.157 13.157 0 0 0 1.672 1.269 2.948 2.948 0 0 0 1.567.551c.295.009.679-.371.162-.81a10.6 10.6 0 0 1-1.989-1.585c-.559-.647-.864-1.182-.693-1.18s.473.4 1.165.682c.661.265 1.468.132 1.587-.251s-.086-.244-.724-.623z" class="cls-29" data-name="Trazado 1117" transform="translate(-1038.975 -110.749)"/>
                <g id="Grupo_273" data-name="Grupo 273" transform="translate(6.023 8.663)">
                    <g id="Grupo_267" data-name="Grupo 267" transform="translate(3.497 2.019)">
                        <path id="Trazado_1118" d="M1048.323 129.224v-4.157a2.654 2.654 0 0 1 1.575-2.225 8.409 8.409 0 0 1 7.609 0 2.656 2.656 0 0 1 1.575 2.225v4.141a2.663 2.663 0 0 1-1.576 2.216 8.409 8.409 0 0 1-7.609 0 2.675 2.675 0 0 1-1.576-2.191v-.008z" class="cls-25" data-name="Trazado 1118" transform="translate(-1048.323 -121.932)"/>
                        <path id="Trazado_1119" d="M1048.323 129.224v-4.157a2.654 2.654 0 0 1 1.575-2.225 8.409 8.409 0 0 1 7.609 0 2.656 2.656 0 0 1 1.575 2.225v4.141a2.663 2.663 0 0 1-1.576 2.216 8.409 8.409 0 0 1-7.609 0 2.675 2.675 0 0 1-1.576-2.191v-.008z" class="cls-25" data-name="Trazado 1119" transform="translate(-1048.323 -121.932)"/>
                    </g>
                    <path id="Trazado_1120" d="M1053.785 119.96l8.878 5.126-8.878 5.126-8.878-5.126z" class="cls-25" data-name="Trazado 1120" transform="translate(-1044.907 -119.96)"/>
                    <path id="Trazado_1121" d="M1049.239 127.526l4.372-2.494a.156.156 0 0 1 .156.27l-4.215 2.405z" class="cls-53" data-name="Trazado 1121" transform="translate(-1044.804 -119.84)"/>
                    <path id="Trazado_1122" d="M1062.456 124.966v.366l-8.878 5.126v-.366z" class="cls-54" data-name="Trazado 1122" transform="translate(-1044.7 -119.841)"/>
                    <path id="Trazado_1123" d="M1044.907 124.966v.366l8.878 5.126v-.366z" class="cls-52" data-name="Trazado 1123" transform="translate(-1044.907 -119.841)"/>
                    <path id="Trazado_1124" d="M1059.093 127.291l-5.39 3.661-5.375-3.653 5.376 3.1z" class="cls-53" data-name="Trazado 1124" transform="translate(-1044.826 -119.785)"/>
                    <g id="Grupo_272" data-name="Grupo 272" transform="translate(3.488 4.997)">
                        <g id="Grupo_269" data-name="Grupo 269" transform="translate(0 7.087)">
                            <g id="Grupo_268" data-name="Grupo 268">
                                <path id="Trazado_1125" d="M1048.7 131.763a.531.531 0 0 0 .487 0l.4 2.586c0 .487-1.268.487-1.268 0z" class="cls-27" data-name="Trazado 1125" transform="translate(-1048.314 -131.763)"/>
                            </g>
                            <path id="Trazado_1126" d="M1048.669 133.2l-.08 1.42a.794.794 0 0 1-.078-.033z" class="cls-55" data-name="Trazado 1126" transform="translate(-1048.309 -131.729)"/>
                            <path id="Trazado_1127" d="M1049.254 134.654l-.168-2.3.249 2.274a.505.505 0 0 1-.081.026z" class="cls-55" data-name="Trazado 1127" transform="translate(-1048.296 -131.749)"/>
                            <path id="Trazado_1128" d="M1048.974 134.688h-.08l.041-1.83z" class="cls-55" data-name="Trazado 1128" transform="translate(-1048.3 -131.737)"/>
                        </g>
                        <g id="Grupo_270" data-name="Grupo 270" transform="translate(.477)">
                            <path id="Trazado_1129" d="M1048.937 131.9a.155.155 0 0 0 .156-.156v-3.665a.468.468 0 0 1 .235-.406l4.45-2.538a.156.156 0 0 0-.156-.271l-4.449 2.539a.78.78 0 0 0-.393.677v3.665a.156.156 0 0 0 .157.155z" class="cls-56" data-name="Trazado 1129" transform="translate(-1048.78 -124.841)"/>
                        </g>
                        <g id="Grupo_271" data-name="Grupo 271" transform="translate(.291 6.559)">
                            <path id="Trazado_1130" d="M1049.284 131.59a.343.343 0 1 0-.343.342.343.343 0 0 0 .343-.342z" class="cls-27" data-name="Trazado 1130" transform="translate(-1048.598 -131.247)"/>
                        </g>
                        <path id="Trazado_1131" d="M1048.6 131.608a.267.267 0 0 0 .382.131.284.284 0 0 0 .006-.487.342.342 0 1 1-.388.356z" class="cls-55" data-name="Trazado 1131" transform="translate(-1048.307 -124.688)"/>
                    </g>
                </g>
                <path id="Trazado_1132" d="M1049.183 142.964c-1.207-.435-2.547.434-3.932 2.163s-4.448 5.487-4.991 6.821.849 3.657.849 3.657 1.363-.682 3.808 1.124a2.5 2.5 0 0 0 2.023-.778c1.178-.988 3.007-7.068 3.551-9.045s-.318-3.586-1.308-3.942z" class="cls-52" data-name="Trazado 1132" transform="translate(-1038.998 -110.751)"/>
                <path id="Trazado_1133" d="M1041.088 155.314s.522-.55 2.176 0 1.632 1.124 1.632 1.124a4.029 4.029 0 0 1 0 1.106 5.9 5.9 0 0 0-3.756-.662 2.882 2.882 0 0 1-.052-1.568z" class="cls-54" data-name="Trazado 1133" transform="translate(-1038.978 -110.46)"/>
                <path id="Trazado_1134" d="M1064.766 132.859a2.641 2.641 0 0 0 1.448 1.726 2.436 2.436 0 0 0 2 .126 1.651 1.651 0 0 0 .672-1.2 5.79 5.79 0 0 1-3.551-1.6 2.479 2.479 0 0 0-.569.948z" class="cls-54" data-name="Trazado 1134" transform="translate(-1038.41 -111.012)"/>
                <g id="Grupo_274" data-name="Grupo 274" transform="translate(23.308)">
                    <path id="Trazado_1135" d="M1068.627 119.04a3.674 3.674 0 0 0-1.88 2.87s.779-1.1 1.314-1.111a7.512 7.512 0 0 0 .3 2.054s.271-2.225 1.207-3.049z" class="cls-42" data-name="Trazado 1135" transform="translate(-1061.671 -111.32)"/>
                    <path id="Trazado_1136" d="M1065.17 111.5l-.009.019a1.872 1.872 0 0 0-1.134.287 4.943 4.943 0 0 0-2.237 3.874 1.623 1.623 0 0 0 .567 1.376l-.005.009c.562.516 6.069 2.529 6.069 2.529l2.473-4.319s-4.93-3.816-5.724-3.775z" class="cls-51" data-name="Trazado 1136" transform="translate(-1061.789 -111.5)"/>
                    <path id="Trazado_1137" d="M1067.563 119.147c-.151-.078-.239-.574-.73-1.134-.47-.535-1.25-.781-1.53-.493s-.033.253.365.878a18.189 18.189 0 0 0 1.136 2.153" class="cls-29" data-name="Trazado 1137" transform="translate(-1061.708 -111.359)"/>
                    <path id="Trazado_1138" d="M1069.478 115.185a4.1 4.1 0 0 0-1.854 3.211 1.1 1.1 0 0 0 .658 1.125c.328.146 1.267.749 1.767 1.049 1.024-.591 2.1-3.382 2.1-4.564a8.671 8.671 0 0 1-1.393-.82 1.093 1.093 0 0 0-1.278-.001z" class="cls-41" data-name="Trazado 1138" transform="translate(-1061.65 -111.417)"/>
                    <path id="Trazado_1139" d="M1072.46 116.116a.906.906 0 0 0-.1-.056l-.013-.007a.965.965 0 0 0-1.054.071 4.1 4.1 0 0 0-1.854 3.212 1.278 1.278 0 0 0 .571 1.21 36.666 36.666 0 0 0 3.888 3.575c.646.253 3.506-5.227 3.506-5.227a44.565 44.565 0 0 0-4.944-2.778z" class="cls-51" data-name="Trazado 1139" transform="translate(-1061.606 -111.394)"/>
                    <path id="Trazado_1140" d="M1075.535 118.848a4.944 4.944 0 0 0-2.237 3.874c0 1.427 1 2 2.237 1.292a4.946 4.946 0 0 0 2.236-3.874c0-1.427-1.001-2.004-2.236-1.292z" class="cls-57" data-name="Trazado 1140" transform="translate(-1061.515 -111.332)"/>
                </g>
            </g>
        </g>
    </g>
</svg>
