<svg xmlns="http://www.w3.org/2000/svg" width="474.781" height="463.937" viewBox="0 0 474.781 463.937">
    <defs>
        <style>
            .cls-1{opacity:.882}.cls-2{fill:#fefefe}.cls-11,.cls-14,.cls-29,.cls-3,.cls-33,.cls-4,.cls-40,.cls-41,.cls-42,.cls-46,.cls-48,.cls-49,.cls-5,.cls-50,.cls-52,.cls-53,.cls-6{fill:none}.cls-3,.cls-4{stroke:#54af86;stroke-linejoin:round;stroke-dasharray:3}.cls-3{stroke-linecap:round}.cls-5{stroke:#231f20}.cls-11,.cls-14,.cls-29,.cls-33,.cls-40,.cls-41,.cls-42,.cls-46,.cls-48,.cls-49,.cls-5,.cls-50,.cls-52,.cls-53,.cls-6{stroke-miterlimit:10}.cls-6{stroke:#9b9b9b}.cls-10,.cls-7{fill:#33282d}.cls-12,.cls-8,.cls-9{fill:#44363b}.cls-8{opacity:.34}.cls-14,.cls-17,.cls-20,.cls-27,.cls-37,.cls-40,.cls-41,.cls-44,.cls-47,.cls-48,.cls-8,.cls-9{mix-blend-mode:multiply}.cls-10,.cls-14,.cls-17,.cls-19,.cls-20,.cls-27,.cls-30,.cls-37,.cls-40,.cls-41,.cls-43,.cls-44,.cls-47,.cls-48,.cls-8,.cls-9{isolation:isolate}.cls-9{opacity:.236}.cls-10{opacity:.177}.cls-10,.cls-19,.cls-30,.cls-43{mix-blend-mode:screen}.cls-11{stroke:#f7b228}.cls-11,.cls-42,.cls-48,.cls-53{stroke-width:2px}.cls-13{fill:#54af86}.cls-14{stroke:#6ac9a5}.cls-15{fill:#329666}.cls-16,.cls-17,.cls-19,.cls-20{fill:#f7b228}.cls-17{opacity:.422}.cls-18{fill:#f99f00}.cls-19{opacity:.588}.cls-20{opacity:.584}.cls-21{fill:#6e51e5}.cls-22{fill:#efefef}.cls-23{fill:#6743d6}.cls-24{fill:#f9a40d}.cls-25{fill:#3f8fef}.cls-26{fill:#2a77e8}.cls-27{fill:#534f60;opacity:.35}.cls-28{opacity:.44}.cls-29{stroke:#6743d6;stroke-width:.25px}.cls-30{fill:#57a3ff;opacity:.322}.cls-31{fill:#ead26c}.cls-32{fill:#f4e192}.cls-33{stroke:#f4e192;stroke-width:.5px}.cls-34{fill:#15243e}.cls-35{fill:#f9b589}.cls-36,.cls-44{fill:#e85f43}.cls-37,.cls-43{fill:#ff5342}.cls-37{opacity:.448}.cls-38{fill:#ea3228}.cls-39{fill:#9fd649}.cls-40,.cls-41{stroke:#9fd649}.cls-40{stroke-width:.75px}.cls-42{stroke:#723e2b}.cls-43{opacity:.335}.cls-44{opacity:.326}.cls-45{opacity:.706}.cls-46{stroke:#d68900}.cls-47{opacity:.446}.cls-48{stroke:#231d1f}.cls-49{stroke:#e85f43}.cls-50{stroke:#5b2c06}.cls-51{fill:#fff;opacity:.198}.cls-52,.cls-53{stroke:#fff;opacity:.221}.cls-52{stroke-width:3px}.cls-54{fill:#212121}.cls-55{fill:#535a63}.cls-56{fill:#6ac9a5}.cls-57{fill:#218452}.cls-58{fill:#51b53c}
        </style>
    </defs>
    <g id="Grupo_773" class="cls-1" data-name="Grupo 773">
        <path id="Trazado_1161" d="M600.094 205.047c-.445-.091-.874-.179-1.322-.268.679-.142 1.341-.142 1.322.268z" class="cls-2" data-name="Trazado 1161" transform="translate(-125.313 -122.197)"/>
        <path id="Trazado_1162" d="M614.049 222.005a86.831 86.831 0 0 1-20.849 50.858c-8.228 9.5-18.42 17.07-27.416 25.844s-17.061 19.325-19.239 31.7" class="cls-3" data-name="Trazado 1162" transform="translate(-194.857 -99.144)"/>
        <path id="Trazado_1163" d="M424.951 211.477c-2.087 14.6-4.006 30.309 2.754 43.42 2.737 5.309 6.764 9.865 9.543 15.153 11.012 20.938.669 48.927 13.374 68.884" class="cls-4" data-name="Trazado 1163" transform="translate(-359.376 -113.163)"/>
        <path id="Trazado_1165" d="M531.491 297.878l.429.86" class="cls-6" data-name="Trazado 1165" transform="translate(-214.908 1.892)"/>
        <path id="Trazado_1166" d="M705.814 395.21v-90.657h-281.3v90.675a15.505 15.505 0 0 0-.2 2.413c0 12.621 15.436 24.07 40.48 32.391 21.157 7.072 49.193 11.917 80.528 13.363 6.466.294 13.09.45 19.828.45 77.793 0 140.855-20.689 140.855-46.2a15.737 15.737 0 0 0-.191-2.435z" class="cls-7" data-name="Trazado 1166" transform="translate(-357.627 10.781)"/>
        <path id="Trazado_1167" d="M706.007 356.571c0 25.515-63.062 46.2-140.855 46.2-6.739 0-13.363-.156-19.828-.45-31.335-1.446-59.371-6.291-80.528-13.363-25.044-8.322-40.48-19.77-40.48-32.391a17 17 0 0 1 .2-2.423v-18.749c1.856 11.663 16.86 22.172 40.284 29.948 21.157 7.072 49.193 11.917 80.528 13.363 6.466.294 13.09.45 19.828.45 75.254 0 136.735-19.36 140.661-43.723v18.716a14.475 14.475 0 0 1 .19 2.422z" class="cls-8" data-name="Trazado 1167" transform="translate(-357.627 51.852)"/>
        <path id="Trazado_1168" d="M424.316 335.719a16.684 16.684 0 0 1 .2-2.4v4.845a14.724 14.724 0 0 1-.2-2.445z" class="cls-9" data-name="Trazado 1168" transform="translate(-357.627 49.085)"/>
        <path id="Trazado_1169" d="M545.239 335.731a15.158 15.158 0 0 1-.193 2.481v-4.9a14.653 14.653 0 0 1 .193 2.419z" class="cls-9" data-name="Trazado 1169" transform="translate(-196.859 49.073)"/>
        <path id="Trazado_1170" d="M523.209 438.581c-31.335-1.446-59.371-6.291-80.528-13.363q-.5-32.236-.977-64.47-.409-25.525-.781-51.028l2.579-1.152c11.525-2.189 22.407 5.176 33.681 8.438 11.35 3.264 23.384 2.364 35.185 2.735 2.187.079 4.787.45 5.7 2.423a5.955 5.955 0 0 1 .431 2.346l.937 22.74q1.878 45.656 3.773 91.331z" class="cls-10" data-name="Trazado 1170" transform="translate(-335.513 15.596)"/>
        <path id="Trazado_1171" d="M576.787 293.6c-2.189 24.853.124 66.2-.751 91.14" class="cls-11" data-name="Trazado 1171" transform="translate(-155.886 -3.807)"/>
        <path id="Trazado_1172" d="M705.7 304.553v33.5l-117.919 57.362a11.88 11.88 0 0 1-9.69.331L424.4 333.582v-29.029z" class="cls-9" data-name="Trazado 1172" transform="translate(-357.515 10.781)"/>
        <path id="Trazado_1173" d="M398.509 344.427l208.659-87.586a4.57 4.57 0 0 1 3.395-.054l207.374 79.355a4.56 4.56 0 0 1 .364 8.359l-195.156 94.94a11.945 11.945 0 0 1-9.7.333l-214.88-86.915a4.56 4.56 0 0 1-.056-8.432z" class="cls-12" data-name="Trazado 1173" transform="translate(-395.714 -53.226)"/>
        <path id="Trazado_1174" d="M573.889 204.386c-12.47 13.941-25.413 28.789-29.218 47.1-1.975 9.5-1.329 19.322-1.285 29.031a231.625 231.625 0 0 1-4.3 45.523" class="cls-3" data-name="Trazado 1174" transform="translate(-204.797 -122.606)"/>
        <path id="Trazado_1175" d="M483.324 316.006c-4.391-2.3-9.69-1.073-14.577-.24s-10.651.923-13.932-2.791c-1.749-1.98-2.493-4.775-4.53-6.454-3.46-2.847-8.569-1.157-13.048-1.231a15.875 15.875 0 0 1-13.967-9.338c-1.17-2.7-1.588-5.764-3.306-8.156-2.026-2.821-5.491-4.2-8.844-5.113-2.2-.6-4.509-1.1-6.37-2.425s-3.157-3.777-2.367-5.922a5.446 5.446 0 0 1 2.856-2.842c5.05-2.443 11.045.275 15.634 3.5s9.222 7.184 14.829 7.4c4.614.173 9.1-2.29 13.682-1.711 5.892.746 10.059 6.2 15.645 8.212 2.276.818 4.731 1.045 7 1.877 6.125 2.245 9.8 8.368 12.985 14.062" class="cls-13" data-name="Trazado 1175" transform="translate(-387.149 -34.498)"/>
        <g id="Grupo_745" data-name="Grupo 745" transform="translate(349.898 190.591)">
            <path id="Trazado_1176" d="M556.98 317.223a4.836 4.836 0 0 1 2.171-1.147 33.383 33.383 0 0 0 11.148-5.964 19.981 19.981 0 0 0 6.727-10.541 16.493 16.493 0 0 1 1.154-4.178c1.213-2.273 3.829-3.395 6.321-4.043s5.146-1.021 7.279-2.462a16.591 16.591 0 0 0 3.379-3.383 28.147 28.147 0 0 0 4.862-8.172c.967-2.534 1.282-5.391 2.569-7.816 1.607-3.029 4.458-4.561 7.226-5.605 1.821-.688 3.731-1.266 5.242-2.712a6.5 6.5 0 0 0 1.8-6.309 5.309 5.309 0 0 0-2.467-2.936c-4.283-2.465-9.2.546-12.936 4.062s-7.482 7.806-12.153 8.158c-5.279.4-10.933-4.108-15.41.714a10.537 10.537 0 0 0-1.849 3.358c-1.115 2.782-1.392 5.715-4.171 7.37a12.685 12.685 0 0 1-7.806 1.7 21.748 21.748 0 0 0-4.8-.471c-3.6.415-5.948 3.961-7.261 7.335a36.047 36.047 0 0 0-2.229 9.082" class="cls-13" data-name="Trazado 1176" transform="translate(-545.779 -251.053)"/>
            <path id="Trazado_1177" d="M599.982 253.7l-12.318 7.172a54.045 54.045 0 0 0-5.248 3.33c-5.437 4.064-9.177 10.028-14.41 14.354-1.84 1.523-3.85 2.828-5.647 4.4a25.467 25.467 0 0 0-8.459 16.154" class="cls-14" data-name="Trazado 1177" transform="translate(-534.966 -247.53)"/>
            <path id="Trazado_1178" d="M578.015 259.09c-5.123 4.073-10.511 8.273-16.93 9.536" class="cls-14" data-name="Trazado 1178" transform="translate(-525.397 -240.351)"/>
            <path id="Trazado_1179" d="M565.273 260.405a70.211 70.211 0 0 0-8.925 16.541" class="cls-14" data-name="Trazado 1179" transform="translate(-531.706 -238.6)"/>
        </g>
        <path id="Trazado_1180" d="M471.928 350.193c-9.536.611-22.414-4.577-26.238-14.174-1.455-3.651-1.637-8.06-4.512-10.744-3.288-3.073-8.48-2.425-12.763-3.815a13.692 13.692 0 0 1-9.17-11.274c-.828-7.6 4.456-13.908 6.2-20.961 1.441-5.822.518-12.488-1.721-18.005-4.253-10.483-14.908-20.348-12.689-32.573a7.343 7.343 0 0 1 1.322-3.309c2.18-2.735 6.634-2.159 9.532-.2 10.693 7.233 9.56 26.877 21.936 30.545 3.374 1 7.128.45 10.353 1.858 7.317 3.194 7.3 13.363 10.66 20.6 3.544 7.634 11.5 12.54 14.923 20.232 4.67 10.506-.343 23.081 2.943 34.1" class="cls-15" data-name="Trazado 1180" transform="translate(-375.714 -83.87)"/>
        <path id="Trazado_1181" d="M655.528 339.736c-6.4 15.566-13.547 32.062-27.588 41.345-11.434 7.559-25.66 9.112-39.223 11.1-25.469 3.731-50.8 9.784-74.093 20.74 13.06-24.555 34.07-43.9 57.463-58.939 36.908-23.732 77.306-20.644 84.38-15.9" class="cls-16" data-name="Trazado 1181" transform="translate(-237.369 51.017)"/>
        <path id="Trazado_1182" d="M413.766 236.9a145.3 145.3 0 0 1 14.473 27.273c2.625 6.673 4.656 13.575 7.405 20.2 2.269 5.468 5.015 10.723 7.758 15.969q3.158 6.037 6.312 12.071c3.95 7.554 8.1 15.354 14.85 20.56" class="cls-14" data-name="Trazado 1182" transform="translate(-371.676 -79.309)"/>
        <path id="Trazado_1183" d="M656.471 337.793l-.937 1.662c-6.407 15.55-13.558 32.058-27.583 41.338-11.448 7.559-25.671 9.1-39.23 11.1-25.476 3.731-50.793 9.788-74.1 20.747.352-.683.723-1.348 1.094-2.012 20.337-12.211 42.823-20.67 65.661-27.194 13.186-3.752 27.078-7.151 37.411-16.156a125.834 125.834 0 0 0 27.113-32.297c5.162.585 8.853 1.66 10.571 2.812z" class="cls-17" data-name="Trazado 1183" transform="translate(-237.373 51.3)"/>
        <path id="Trazado_1184" d="M405.265 273.469c2.719-1.038 5.652.665 8.028 2.346 6.962 4.936 13.638 10.383 21.279 14.19 12.281 6.118 26.963 7.986 37.143 17.187" class="cls-14" data-name="Trazado 1184" transform="translate(-382.996 -31.034)"/>
        <g id="Grupo_747" data-name="Grupo 747" transform="translate(320.181 120.418)">
            <path id="Trazado_1185" d="M578.112 295.042a9.843 9.843 0 0 1 2.082 1.952 12.078 12.078 0 0 1 2.469 7.006c.1 4.673-2.313 7.59-4.955 11.064a65.355 65.355 0 0 1-8.014 9.334c-5.109 4.64-10.921 7.967-16.73 11.607-2.332 1.462-7.939 8.352-10.693 6.426a3.9 3.9 0 0 1-1.243-2.2q-1.224-4.054-2.446-8.109c-2.08-6.9-4.167-13.843-5.036-21-.9-7.382-1.327-18.83 4.955-24.147 1.891-1.6 4.111-.991 6.3-2.005 3.267-1.513 3.565-6.258 2.154-9.765s-4.006-6.5-5.211-10.077-.266-8.34 3.25-9.222c2.471-.62 5.064.933 7.648 1.11 4.313.3 7.858-3.4 9.056-7.529s.648-8.623.357-12.992-.238-9 1.97-12.621a5.541 5.541 0 0 1 3.833-2.894c3.192-.375 5.612 3.176 6.673 6.328a42.194 42.194 0 0 1 1.21 20.306 18.981 18.981 0 0 0-.455 5.857 5.708 5.708 0 0 0 3.346 4.659 20.746 20.746 0 0 0 3.535.431c4.076.662 6.654 5.563 6.039 9.627s-3.549 7.263-6.755 9.669c-2.437 1.83-5.167 3.414-6.892 5.943s-2.089 6.421.191 8.692a26.824 26.824 0 0 0 3.362 2.55z" class="cls-15" data-name="Trazado 1185" transform="translate(-533.034 -220.957)"/>
            <g id="Grupo_746" data-name="Grupo 746" transform="translate(18.583 9.508)">
                <path id="Trazado_1186" d="M557.372 225.035a112.646 112.646 0 0 1-.634 29.456c-1.131 6.729-3.882 13.321-5.969 19.81q-2.151 6.687-4.3 13.377a64.5 64.5 0 0 0-2.553 11.651c-1.271 9.352-1.781 18.786-2.912 28.155" class="cls-14" data-name="Trazado 1186" transform="translate(-541.004 -225.035)"/>
                <path id="Trazado_1187" d="M545.263 238.373a53.372 53.372 0 0 0-.739 27.374" class="cls-14" data-name="Trazado 1187" transform="translate(-538.229 -207.274)"/>
                <path id="Trazado_1188" d="M559.4 238.657a59.18 59.18 0 0 1-13.829 13.915" class="cls-14" data-name="Trazado 1188" transform="translate(-534.917 -206.895)"/>
            </g>
        </g>
        <g id="Grupo_748" data-name="Grupo 748" transform="translate(405.614 374.168)">
            <path id="Trazado_1189" d="M584.68 330.22a11.679 11.679 0 1 0 2.091 21.5c5.894-3.117 8.186-11.6 4.57-17.226a10.5 10.5 0 0 0-6.661-4.279" class="cls-18" data-name="Trazado 1189" transform="translate(-569.675 -329.786)"/>
            <path id="Trazado_1190" d="M574.609 331.9c-1.993.921-3.42 2.991-3.155 4.768a2.868 2.868 0 0 0 3.136 2.3 5.746 5.746 0 0 0 4.313-2.623c1.261-2.047.513-4.5-1.544-4.973a4.248 4.248 0 0 0-2.751.527" class="cls-19" data-name="Trazado 1190" transform="translate(-567.348 -327.758)"/>
            <path id="Trazado_1191" d="M586.236 350.566a12.008 12.008 0 0 1-13.283-1.66 11.585 11.585 0 0 1-2.873-4.1 12 12 0 0 0 12.367.9c5.158-2.714 7.559-9.592 5.626-15.041a8.913 8.913 0 0 1 2.735 2.677c3.615 5.622 1.308 14.1-4.572 17.224z" class="cls-20" data-name="Trazado 1191" transform="translate(-569.135 -328.62)"/>
        </g>
        <g id="Grupo_749" data-name="Grupo 749" transform="translate(86.468)">
            <path id="Trazado_1192" d="M456.354 195.275v243.149c-.184.016-.382.016-.567.016a8.414 8.414 0 0 1-.842-.093c-4.083-.627-8.1-3.18-11.852-4.908-2.294-1.056-4.6-2.11-6.9-3.166a5.742 5.742 0 0 1-3.395-5.307V195.275z" class="cls-21" data-name="Trazado 1192" transform="translate(-432.795 -134.739)"/>
            <path id="Trazado_1193" d="M599.083 181.082a1.646 1.646 0 0 1 .049 3.054q-1.234.514-2.465 1.033l-8.032 3.372-12.593 5.288q-8.058 3.386-16.116 6.766c-6.2 2.6 17.247-7.452 11.05-4.85q-10.017 4.2-20.029 8.41-10.213 4.284-20.423 8.573-9.884 4.151-19.772 8.3-9.041 3.795-18.08 7.592c-4.582 1.527-9.077 3.787-13.5 5.717-5.069 2.21-10.285 4.139-15.505 5.88-1.208.4-3.008 1.425-4.269 1.425a10.618 10.618 0 0 1-3.6.751 6.692 6.692 0 0 1-.837-.082c-4.094-.637-8.109-3.183-11.856-4.906l-6.9-3.176a5.848 5.848 0 0 1 .184-10.7l128.586-53.765a5.878 5.878 0 0 1 4.358-.061z" class="cls-22" data-name="Trazado 1193" transform="translate(-432.799 -169.312)"/>
            <path id="Trazado_1194" d="M586.731 175.453v229.614a1.632 1.632 0 0 1-1.01 1.516c-.809.336-1.637.688-2.462 1.04-2.677 1.117-5.353 2.248-8.028 3.365-4.192 1.758-8.4 3.532-12.589 5.29q-8.072 3.372-16.119 6.759a5.049 5.049 0 0 1-.55.215c2.08-.916 10.063-4.358 12.143-5.276a6.028 6.028 0 0 0-.55.215q-10 4.2-20.02 8.413-10.209 4.288-20.432 8.578-9.887 4.155-19.761 8.289-9.062 3.809-18.091 7.6c-4.575 1.53-9.07 3.777-13.491 5.72-5.076 2.2-10.292 4.129-15.508 5.873-1.208.4-3.013 1.422-4.267 1.422a11.784 11.784 0 0 1-3.043.734v-230.5a11.782 11.782 0 0 0 3.043-.734c1.254 0 3.059-1.026 4.267-1.422 5.216-1.744 10.432-3.67 15.508-5.873 4.421-1.942 8.916-4.19 13.491-5.72q9.062-3.809 18.091-7.6 9.887-4.151 19.761-8.289 10.23-4.291 20.432-8.58l20.02-8.41q9.314-3.9 18.6-7.8c3.515-1.492 7.047-2.97 10.565-4.439z" class="cls-23" data-name="Trazado 1194" transform="translate(-419.275 -161.135)"/>
        </g>
        <g id="Grupo_750" data-name="Grupo 750" transform="translate(117.985 43.899)">
            <path id="Trazado_1195" d="M469.871 214.1v213.932c-.184.016-.382.016-.567.016a8.426 8.426 0 0 1-.842-.093c-4.083-.627-8.1-3.18-11.852-4.908-2.294-1.056-4.6-2.11-6.9-3.166a5.746 5.746 0 0 1-3.395-5.307V214.1z" class="cls-16" data-name="Trazado 1195" transform="translate(-446.312 -153.566)"/>
            <path id="Trazado_1196" d="M612.6 199.908a1.645 1.645 0 0 1 .049 3.054L610.184 204l-8.032 3.372-12.593 5.288-16.116 6.766c-6.2 2.6 17.247-7.452 11.05-4.85l-20.029 8.41q-10.213 4.284-20.423 8.573l-19.772 8.3-18.079 7.59c-4.582 1.527-9.077 3.789-13.5 5.717-5.069 2.213-10.287 4.141-15.508 5.883-1.205.4-3.008 1.425-4.267 1.425a10.631 10.631 0 0 1-3.6.751 6.726 6.726 0 0 1-.837-.082c-4.094-.637-8.109-3.185-11.854-4.908q-3.452-1.584-6.9-3.173a5.848 5.848 0 0 1 .184-10.7l128.58-53.772a5.884 5.884 0 0 1 4.36-.063z" class="cls-22" data-name="Trazado 1196" transform="translate(-446.316 -188.14)"/>
            <path id="Trazado_1197" d="M600.248 194.281v200.394a1.632 1.632 0 0 1-1.01 1.516c-.809.336-1.635.688-2.462 1.04-2.674 1.117-5.351 2.248-8.028 3.365-4.19 1.758-8.4 3.532-12.586 5.29q-8.076 3.371-16.121 6.759a4.891 4.891 0 0 1-.55.214c2.08-.916 10.063-4.358 12.143-5.277a6.028 6.028 0 0 0-.55.215q-10 4.2-20.02 8.413-10.209 4.288-20.432 8.578-9.887 4.155-19.761 8.291-9.062 3.805-18.091 7.6c-4.572 1.53-9.07 3.78-13.488 5.722-5.078 2.2-10.294 4.127-15.508 5.871-1.208.4-3.015 1.422-4.267 1.422a11.726 11.726 0 0 1-3.045.734v-201.28a11.92 11.92 0 0 0 3.045-.734c1.252 0 3.059-1.026 4.267-1.422 5.214-1.744 10.43-3.67 15.508-5.873 4.418-1.942 8.916-4.19 13.488-5.72q9.062-3.809 18.091-7.6 9.887-4.151 19.761-8.289 10.23-4.291 20.432-8.58l20.02-8.41q9.314-3.9 18.6-7.8c3.516-1.487 7.048-2.97 10.564-4.439z" class="cls-24" data-name="Trazado 1197" transform="translate(-432.792 -179.962)"/>
        </g>
        <g id="Grupo_753" data-name="Grupo 753" transform="translate(158.796 66.161)">
            <g id="Grupo_751" data-name="Grupo 751">
                <path id="Trazado_1198" d="M487.373 224.091V438.02c-.182.014-.382.014-.564.014a8.433 8.433 0 0 1-.842-.091c-4.083-.627-8.1-3.183-11.852-4.91-2.294-1.054-4.605-2.11-6.9-3.164a5.749 5.749 0 0 1-3.395-5.309V224.091z" class="cls-25" data-name="Trazado 1198" transform="translate(-463.816 -162.527)"/>
                <path id="Trazado_1199" d="M630.1 209.456a1.646 1.646 0 0 1 .049 3.054l-2.467 1.035-8.03 3.372-12.6 5.288-16.114 6.766c-6.2 2.6 17.247-7.452 11.047-4.85l-20.029 8.408q-10.209 4.288-20.421 8.573l-19.772 8.3L523.691 257c-4.582 1.527-9.077 3.789-13.5 5.717-5.069 2.21-10.285 4.141-15.508 5.883-1.205.4-3.006 1.422-4.267 1.422a10.635 10.635 0 0 1-3.6.753 6.275 6.275 0 0 1-.835-.084c-4.094-.637-8.11-3.183-11.857-4.906q-3.448-1.588-6.9-3.173a5.85 5.85 0 0 1 .184-10.707l128.586-53.765a5.89 5.89 0 0 1 4.358-.061z" class="cls-22" data-name="Trazado 1199" transform="translate(-463.819 -197.688)"/>
                <path id="Trazado_1200" d="M617.751 203.838v200.393a1.632 1.632 0 0 1-1.01 1.516c-.811.336-1.637.688-2.462 1.04-2.677 1.117-5.353 2.248-8.03 3.365-4.19 1.758-8.4 3.532-12.586 5.291q-8.076 3.371-16.119 6.759a5.056 5.056 0 0 1-.55.215c2.08-.916 10.063-4.358 12.143-5.277a6.158 6.158 0 0 0-.553.215q-10 4.2-20.02 8.413-10.206 4.288-20.432 8.578-9.888 4.155-19.758 8.291-9.062 3.805-18.094 7.6c-4.572 1.53-9.068 3.78-13.488 5.722-5.076 2.2-10.292 4.129-15.508 5.871-1.208.4-3.012 1.422-4.267 1.422a11.693 11.693 0 0 1-3.043.734V262.705a11.884 11.884 0 0 0 3.043-.734c1.254 0 3.059-1.026 4.267-1.422 5.216-1.744 10.432-3.67 15.508-5.873 4.421-1.942 8.916-4.19 13.488-5.72q9.062-3.809 18.094-7.6 9.887-4.152 19.758-8.289 10.233-4.291 20.432-8.58l20.02-8.41q9.314-3.9 18.6-7.8c3.516-1.487 7.049-2.97 10.567-4.439z" class="cls-26" data-name="Trazado 1200" transform="translate(-450.295 -189.497)"/>
                <path id="Trazado_1201" d="M593.262 215.564v38.241a1.281 1.281 0 0 1-.79 1.187c-.634.263-1.282.539-1.928.814-2.1.874-4.192 1.76-6.288 2.635-3.281 1.378-6.575 2.768-9.858 4.143q-6.323 2.644-12.624 5.3a4.177 4.177 0 0 1-.431.168c1.63-.718 7.881-3.414 9.511-4.132a3.977 3.977 0 0 0-.431.168q-7.834 3.288-15.68 6.587l-16 6.72q-7.743 3.253-15.475 6.491l-14.169 5.953c-3.581 1.2-7.1 2.959-10.565 4.481-3.976 1.723-8.06 3.234-12.146 4.6-.947.312-2.359 1.115-3.341 1.115a9.285 9.285 0 0 1-2.383.576v-38.943a9.287 9.287 0 0 0 2.383-.576c.982 0 2.395-.8 3.341-1.112 4.085-1.366 8.17-2.875 12.146-4.6 3.462-1.52 6.983-3.283 10.565-4.479l14.169-5.953q7.743-3.253 15.475-6.494 8.013-3.358 16-6.72 7.834-3.288 15.68-6.587 7.292-3.053 14.564-6.109c2.754-1.161 5.522-2.322 8.275-3.474z" class="cls-27" data-name="Trazado 1201" transform="translate(-441.393 -173.882)"/>
            </g>
            <g id="Grupo_752" class="cls-28" data-name="Grupo 752" transform="translate(11.781 5.278)">
                <path id="Línea_231" d="M0 52.245L122.075 0" class="cls-29" data-name="Línea 231"/>
                <path id="Línea_232" d="M0 52.246L122.075 0" class="cls-29" data-name="Línea 232" transform="translate(5.385 3.971)"/>
                <path id="Línea_233" d="M0 52.246L122.075 0" class="cls-29" data-name="Línea 233" transform="translate(10.77 7.942)"/>
            </g>
            <path id="Trazado_1202" d="M470.979 235.145a2.018 2.018 0 0 0-.1-.084 1.82 1.82 0 0 0-2.073-.315c-.86.487-1.315 1.751-1.618 2.945-1.714 6.764-1.073 14.018-.958 21.008q.189 11.447.487 22.892c.394 15.261.907 30.512 1.46 45.763q.346 9.608.706 19.215c.152 4.073.443 8.58 2.644 11.369 2.045-1.178 2.371-4.845 2.385-7.848q.245-45.82-.259-91.638c-.042-3.9-.175-7.823-.131-11.726.035-3.281.035-6.566-1.21-9.513a5.825 5.825 0 0 0-1.333-2.068z" class="cls-30" data-name="Trazado 1202" transform="translate(-460.885 -148.607)"/>
        </g>
        <path id="Trazado_1203" d="M496.1 287.19l2.943 93.316L507.38 386l75.76-39.254 5.4-88.553-8.334-5.493z" class="cls-31" data-name="Trazado 1203" transform="translate(-262.031 -58.272)"/>
        <path id="Trazado_1204" d="M499.678 289.724l2.943 93.316 84.093-33.761-2.934-94.046z" class="cls-32" data-name="Trazado 1204" transform="translate(-257.272 -54.896)"/>
        <path id="Trazado_1205" d="M577.095 253.851l-79.643 33.192 2.421 93.458" class="cls-33" data-name="Trazado 1205" transform="translate(-260.236 -56.737)"/>
        <path id="Trazado_1206" d="M578.133 254.889l-79.643 33.192 2.77 92.715" class="cls-33" data-name="Trazado 1206" transform="translate(-258.854 -55.354)"/>
        <path id="Trazado_1207" d="M444.855 256.5a3.608 3.608 0 0 0-2.031 2.129 17.176 17.176 0 0 0-1.644 6.144c-.194 2.567.194 5.179-.277 7.711-.333 1.781-1.082 3.47-1.35 5.263s.07 3.845 1.495 4.964a9.915 9.915 0 0 0 3 1.264 30.98 30.98 0 0 1 6.347 3.635 5.01 5.01 0 0 0 1.9.863 4.947 4.947 0 0 0 2.945-.774 20.055 20.055 0 0 0 6.356-4.843 16.992 16.992 0 0 0 3.528-11.05 31.126 31.126 0 0 0-2.721-11.453 11.235 11.235 0 0 0-1.693-3.02 10.516 10.516 0 0 0-4.806-2.845 7.929 7.929 0 0 0-1.758-.427 7.64 7.64 0 0 0-3.616.772 24.144 24.144 0 0 0-4.952 2.821 6.274 6.274 0 0 0-2.423 2.845" class="cls-34" data-name="Trazado 1207" transform="translate(-337.449 -56.486)"/>
        <path id="Trazado_1208" d="M429.477 328.848c3.029 1.861 6.643-1.175 8.891-3.931l16.06-19.693c4.516-5.54 9.1-11.273 11.936-17.9 1.581-3.7 5.675-15.508-.343-17.189-6.167-1.721-9.149 10-10.977 13.729q-5.4 11-11.42 21.673c-1.106 1.963-13.778 23.535-14.147 23.311z" class="cls-35" data-name="Trazado 1208" transform="translate(-350.755 -35.273)"/>
        <path id="Trazado_1209" d="M457.746 271.93c-.089 1.038-.2 1.931-.233 2.448-1.357 16.158-7.3 31.587-14.16 46.3l-3.124-2.912c-1.215-1.124-2.411-2.25-3.626-3.374a2.288 2.288 0 0 1-.783-1.142 2.191 2.191 0 0 1 .1-1.019c3.518-13.052 7.072-26.159 12.446-38.551.877-2.017 4.3-10.3 7.126-10 2.538.269 2.485 5.02 2.254 8.25z" class="cls-36" data-name="Trazado 1209" transform="translate(-342.345 -43.657)"/>
        <g id="Grupo_755" data-name="Grupo 755" transform="translate(304.793 205.877)">
            <g id="Grupo_754" data-name="Grupo 754" transform="translate(0 9.515)">
                <path id="Trazado_1210" d="M592.083 269.972c-7.237-2.5-15.342-2.789-22.834-2.448-1.453.068-2.905.14-4.358.194-9.138.338-18.578 2.7-25.695 8.093a33.162 33.162 0 0 0-12.752 25.6c-.229 9.471 3.178 18.614 7.96 26.868 3.74 6.452 9.3 12.057 16.48 14.985 12.572 5.13 27.735 3.463 39.752-2.418 11.8-5.771 19.33-16.133 21.773-29 2.518-13.274-.683-28.584-11.782-37.211a29.921 29.921 0 0 0-8.544-4.663z" class="cls-36" data-name="Trazado 1210" transform="translate(-526.434 -254.077)"/>
                <path id="Trazado_1211" d="M599.572 311.708c-2.448 12.857-9.972 23.23-21.768 29-12.017 5.88-27.175 7.543-39.757 2.411a23.023 23.023 0 0 1-1.973-.9 53.322 53.322 0 0 0 26.534-5.37c11.8-5.771 19.341-16.126 21.768-29 2.521-13.279-.674-28.581-11.777-37.2a32.124 32.124 0 0 0-4.913-3.141 47.359 47.359 0 0 1 11.56 2.32 29.89 29.89 0 0 1 8.545 4.656c11.109 8.643 14.301 23.948 11.781 37.224z" class="cls-37" data-name="Trazado 1211" transform="translate(-513.598 -253.935)"/>
                <path id="Trazado_1212" d="M538.09 273.225c-2.306-.2 4.358 1.576 6.685 1.69 2.245.112 6.475.469 8.671-.054 4.841-1.152 7.9-3.288 11.656-6.417-.002.001-19.567 5.431-27.012 4.781z" class="cls-38" data-name="Trazado 1212" transform="translate(-511.55 -252.695)"/>
                <path id="Trazado_1213" d="M543.454 282.77c-.814-3.523-1.07-5.712.084-9.322a15.431 15.431 0 0 1 7.277-8.734c5.122-2.772 10.991-2.956 16.7-2.327a14.069 14.069 0 0 0 6.156-.7c-1.359 3.539-4.561 19.383-30.218 21.08" class="cls-39" data-name="Trazado 1213" transform="translate(-504.699 -261.69)"/>
                <path id="Trazado_1214" d="M543.676 279.648a99.394 99.394 0 0 1 9.791-8c1.429-1.024 12.957-7.347 14.307-8.832" class="cls-40" data-name="Trazado 1214" transform="translate(-503.475 -260.197)"/>
                <path id="Trazado_1215" d="M549.386 267.5c1.753.175 8.277-1.623 9.627-2.548" class="cls-41" data-name="Trazado 1215" transform="translate(-495.871 -257.346)"/>
                <path id="Trazado_1216" d="M546.229 272.766a4.409 4.409 0 0 1 .583-1.968l1.52-3.183a14.48 14.48 0 0 1 2.217-3.663" class="cls-41" data-name="Trazado 1216" transform="translate(-500.077 -258.678)"/>
                <path id="Trazado_1217" d="M545.23 269.262a13.2 13.2 0 0 0 7.513-.55" class="cls-41" data-name="Trazado 1217" transform="translate(-501.405 -252.339)"/>
            </g>
            <path id="Trazado_1218" d="M544.329 287.7a39.476 39.476 0 0 1-.28-26.173 7.722 7.722 0 0 1 2.42-3.915" class="cls-42" data-name="Trazado 1218" transform="translate(-505.767 -257.609)"/>
            <ellipse id="Elipse_166" cx="14.632" cy="20.008" class="cls-43" data-name="Elipse 166" rx="14.632" ry="20.008" transform="translate(7.843 38.355)"/>
        </g>
        <path id="Trazado_1219" d="M455.213 267.214c-.089 1.038-.2 1.931-.233 2.448-1.357 16.158-7.3 31.587-14.16 46.3l-3.124-2.912c3.323-12.32 6.769-24.66 11.856-36.355.732-1.677 3.231-7.695 5.661-9.481z" class="cls-44" data-name="Trazado 1219" transform="translate(-339.811 -38.941)"/>
        <g id="Grupo_756" class="cls-45" data-name="Grupo 756" transform="translate(287.521 393.878)">
            <path id="Trazado_1220" d="M622.391 338.239c-39.573 2.182-79.455 29.178-103.364 60.788" class="cls-46" data-name="Trazado 1220" transform="translate(-519.027 -338.239)"/>
            <path id="Trazado_1221" d="M613.475 341.406c-17.2 4.393-68.152 23.009-94.448 53.4" class="cls-46" data-name="Trazado 1221" transform="translate(-519.027 -334.022)"/>
            <path id="Trazado_1222" d="M618.591 342.937l-51.816 23.748c-12.386 5.675-37.6 17.252-47.748 26.345" class="cls-46" data-name="Trazado 1222" transform="translate(-519.027 -331.983)"/>
            <path id="Trazado_1223" d="M635.959 342.623c-4.815 12.383-24.611 28.761-63.078 36.339-15.27 3.008-39.575 8.3-53.854 14.486" class="cls-46" data-name="Trazado 1223" transform="translate(-519.027 -332.401)"/>
            <path id="Trazado_1224" d="M595.37 348.946a226.421 226.421 0 0 1-27.387 10.975c-10.259 3.353-25.658 8.163-39.531 13.67" class="cls-46" data-name="Trazado 1224" transform="translate(-506.476 -323.981)"/>
        </g>
        <path id="Trazado_1225" d="M576.023 301.781a70.974 70.974 0 0 1 .515 9.054q.413 28.473.315 56.99a4.406 4.406 0 0 1-.075 1c-.126.5-.4.31-.52-.2a9.11 9.11 0 0 1-.145-1.819c-.271-18.45-.24-45.745-.7-64.155a10.894 10.894 0 0 1 0-1.488 1.187 1.187 0 0 1 .142-.564c.082-.077.17.091.212.322s.219.617.256.86z" class="cls-19" data-name="Trazado 1225" transform="translate(-156.458 5.49)"/>
        <g id="Grupo_757" class="cls-47" data-name="Grupo 757" transform="translate(72.478 389.247)">
            <path id="Trazado_1226" d="M426.8 336.253c.427 1.735 2.7 3.36 4.024 4.5a24.121 24.121 0 0 0 2.124 1.693c.455.312 2.334 1.676 1.956 1.261" class="cls-48" data-name="Trazado 1226" transform="translate(-426.799 -336.253)"/>
            <path id="Trazado_1227" d="M432.64 341.186a51.542 51.542 0 0 0 9.238 4.544" class="cls-48" data-name="Trazado 1227" transform="translate(-419.021 -329.684)"/>
            <path id="Trazado_1228" d="M439.538 344.543l3.581 1.387a27.612 27.612 0 0 0 6.3 1.882" class="cls-48" data-name="Trazado 1228" transform="translate(-409.835 -325.214)"/>
            <path id="Trazado_1229" d="M447.278 346.691l3.871 1.191a25.976 25.976 0 0 0 7.62 1.534" class="cls-48" data-name="Trazado 1229" transform="translate(-399.528 -322.353)"/>
            <path id="Trazado_1230" d="M456.43 348.615l3.43.625 1.8.327c2.842.518 5.684 1.035 8.555 1.352" class="cls-48" data-name="Trazado 1230" transform="translate(-387.341 -319.791)"/>
            <path id="Trazado_1231" d="M467.865 350.3l14.43.8" class="cls-48" data-name="Trazado 1231" transform="translate(-372.114 -317.545)"/>
            <path id="Trazado_1232" d="M480.961 351.021a124.824 124.824 0 0 1 14.736.24" class="cls-48" data-name="Trazado 1232" transform="translate(-354.674 -316.739)"/>
            <path id="Trazado_1233" d="M495.375 351.194a87.19 87.19 0 0 0 15.625-.923" class="cls-48" data-name="Trazado 1233" transform="translate(-335.48 -317.586)"/>
            <path id="Trazado_1234" d="M508.539 350.578l3.414-.522c3.437-.525 6.881-1.049 10.264-1.851" class="cls-48" data-name="Trazado 1234" transform="translate(-317.95 -320.338)"/>
            <path id="Trazado_1235" d="M520.781 347.949a15.549 15.549 0 0 0 5.13-.336l4.736-.839c.653-.117 1.306-.233 1.952-.382a19.037 19.037 0 0 0 3.017-.975" class="cls-48" data-name="Trazado 1235" transform="translate(-301.648 -324.05)"/>
            <path id="Trazado_1236" d="M531.59 347.423c2.583-1.632 5.678-2.329 8.219-4.022a28.782 28.782 0 0 1 2.616-1.767" class="cls-48" data-name="Trazado 1236" transform="translate(-287.254 -329.089)"/>
        </g>
        <g id="Grupo_763" data-name="Grupo 763" transform="translate(59.347 189.638)">
            <g id="Grupo_762" data-name="Grupo 762">
                <g id="Grupo_761" data-name="Grupo 761">
                    <g id="Grupo_758" data-name="Grupo 758" transform="translate(19.209 137.884)">
                        <path id="Trazado_1237" d="M464.318 403.463c-.231-.289-.03-.734.189-1.047 1.348-1.9 3.206-3.346 4.8-5.032 1.872-1.982 2.043-3.027.434-5.33-4.785-6.848-20.159-26.777-21.449-28.108-2.672-2.761-5.2-5.652-7.729-8.541q-2.938-3.354-5.871-6.708a36.748 36.748 0 0 1-3.922-5.05 7.866 7.866 0 0 1-1.359-4.244c.138-3.917 4.288-8.191 6.972-10.385 3.453-2.824 8.079-6.906 11.693-9.52 3.924-2.838 7.75-6.435 12.055-8.653 2.217-1.142 3.847 2.122 6.13 1.112 1.157-.511 2.329-.979 3.486-1.49.942-.417 1.721-.928 2.8-.562a5.173 5.173 0 0 1 1.991 1.422c.986 1.024 3.908 4.09 3.185 5.566a11.874 11.874 0 0 1-3.766 3.936 784.591 784.591 0 0 1-7.636 5.705l-6.8 5.036q-2.214 1.64-4.43 3.276-2.812 2.074-5.631 4.132c-.811.595-3.679 3.178-2.889 3.77 2.068 1.551 5.885 6.139 7.617 8.424a89.526 89.526 0 0 1 8.842 14.505c2.863 5.8 9.52 20.71 11.71 26.791.7 1.949-.261.765.711 2.719a3.16 3.16 0 0 1 .354.975c.142 1.112-.877 2-1.8 2.637q-2.7 1.882-5.5 3.621a6.19 6.19 0 0 1-3.616 1.273.8.8 0 0 1-.571-.23z" class="cls-35" data-name="Trazado 1237" transform="translate(-429.406 -309.78)"/>
                        <path id="Trazado_1238" d="M446.048 354.428c-1.25 1.618-2.541 3.323-2.856 5.349a3.114 3.114 0 0 0 .618 2.565 2.028 2.028 0 0 0 2.334.42 16.773 16.773 0 0 0 4.372-1.956 33.564 33.564 0 0 0 5.2-4.372l3.26-3.141c.651-.625 2.187-1.527 2.078-2.583a1.889 1.889 0 0 0-.431-.879 57.179 57.179 0 0 0-3.882-4.738.675.675 0 0 0-1.063.075 3.275 3.275 0 0 1-2.639 1.592 2.66 2.66 0 0 0-.83.079c-.459.168-1.11 1.173-1.448 1.539a31.254 31.254 0 0 0-1.646 1.954c-1.052 1.344-2.025 2.748-3.067 4.096z" class="cls-16" data-name="Trazado 1238" transform="translate(-411.112 -263.055)"/>
                    </g>
                    <path id="Trazado_1239" d="M429.677 390.055c-.1-.357.25-.692.571-.9 1.97-1.252 4.237-1.882 6.349-2.835 2.483-1.126 3.038-2.026 2.423-4.768-1.83-8.149-8.5-32.422-9.184-34.145-1.427-3.565-2.67-7.2-3.913-10.833l-2.887-8.434a36.493 36.493 0 0 1-1.714-6.16 7.858 7.858 0 0 1 .352-4.442c1.611-3.574 7.072-5.953 10.39-6.967 4.265-1.3 10.094-3.325 14.431-4.372 4.705-1.138 9.611-3.015 14.433-3.435 2.486-.214 2.758 3.423 5.251 3.353 1.264-.035 2.528-.021 3.791-.056 1.028-.028 1.945-.205 2.8.541a5.217 5.217 0 0 1 1.3 2.07c.525 1.322 2.068 5.267.837 6.358a11.846 11.846 0 0 1-4.976 2.213c-3.071.821-6.151 1.6-9.231 2.383l-8.2 2.082-5.344 1.35q-3.385.85-6.776 1.688c-.975.242-4.607 1.544-4.1 2.392 1.324 2.22 3.115 7.911 3.854 10.684a89.714 89.714 0 0 1 2.677 16.776 171.743 171.743 0 0 1 .075 19.383c-.091 2.07.068 10.453.224 12.63a3.14 3.14 0 0 1-.04 1.035c-.289 1.084-1.569 1.516-2.665 1.758q-3.214.717-6.463 1.264a6.191 6.191 0 0 1-3.831-.191.812.812 0 0 1-.434-.422z" class="cls-35" data-name="Trazado 1239" transform="translate(-421.167 -181.247)"/>
                    <path id="Trazado_1240" d="M501.583 337.35a14.65 14.65 0 0 1-4.929 3.164c-3.481 1.094-7.23 1.178-10.847 1.247-10.222.2-20.379 1.658-30.6 1.73-6.573.044-17.319.986-19.28-7.424-.3-1.287-.3-2.686-.984-3.819a7.967 7.967 0 0 0-2.234-2.1c-2.01-1.49-5.752-3.649-3.642-6.358 1.623-2.082 5.155-2.84 7.6-3.2 3.262-.487 6.647-.5 9.721-1.7a24.523 24.523 0 0 1 4.477-1.714c1.653-.289 3.465.061 4.941-.737 1.868-1.01 2.413-3.395 2.7-5.5a101.823 101.823 0 0 0 .66-20.71 140.821 140.821 0 0 1 16.7-.933c3.794-.091 7.587-.186 11.378-.322 4.712-.17 10.374.471 14.692-1.287 1.6 4.642 2.222 9.919 3.034 14.759q1.283 7.659 2.038 15.394a39.426 39.426 0 0 1 .091 9.492 14.981 14.981 0 0 1-3.912 8.5 45.338 45.338 0 0 1-1.604 1.518z" class="cls-34" data-name="Trazado 1240" transform="translate(-411.484 -201.315)"/>
                    <path id="Trazado_1241" d="M473.043 301.454c-5.463 3.947-9.585 8.669-16.538 8.466a50.43 50.43 0 0 0-20.353 3.663 3.46 3.46 0 0 0-1.826 1.289 3.591 3.591 0 0 0 .051 2.756c1.436 4.913 2.9 9.891 5.552 14.274 1.108 1.83 2.416 3.546 3.372 5.463 1.3 2.614 1.9 5.512 2.931 8.242a5.949 5.949 0 0 0 1.541 2.528 2.369 2.369 0 0 0 2.765.338 3.921 3.921 0 0 0 1.073-1.406c2.761-4.866 7.179-6.33 11.614-9.212 4.775-3.1 9.781-5.813 14.806-8.485 5.762-3.061 16.315-6.776 18.945-13.451" class="cls-34" data-name="Trazado 1241" transform="translate(-403.992 -182.984)"/>
                    <g id="Grupo_760" data-name="Grupo 760" transform="translate(25.374)">
                        <g id="Grupo_759" data-name="Grupo 759">
                            <path id="Trazado_1242" d="M452.082 252.254c-2.406-1.495-5.629.026-7.506 2.147-3.577 4.038-4.43 9.972-3.283 15.244.564 2.6 1.77 5.323 4.162 6.487a7.009 7.009 0 0 0 6.682-.7 14.878 14.878 0 0 0 4.584-5.23c2.483-4.258 4.006-9.73 1.588-14.025a12.069 12.069 0 0 0-2.266-2.8c-1.329-1.259-3.372-2.346-4.887-1.322z" class="cls-35" data-name="Trazado 1242" transform="translate(-420.376 -249.308)"/>
                            <path id="Trazado_1243" d="M458.038 267.373a1.247 1.247 0 0 0 .28.079c.182.03.371.021.553.051a1.946 1.946 0 0 1 1.364 2.11 10.339 10.339 0 0 1-.783 2.628 8.5 8.5 0 0 0 2.11 8.618 25.2 25.2 0 0 1 1.966 1.826c1.1 1.308 1.455 3.068 2.2 4.61.993 2.073 2.53 3 4.188 4.416 1.7 1.455 2.558 3.717 4.244 5.218 3.206 2.861 8.261 2.611 12.134.744a10.488 10.488 0 0 1 2.863-1.14c1.562-.243 3.1.434 4.565 1.019a25.471 25.471 0 0 0 5.957 1.693 8.412 8.412 0 0 0 4.337-.347 4.17 4.17 0 0 0 2.663-3.236 4.1 4.1 0 0 0-1.949-3.675 7.633 7.633 0 0 0-4.178-1.068 9.449 9.449 0 0 1-2.411-.149c-2.259-.6-3.281-3.124-4.549-5.088a13.6 13.6 0 0 0-9.569-6.03 27.176 27.176 0 0 1-4.162-.525 10.235 10.235 0 0 1-3.919-2.374 20.882 20.882 0 0 1-5.78-8.856 43.821 43.821 0 0 0-4.617-9.9c-1.723-2.719-3.85-5.379-6.825-6.61a11.11 11.11 0 0 0-7-.34 8.623 8.623 0 0 0-3.187 1.355 14.936 14.936 0 0 0-4.864 6.153c-.625 1.411-.807 2.761-2.052 3.815-.408.345-.867.623-1.264.979a3.221 3.221 0 0 0-1.094 3.082 2.162 2.162 0 0 0 2.619 1.569c1.012-.359 1.492-1.525 2.39-2.11 1.205-.786 2.782-.357 4.216-.266a8.441 8.441 0 0 0 5.584-1.684c.476-.359 3.479-3.479 3.36-1.481-.058.944-.441 1.847-.483 2.793a2.182 2.182 0 0 0 1.093 2.121z" class="cls-34" data-name="Trazado 1243" transform="translate(-422.567 -250.644)"/>
                            <path id="Trazado_1244" d="M452.221 268.907s-2-5.23-2.171-8.457c-.128-2.439-3.518 1.746-4.962 3.714-.315 3.514-.317 8.026-.63 11.539-.033.364-.128 1.007-.124 1.371 0 .154.035.35.184.389a.37.37 0 0 0 .294-.1 44.588 44.588 0 0 1 7.384-4.39 5.439 5.439 0 0 0 2.033-1.334c.517-.639-.129-1.97-2.008-2.732z" class="cls-35" data-name="Trazado 1244" transform="translate(-415.691 -238.575)"/>
                            <path id="Trazado_1245" d="M488.383 331.06a5.144 5.144 0 0 1-1.212.287 20.687 20.687 0 0 1-6.072-.59c-5.892-1.108-11.714-2.642-17.606-3.784a145.631 145.631 0 0 0-14.93-2.054c-.874-.072-1.749-.233-2.623-.322a5.965 5.965 0 0 0-4.367.728c-.77.532-1.558 1.5-2.488.235a3.836 3.836 0 0 1-.4-2.686c.352-3.367.954-6.7 1.555-10.038 2.166-12 4.335-24 7.254-35.842.737-2.98 1.875-5.848 2.621-8.8.459-1.812.916-4.178 3.215-3.518a18.649 18.649 0 0 0 2.572.59 5.851 5.851 0 0 0 4.91-1.982.414.414 0 0 1 .18-.126c.035-.019.089 0 .142 0 .839.18 1.66.375 2.5.553a5.49 5.49 0 0 1 2.963 1.322 1.952 1.952 0 0 1 .18.233 7.372 7.372 0 0 1 .625 1.105c0 .215.3.625.392.823.161.322.322.641.483.982.3.625.59 1.25.893 1.875a28.4 28.4 0 0 0 1.821 2.607 56.5 56.5 0 0 1 3.537 6.233 95.827 95.827 0 0 1 4.75 11.945c3.945 11.733 7.893 23.5 10.516 35.607.501 2.35 1.144 3.757-1.411 4.617z" class="cls-36" data-name="Trazado 1245" transform="translate(-423.294 -233.998)"/>
                            <path id="Trazado_1246" d="M480.5 329.851a5.143 5.143 0 0 1-1.212.287 20.687 20.687 0 0 1-6.072-.59c-5.892-1.108-11.714-2.642-17.606-3.784q-3.267-.626-6.559-1.1c-.585-.084-4.432-.163-4.481-.315a1.3 1.3 0 0 1 .366-1.084q1.231-1.682 2.3-3.467a47.368 47.368 0 0 0 6.5-19.607c.21-2.1.049-4.178.7-6.151a87.97 87.97 0 0 0 4.458-29.99 7.367 7.367 0 0 1 .625 1.105c0 .215.3.625.392.823.161.322.322.641.483.982.3.625.59 1.25.893 1.875a28.412 28.412 0 0 0 1.821 2.607 56.492 56.492 0 0 1 3.537 6.233 95.824 95.824 0 0 1 4.75 11.945c3.945 11.733 7.893 23.5 10.516 35.607.505 2.358 1.148 3.773-1.411 4.624z" class="cls-44" data-name="Trazado 1246" transform="translate(-415.415 -232.79)"/>
                            <path id="Trazado_1247" d="M434.328 358.806c-3.369-3.085-2.465-9.956-.721-13.6 2-4.171 5.433-5.852 9.175-8.1 47.314-28.418 33.562-48.932 30.96-56.3-1.69-4.787-3.353-9.093-5.043-13.88 1.1-1.756 3.663-1.066 5.463-.042a9.488 9.488 0 0 1 3.691 4.852c2.064 4.971 2.621 10.422 2.987 15.792q.458 6.656.574 13.325.059 3.337.033 6.671a27.582 27.582 0 0 0-.049 3.341 25.151 25.151 0 0 1 .513 2.616c.049 2.693-2 4.549-3.712 6.44a78.936 78.936 0 0 1-15.809 13.594 56.3 56.3 0 0 1-9.355 4.945c-2.991 1.2-6.235 2.369-8.483 4.8-3.4 3.677-5.5 8.361-7.126 13.1a5.784 5.784 0 0 1-1.154 2.252 1.9 1.9 0 0 1-2.313.427c.316-.583.055.352.369-.233z" class="cls-35" data-name="Trazado 1247" transform="translate(-432.05 -230.395)"/>
                        </g>
                    </g>
                    <path id="Trazado_1249" d="M428.188 340.723c-1.858.853-3.791 1.765-5.011 3.416a3.112 3.112 0 0 0-.641 2.558c.266 1.047 1.089 1.289 1.875 1.453a16.789 16.789 0 0 0 4.78.294 33.585 33.585 0 0 0 6.638-1.462q2.168-.637 4.341-1.271c.867-.254 2.649-.34 3.038-1.327a1.906 1.906 0 0 0 .028-.979 57.721 57.721 0 0 0-1.245-6 .673.673 0 0 0-.977-.427 3.277 3.277 0 0 1-3.078.187 2.6 2.6 0 0 0-.772-.315 6.7 6.7 0 0 0-2 .692c-.8.287-1.588.618-2.364.97-1.551.705-3.061 1.498-4.612 2.211z" class="cls-16" data-name="Trazado 1249" transform="translate(-419.44 -135.851)"/>
                    <path id="Trazado_1250" d="M452.284 263.74c-3.539 1.117-5.5 6.083-5.7 9.446-.215 3.663.767 7.279 1.742 10.819l3.239 11.773a46.552 46.552 0 0 1 1.441 6.41c.536 4.213-.093 8.476-.564 12.7a1.6 1.6 0 0 0 .14 1.1 1.505 1.505 0 0 0 .767.487 30.645 30.645 0 0 0 8.6 1.434c.186-.009.324.226.511.2.2-.035.322-.24.41-.427 2.772-5.878 3.5-13.44 3.614-19.859a52.934 52.934 0 0 0-.926-11.714q-.948-4.61-1.9-9.222c-.557-2.709-1.131-5.713-2.663-8.074-1.8-2.797-4.995-6.245-8.711-5.073z" class="cls-36" data-name="Trazado 1250" transform="translate(-387.362 -233.518)"/>
                </g>
            </g>
        </g>
        <g id="Grupo_764" data-name="Grupo 764" transform="translate(96.242 5.974)">
            <path id="Línea_234" d="M0 52.245L122.075 0" class="cls-29" data-name="Línea 234"/>
            <path id="Línea_235" d="M0 52.245L122.075 0" class="cls-29" data-name="Línea 235" transform="translate(5.385 3.971)"/>
            <path id="Línea_236" d="M0 52.246L122.075 0" class="cls-29" data-name="Línea 236" transform="translate(10.77 7.942)"/>
        </g>
        <g id="Grupo_765" data-name="Grupo 765" transform="translate(129.904 50.349)">
            <path id="Línea_237" d="M0 52.246L122.075 0" class="cls-29" data-name="Línea 237"/>
            <path id="Línea_238" d="M0 52.245L122.075 0" class="cls-29" data-name="Línea 238" transform="translate(5.385 3.971)"/>
            <path id="Línea_239" d="M0 52.245L122.075 0" class="cls-29" data-name="Línea 239" transform="translate(10.77 7.942)"/>
        </g>
        <path id="Trazado_1251" d="M411.774 274.092c.023-.131-.252-.121-.219.009" class="cls-50" data-name="Trazado 1251" transform="translate(-374.625 -29.906)"/>
        <path id="Trazado_1252" d="M404.357 255.049c.205 12.983-.35 23.648 10.1 31.356 2.985 2.2 13.36 6.076 16.284 8.359 2.742 2.143 5.19 4.712 8.247 6.375 4.929 2.681 10.8 2.7 16.335 3.626s11.523 3.372 13.605 8.581" class="cls-4" data-name="Trazado 1252" transform="translate(-384.206 -55.141)"/>
        <g id="Grupo_770" data-name="Grupo 770" transform="translate(187.6 273.72)">
            <g id="Grupo_769" data-name="Grupo 769" transform="translate(6.391 1.233)">
                <path id="Trazado_1253" d="M485.831 316.869s-11.339 5.671-2.341 17.749c0 0 22.307 19.348 49.419.739 0 0 12.024-9.588 5.519-20.878 0 0-8.331-20.581-24.62-12.728.001-.001-22.924 5.136-27.977 15.118z" class="cls-51" data-name="Trazado 1253" transform="translate(-477.441 -270.283)"/>
                <path id="Trazado_1254" d="M514.178 302.735s-7.725 5.2.529 16.8c0 0 17.494 18.616 43.942 1.926 0 0 12.628-15.188 6.734-25.979 0 0-3.56-11.222-24.032-6.134 0 .004-22.057 4.159-27.173 13.387z" class="cls-51" data-name="Trazado 1254" transform="translate(-436.323 -286.176)"/>
                <path id="Trazado_1255" d="M490.02 342.622c0-.427 7.953-41.618 7.953-41.618" class="cls-52" data-name="Trazado 1255" transform="translate(-464.124 -268.898)"/>
                <path id="Trazado_1256" d="M495.051 341.579c0-.424 7.953-41.615 7.953-41.615" class="cls-53" data-name="Trazado 1256" transform="translate(-457.424 -270.283)"/>
                <path id="Trazado_1257" d="M520.407 328.229c0-.424 8.28-39.633 8.28-39.633" class="cls-52" data-name="Trazado 1257" transform="translate(-423.659 -285.421)"/>
                <path id="Trazado_1258" d="M525.438 326.813c0-.424 7.443-38.974 7.443-38.974" class="cls-53" data-name="Trazado 1258" transform="translate(-416.959 -286.429)"/>
                <g id="Grupo_766" data-name="Grupo 766" transform="translate(0 28.203)">
                    <path id="Trazado_1259" d="M509.492 346.217c-.238 0-.471 0-.707-.009-15.1-.427-30.211-7.3-29.866-19.612.236-8.331 11.758-15.879 16.7-18.737 9.282-5.367 19.623-8.669 26.3-8.525 13.188.368 21.789 9.788 21.409 23.435-.168 5.885-4.694 12.008-12.423 16.795-6.675 4.136-14.805 6.653-21.413 6.653zm11.873-42.984c-5.964 0-15.435 3.178-23.787 8.009-8.977 5.19-14.629 11.115-14.75 15.466-.27 9.646 13.23 15.23 26.068 15.592 6 .142 13.652-2.154 19.957-6.058 6.591-4.083 10.443-9.033 10.572-13.584.245-8.723-4.22-19.04-17.611-19.418q-.222-.007-.449-.007z" class="cls-54" data-name="Trazado 1259" transform="translate(-478.914 -299.33)"/>
                </g>
                <g id="Grupo_767" data-name="Grupo 767" transform="translate(72.555)">
                    <path id="Trazado_1260" d="M535.679 331.43a24.8 24.8 0 0 1-14.542-4.4c-4.167-2.929-11.15-8.94-11.106-16.256.028-4.351 2.5-8.242 7.354-11.567 18.028-12.337 36.985-14.5 44.213-9.418 4.09 2.877 7 10.014 6.92 16.974-.079 7-3.026 12.8-8.3 16.333-6.953 4.66-15.89 8.334-24.539 8.334zm-12.295-7.594c10.327 7.265 24.676 2.7 34.66-3.985 5.629-3.768 6.531-9.844 6.568-13.129.07-6.23-2.621-11.873-5.263-13.731-5.374-3.777-22.174-2.6-39.755 9.443-3.735 2.556-5.64 5.372-5.657 8.368-.028 4.043 3.416 8.795 9.446 13.034z" class="cls-54" data-name="Trazado 1260" transform="translate(-510.031 -287.234)"/>
                </g>
                <g id="Grupo_768" data-name="Grupo 768" transform="translate(58.031 28.522)">
                    <path id="Trazado_1261" d="M506.46 312.175l-2.658-4.84 17.7-7.868 2.658 4.84z" class="cls-54" data-name="Trazado 1261" transform="translate(-503.802 -299.467)"/>
                </g>
            </g>
            <path id="Trazado_1262" d="M494.242 304.37c-6.533 3.894-16.107 13.279-17.532 15.718a2.9 2.9 0 0 0-.252 2.887c1.5 2.56 13.416 10.483 16.27 11.745-1.089-2.735-8.6-10.266-7.109-16.088.154-.6.173-1.229.378-1.812a12.642 12.642 0 0 1 1.128-2.182 54.1 54.1 0 0 1 4.206-6.958 15.127 15.127 0 0 1 2.911-3.31z" class="cls-54" data-name="Trazado 1262" transform="translate(-476.173 -263.183)"/>
            <path id="Trazado_1263" d="M525 288.542c6.927-1.879 19.81-2.173 22.5-1.523a3.122 3.122 0 0 1 2.3 1.756c.979 2.742-.476 16.214-1.3 19.015-1.364-2.574-2.336-12.759-7.585-15.631-.539-.294-1.019-.7-1.578-.951a13.051 13.051 0 0 0-2.32-.685 55.355 55.355 0 0 0-7.767-1.763 14.871 14.871 0 0 0-4.25-.218z" class="cls-54" data-name="Trazado 1263" transform="translate(-411.154 -286.706)"/>
            <path id="Trazado_1264" d="M502.326 300.73s6.3 3.267 10.819 1.641l-5.367 5.685z" class="cls-54" data-name="Trazado 1264" transform="translate(-441.346 -268.03)"/>
            <path id="Trazado_1265" d="M511.682 297.906s.532 4.565-2.838 6.279l8.121-.527z" class="cls-54" data-name="Trazado 1265" transform="translate(-432.666 -271.79)"/>
            <path id="Trazado_1266" d="M512.057 303.674s-4.537 2.105-3.488 6.219l-4.062-6.165z" class="cls-54" data-name="Trazado 1266" transform="translate(-438.441 -264.109)"/>
            <path id="Trazado_1267" d="M510.444 305.541a6.648 6.648 0 0 1 7.023 1.861l-1.728-7.242z" class="cls-54" data-name="Trazado 1267" transform="translate(-430.535 -268.789)"/>
        </g>
        <path id="Trazado_1268" d="M426.429 252.481l1.509 30.822" class="cls-14" data-name="Trazado 1268" transform="translate(-354.814 -58.561)"/>
        <path id="Trazado_1269" d="M420.687 264.32a56.235 56.235 0 0 0 22.824 17.124" class="cls-14" data-name="Trazado 1269" transform="translate(-362.46 -42.795)"/>
        <path id="Trazado_1270" d="M419.746 277.206a6.511 6.511 0 0 1 2.562 1.464 31.919 31.919 0 0 1 8.758 11.423" class="cls-14" data-name="Trazado 1270" transform="translate(-363.713 -25.636)"/>
        <path id="Trazado_1271" d="M413.5 281.3a14.42 14.42 0 0 1 3.859.52 25.252 25.252 0 0 0 10.548-.126" class="cls-14" data-name="Trazado 1271" transform="translate(-372.029 -20.206)"/>
        <path id="Trazado_1272" d="M425.287 286.292c2.231-.361 4.479.389 6.734.576a19.768 19.768 0 0 0 5.575-.45 2.209 2.209 0 0 1 1.462.03" class="cls-14" data-name="Trazado 1272" transform="translate(-356.334 -13.665)"/>
        <path id="Trazado_1273" d="M603.75 301.806c-.968-2.392-27.019 5.915-58.186 18.553s-55.647 24.82-54.677 27.213 27.022-5.915 58.189-18.553 55.643-24.819 54.674-27.213z" class="cls-9" data-name="Trazado 1273" transform="translate(-269.017 6.577)"/>
        <path id="Trazado_1274" d="M410.34 249.213l1.569 18.912a5.127 5.127 0 0 0 .476 2.087 1.742 1.742 0 0 0 1.765.963 2.05 2.05 0 0 0 1.1-.783c1.4-1.73 1.5-4.136 1.541-6.361.1-5.664.131-11.621-2.593-16.587-.485-.884-1.189-1.809-2.194-1.9s-1.912 1.359-1.1 1.961" class="cls-15" data-name="Trazado 1274" transform="translate(-376.238 -67.798)"/>
        <path id="Trazado_1275" d="M413.765 259.166c-.249-.175-.588-.007-.837.166a6.366 6.366 0 0 0-2.3 2.46 2.835 2.835 0 0 0 .434 3.169 4.122 4.122 0 0 0 1.224.723 5.61 5.61 0 0 0 1.739.543 1.979 1.979 0 0 0 1.667-.574 2.412 2.412 0 0 0 .375-.639 4.946 4.946 0 0 0 .259-3.6 3.125 3.125 0 0 0-2.742-2.124" class="cls-15" data-name="Trazado 1275" transform="translate(-376.239 -49.757)"/>
        <path id="Trazado_1276" d="M490.33 327.406c-5.929 4.178-20.733 15.268-24.179 14.927a10.366 10.366 0 0 1-1.017-.212c-5.68-1.448-31.678-9.376-40.5-12.484a15.823 15.823 0 0 1-2.928-1.2 3.624 3.624 0 0 1-.448-1.749q-1.123-17.036-1.017-34.124c0-3.43 1.537-3.591 2.2-3.43 10.392 2.395 38.106 8.786 42.14 9.875a2.992 2.992 0 0 1 1.662.893 1.365 1.365 0 0 1 .124.215 3.652 3.652 0 0 1 .375 1.394c.089.856.215 3.141.322 6.23v.054c.089 2.966-.4 7.242-.331 11.136 7.552 2.25 15.081 3.9 23.365 6.883a.912.912 0 0 1 .232 1.592z" class="cls-2" data-name="Trazado 1276" transform="translate(-363.069 -9.799)"/>
        <path id="Trazado_1277" d="M464.546 301.624v.054c-.019.268-.035.5-.054.679-.18 3.215-.839 33.429-.858 33.855-5.678-1.446-32.694-9.588-41.515-12.7a63.962 63.962 0 0 0 16.338-4.141 43.56 43.56 0 0 0 8-4.393 46.533 46.533 0 0 0 7.072-6.018c.035-.035.07-.089.107-.126 4.374-4.589 6.7-9.767 9.749-15.142a1 1 0 0 1 .464.3c1.179 1.275.858 5.561.697 7.632z" class="cls-22" data-name="Trazado 1277" transform="translate(-360.553 -3.677)"/>
        <path id="Trazado_1278" d="M440.338 303.472l-.378 16.184c.322-.228 1.807-1.21 2.129-1.439l4.526-3.243q2.71-1.945 5.419-3.894c.683-.494 1.38-.977 2.052-1.488.445-.338.641-.879.1-1.224a5.862 5.862 0 0 0-1.366-.473l-2.215-.739q-3.141-1.042-6.284-2.075c-1.066-.35-2.921-1.259-3.983-1.609z" class="cls-55" data-name="Trazado 1278" transform="translate(-336.795 9.341)"/>
        <path id="Trazado_1279" d="M554.542 233.557c-.459 3.122-.553 5.675-.721 8.828a5.125 5.125 0 0 0 .205 2.157 1.793 1.793 0 0 0 1.646 1.21c1.019-.065 1.572-1.2 1.856-2.18a41.686 41.686 0 0 0 1.252-12.22c-.026-1.683-.2-3.6-1.53-4.628-.695-.541-1.9-.63-2.308.147a2.048 2.048 0 0 0-.17.9l-.231 5.789" class="cls-13" data-name="Trazado 1279" transform="translate(-185.203 -93.421)"/>
        <path id="Trazado_1280" d="M580.217 261.777c.368-.949.24-2.082-1.525-2.616a8.015 8.015 0 0 0-2.46-.284c-3.6.089-5.218 2.059-4 3.714a4.679 4.679 0 0 0 3.556 1.448c2.234.037 3.981-1.107 4.429-2.262z" class="cls-13" data-name="Trazado 1280" transform="translate(-161.193 -50.048)"/>
        <path id="Trazado_1281" d="M565.547 257.507c1.373-3.49 5.02-8.233 9.163-8.226a2.391 2.391 0 0 1 1.979.828c.667.942.068 2.318-.867 2.989a15.575 15.575 0 0 1-3.176 1.343 7.761 7.761 0 0 0-3.577 3.087c-.529.872-1.035 2.236-2.192 2.388-1.663.214-1.789-1.241-1.33-2.409z" class="cls-56" data-name="Trazado 1281" transform="translate(-169.863 -62.822)"/>
        <g id="Grupo_772" data-name="Grupo 772" transform="translate(135.885 277.021)">
            <path id="Trazado_1282" d="M465.868 294.087a51.647 51.647 0 0 1 .275-5.729 30.078 30.078 0 0 1 6.757 1.184 1.594 1.594 0 0 1 1.065.683 1.636 1.636 0 0 1 .105.713q-.014 3.984-.03 7.967a21.757 21.757 0 0 0 .536 5.992" class="cls-57" data-name="Trazado 1282" transform="translate(-438.182 -287.806)"/>
            <path id="Trazado_1283" d="M468.135 293.9a51.568 51.568 0 0 0 .424-5.72 30.083 30.083 0 0 0-6.85.352 1.6 1.6 0 0 0-1.143.55 1.645 1.645 0 0 0-.191.695q-.469 3.956-.942 7.911a21.612 21.612 0 0 1-1.261 5.883" class="cls-57" data-name="Trazado 1283" transform="translate(-448.428 -288.121)"/>
            <g id="Grupo_771" data-name="Grupo 771" transform="translate(0 3.265)">
                <path id="Trazado_1284" d="M458.475 300.824c2.42-4.146 5.526-7.851 9.373-9.846a11.258 11.258 0 0 1 12.064.609c3.938 2.966 5.88 8.6 7.226 13.992 3.358 13.456 4.507 27.553 5.638 41.545a7.479 7.479 0 0 1-.089 2.572 5.446 5.446 0 0 1-1.3 2.14 16.876 16.876 0 0 1-5.624 4.2 9.954 9.954 0 0 1-3.607.336c-.574-.156.683-.627.242-1.1a41.31 41.31 0 0 1-4.446-5.659c-2.558-3.905-4.584-8.368-7.611-11.742-4.251-4.736-10.434-7.333-12.88-13.68" class="cls-57" data-name="Trazado 1284" transform="translate(-449.372 -289.522)"/>
                <path id="Trazado_1285" d="M467.71 292.326a11.109 11.109 0 0 0-8.4 5.659c-1.728 3.066-2.166 6.918-2.4 10.623q-.294 4.7-.247 9.422c5.062.912 10.131 1.786 15.2 2.663l5.932 1.024c.672.117 2.336.737 2.957.5.742-.282.59-1.572.651-2.306.543-6.545-.541-12.784-2.145-19.1a15.533 15.533 0 0 0-1.718-4.624 7.822 7.822 0 0 0-3.54-2.947 14.463 14.463 0 0 0-2.287-.574 11.613 11.613 0 0 0-2.707-.4 10.881 10.881 0 0 0-1.296.06z" class="cls-58" data-name="Trazado 1285" transform="translate(-450.44 -285.872)"/>
                <path id="Trazado_1286" d="M459.89 302.354a2.325 2.325 0 0 0-3.029.73 8.066 8.066 0 0 0-1.345 3.423 67.22 67.22 0 0 0-1.516 13.26c-.061 4.071.464 8.639 3.285 11.185a13.017 13.017 0 0 0 3.435 2.022c3.318 1.513 23.058 4.12 26.492 4.106 1.257 0 2.674-.093 3.5-1.159a5.391 5.391 0 0 0 .734-3.243 81.694 81.694 0 0 0-3.064-22.759c-.389-1.38-1.271-4.383-2.553-4.409l-26.029-3.186" class="cls-57" data-name="Trazado 1286" transform="translate(-453.993 -272.851)"/>
                <path id="Trazado_1287" d="M459.82 303.507a2.055 2.055 0 0 0-2.807.73 8.407 8.407 0 0 0-1.247 3.42 72.417 72.417 0 0 0-1.4 13.26c-.056 4.071.429 8.639 3.045 11.185a11.806 11.806 0 0 0 3.183 2.022c3.075 1.516 21.365 4.125 24.55 4.111 1.164 0 2.476-.093 3.239-1.159a5.715 5.715 0 0 0 .683-3.241 87.964 87.964 0 0 0-2.842-22.762c-.364-1.38-1.177-4.381-2.369-4.409l-24.114-3.187" class="cls-15" data-name="Trazado 1287" transform="translate(-453.508 -271.318)"/>
            </g>
        </g>
        <path id="Trazado_1288" d="M410.247 282.974a1.871 1.871 0 0 1-1.285 2.168 2.635 2.635 0 0 1-2.087-.968c-.8-.755-2.278-1.849-2.126-3.122a1.535 1.535 0 0 1 .235-.592 1.556 1.556 0 0 1 .469-.55 1.721 1.721 0 0 1 .6-.2 3.66 3.66 0 0 1 4.194 3.264z" class="cls-15" data-name="Trazado 1288" transform="translate(-383.698 -22.391)"/>
    </g>
</svg>
